<svg width="1302" height="61" viewBox="0 0 1302 61" fill="none" xmlns="http://www.w3.org/2000/svg">
<path d="M0 30.5L383 30.5" stroke="white" stroke-width="9"/>
<path d="M492.701 10.4736V18.3838L485.035 42.0898H492.701V50H473.756V44.2627L481.666 18.3838H474.684V10.4736H492.701ZM495.387 10.4736H512.525V18.3838H505.665V25.8789H512.086V33.3984H505.665V42.0898H513.209V50H495.387V10.4736ZM539.137 10.4736V50H530.128L524.781 32.0312V50H516.188V10.4736H524.781L530.543 28.2715V10.4736H539.137ZM576.124 27.71H565.846V20.8252C565.846 18.8232 565.732 17.5781 565.504 17.0898C565.292 16.5853 564.812 16.333 564.063 16.333C563.217 16.333 562.68 16.6341 562.452 17.2363C562.224 17.8385 562.11 19.1406 562.11 21.1426V39.502C562.11 41.4225 562.224 42.6758 562.452 43.2617C562.68 43.8477 563.193 44.1406 563.99 44.1406C564.755 44.1406 565.252 43.8477 565.479 43.2617C565.724 42.6758 565.846 41.3005 565.846 39.1357V34.1797H576.124V35.7178C576.124 39.8031 575.831 42.7002 575.245 44.4092C574.675 46.1182 573.398 47.6156 571.412 48.9014C569.443 50.1872 567.009 50.8301 564.112 50.8301C561.101 50.8301 558.619 50.2848 556.666 49.1943C554.713 48.1038 553.419 46.5983 552.784 44.6777C552.149 42.7409 551.832 39.8356 551.832 35.9619V24.4141C551.832 21.5658 551.93 19.4336 552.125 18.0176C552.32 16.5853 552.898 15.21 553.858 13.8916C554.835 12.5732 556.178 11.5397 557.887 10.791C559.612 10.026 561.59 9.64355 563.819 9.64355C566.847 9.64355 569.345 10.2295 571.314 11.4014C573.284 12.5732 574.578 14.0381 575.196 15.7959C575.815 17.5374 576.124 20.2555 576.124 23.9502V27.71ZM603.297 33.6182C603.297 37.5895 603.199 40.4053 603.004 42.0654C602.825 43.7093 602.239 45.2148 601.246 46.582C600.27 47.9492 598.943 48.999 597.267 49.7314C595.59 50.4639 593.637 50.8301 591.407 50.8301C589.291 50.8301 587.387 50.4883 585.694 49.8047C584.018 49.1048 582.667 48.0632 581.642 46.6797C580.616 45.2962 580.006 43.7907 579.811 42.1631C579.615 40.5355 579.518 37.6872 579.518 33.6182V26.8555C579.518 22.8841 579.607 20.0765 579.786 18.4326C579.981 16.7725 580.567 15.2588 581.544 13.8916C582.537 12.5244 583.871 11.4746 585.548 10.7422C587.224 10.0098 589.177 9.64355 591.407 9.64355C593.523 9.64355 595.419 9.99349 597.096 10.6934C598.788 11.377 600.147 12.4105 601.173 13.7939C602.198 15.1774 602.809 16.6829 603.004 18.3105C603.199 19.9382 603.297 22.7865 603.297 26.8555V33.6182ZM593.019 20.6299C593.019 18.7907 592.913 17.6188 592.701 17.1143C592.506 16.5934 592.091 16.333 591.456 16.333C590.919 16.333 590.504 16.5446 590.211 16.9678C589.934 17.3747 589.796 18.5954 589.796 20.6299V39.0869C589.796 41.3818 589.885 42.7979 590.064 43.335C590.26 43.8721 590.699 44.1406 591.383 44.1406C592.083 44.1406 592.53 43.8314 592.726 43.2129C592.921 42.5944 593.019 41.1214 593.019 38.7939V20.6299ZM607.154 10.4736H624.562V18.3838H617.433V25.8789H623.78V33.3984H617.433V50H607.154V10.4736ZM627.076 10.4736H644.483V18.3838H637.354V25.8789H643.702V33.3984H637.354V50H627.076V10.4736ZM646.998 10.4736H664.137V18.3838H657.276V25.8789H663.697V33.3984H657.276V42.0898H664.82V50H646.998V10.4736ZM667.799 10.4736H684.938V18.3838H678.077V25.8789H684.498V33.3984H678.077V42.0898H685.621V50H667.799V10.4736ZM721.07 10.4736V50H710.792V33.3984H707.716V50H697.438V10.4736H707.716V24.6094H710.792V10.4736H721.07ZM748.707 33.6182C748.707 37.5895 748.609 40.4053 748.414 42.0654C748.235 43.7093 747.649 45.2148 746.656 46.582C745.68 47.9492 744.353 48.999 742.677 49.7314C741 50.4639 739.047 50.8301 736.817 50.8301C734.701 50.8301 732.797 50.4883 731.104 49.8047C729.428 49.1048 728.077 48.0632 727.052 46.6797C726.026 45.2962 725.416 43.7907 725.221 42.1631C725.025 40.5355 724.928 37.6872 724.928 33.6182V26.8555C724.928 22.8841 725.017 20.0765 725.196 18.4326C725.392 16.7725 725.978 15.2588 726.954 13.8916C727.947 12.5244 729.282 11.4746 730.958 10.7422C732.634 10.0098 734.588 9.64355 736.817 9.64355C738.933 9.64355 740.829 9.99349 742.506 10.6934C744.199 11.377 745.558 12.4105 746.583 13.7939C747.608 15.1774 748.219 16.6829 748.414 18.3105C748.609 19.9382 748.707 22.7865 748.707 26.8555V33.6182ZM738.429 20.6299C738.429 18.7907 738.323 17.6188 738.111 17.1143C737.916 16.5934 737.501 16.333 736.866 16.333C736.329 16.333 735.914 16.5446 735.621 16.9678C735.344 17.3747 735.206 18.5954 735.206 20.6299V39.0869C735.206 41.3818 735.296 42.7979 735.475 43.335C735.67 43.8721 736.109 44.1406 736.793 44.1406C737.493 44.1406 737.94 43.8314 738.136 43.2129C738.331 42.5944 738.429 41.1214 738.429 38.7939V20.6299ZM775.929 10.4736V36.8896C775.929 39.8844 775.831 41.9922 775.636 43.2129C775.44 44.4173 774.863 45.6624 773.902 46.9482C772.942 48.2178 771.673 49.1862 770.094 49.8535C768.531 50.5046 766.684 50.8301 764.552 50.8301C762.192 50.8301 760.108 50.4395 758.302 49.6582C756.495 48.877 755.144 47.8597 754.249 46.6064C753.354 45.3532 752.825 44.0348 752.662 42.6514C752.499 41.2516 752.418 38.3219 752.418 33.8623V10.4736H762.696V40.1123C762.696 41.8376 762.786 42.9443 762.965 43.4326C763.16 43.9046 763.543 44.1406 764.112 44.1406C764.763 44.1406 765.178 43.8802 765.357 43.3594C765.553 42.8223 765.65 41.569 765.65 39.5996V10.4736H775.929ZM801.686 22.4365H792.14V19.5068C792.14 18.1396 792.018 17.2689 791.773 16.8945C791.529 16.5202 791.122 16.333 790.553 16.333C789.934 16.333 789.462 16.5853 789.137 17.0898C788.827 17.5944 788.673 18.3594 788.673 19.3848C788.673 20.7031 788.852 21.696 789.21 22.3633C789.552 23.0306 790.52 23.8363 792.115 24.7803C796.689 27.4984 799.57 29.7282 800.758 31.4697C801.946 33.2113 802.54 36.0189 802.54 39.8926C802.54 42.7083 802.206 44.7835 801.539 46.1182C800.888 47.4528 799.618 48.5758 797.73 49.4873C795.842 50.3825 793.645 50.8301 791.139 50.8301C788.388 50.8301 786.036 50.3092 784.083 49.2676C782.146 48.2259 780.877 46.8994 780.274 45.2881C779.672 43.6768 779.371 41.39 779.371 38.4277V35.8398H788.917V40.6494C788.917 42.1305 789.047 43.0827 789.308 43.5059C789.584 43.929 790.064 44.1406 790.748 44.1406C791.432 44.1406 791.936 43.8721 792.262 43.335C792.604 42.7979 792.774 42.0003 792.774 40.9424C792.774 38.6149 792.457 37.0931 791.822 36.377C791.171 35.6608 789.568 34.4645 787.013 32.7881C784.457 31.0954 782.765 29.8665 781.935 29.1016C781.104 28.3366 780.413 27.2786 779.859 25.9277C779.322 24.5768 779.054 22.8516 779.054 20.752C779.054 17.7246 779.436 15.5111 780.201 14.1113C780.982 12.7116 782.236 11.6211 783.961 10.8398C785.686 10.0423 787.77 9.64355 790.211 9.64355C792.88 9.64355 795.151 10.0749 797.022 10.9375C798.91 11.8001 800.156 12.8906 800.758 14.209C801.376 15.5111 801.686 17.7327 801.686 20.874V22.4365ZM805.787 10.4736H822.926V18.3838H816.065V25.8789H822.486V33.3984H816.065V42.0898H823.609V50H805.787V10.4736Z" fill="white"/>
<path d="M915 30.5H1302" stroke="white" stroke-width="9"/>
</svg>
