<svg width="372" height="26" viewBox="0 0 372 26" fill="none" xmlns="http://www.w3.org/2000/svg">
<path d="M4.9125 19.0875C4.59583 19.0875 4.30833 19.0375 4.05 18.9375C3.8 18.8292 3.55833 18.7083 3.325 18.575C3.1 18.4333 2.87083 18.3125 2.6375 18.2125C2.40417 18.1042 2.15 18.05 1.875 18.05C1.525 18.05 1.25417 18.1542 1.0625 18.3625C0.879167 18.5625 0.766667 18.7583 0.725 18.95H0C0 17.6083 0.120833 16.4375 0.3625 15.4375C0.6125 14.4375 0.925 13.5542 1.3 12.7875C1.68333 12.0208 2.09167 11.3292 2.525 10.7125C2.95833 10.0875 3.36667 9.49167 3.75 8.925C4.13333 8.35833 4.44583 7.775 4.6875 7.175C4.9375 6.56667 5.0625 5.89583 5.0625 5.1625C5.0625 4.37917 4.975 3.75 4.8 3.275C4.63333 2.8 4.4 2.45833 4.1 2.25C3.80833 2.03333 3.46667 1.925 3.075 1.925C2.76667 1.925 2.49167 1.99583 2.25 2.1375C2.00833 2.27083 1.81667 2.44167 1.675 2.65C1.54167 2.85 1.475 3.05 1.475 3.25C1.475 3.41667 1.50833 3.56667 1.575 3.7C1.64167 3.83333 1.70417 3.97083 1.7625 4.1125C1.82917 4.25417 1.8625 4.4375 1.8625 4.6625C1.8625 5.02083 1.78333 5.27917 1.625 5.4375C1.475 5.5875 1.28333 5.6625 1.05 5.6625C0.808333 5.6625 0.608333 5.56667 0.45 5.375C0.3 5.18333 0.225 4.8625 0.225 4.4125C0.225 3.82917 0.345833 3.29583 0.5875 2.8125C0.8375 2.32083 1.20417 1.925 1.6875 1.625C2.17083 1.325 2.75833 1.175 3.45 1.175C3.85 1.175 4.25 1.2375 4.65 1.3625C5.05833 1.47917 5.43333 1.6875 5.775 1.9875C6.11667 2.27917 6.39167 2.6875 6.6 3.2125C6.80833 3.72917 6.9125 4.3875 6.9125 5.1875C6.9125 5.99583 6.81667 6.7 6.625 7.3C6.43333 7.9 6.17083 8.4375 5.8375 8.9125C5.5125 9.3875 5.15 9.83333 4.75 10.25C4.35833 10.6667 3.95417 11.0958 3.5375 11.5375C3.12917 11.9792 2.74167 12.4708 2.375 13.0125C2.00833 13.5458 1.69167 14.1667 1.425 14.875C1.16667 15.5833 0.9875 16.4125 0.8875 17.3625C0.9625 17.2208 1.08333 17.0917 1.25 16.975C1.425 16.85 1.63333 16.75 1.875 16.675C2.125 16.6 2.39167 16.5625 2.675 16.5625C3.025 16.5625 3.35 16.625 3.65 16.75C3.95 16.8667 4.22917 16.9875 4.4875 17.1125C4.75417 17.2292 4.99583 17.2875 5.2125 17.2875C5.5375 17.2875 5.77917 17.1792 5.9375 16.9625C6.10417 16.7375 6.1875 16.3625 6.1875 15.8375H6.8875V16.275C6.8875 16.7833 6.82083 17.25 6.6875 17.675C6.55417 18.1 6.34167 18.4417 6.05 18.7C5.75833 18.9583 5.37917 19.0875 4.9125 19.0875Z" fill="white"/>
<path d="M14.667 19.2375C14.017 19.2375 13.4128 18.9167 12.8545 18.275C12.2962 17.6333 11.8462 16.65 11.5045 15.325C11.1712 13.9917 11.0045 12.2917 11.0045 10.225C11.0045 8.15 11.1712 6.44583 11.5045 5.1125C11.8462 3.77917 12.292 2.79167 12.842 2.15C13.4003 1.5 14.0087 1.175 14.667 1.175C15.317 1.175 15.917 1.5 16.467 2.15C17.0253 2.79167 17.4753 3.77917 17.817 5.1125C18.1587 6.44583 18.3295 8.15 18.3295 10.225C18.3295 12.2917 18.1587 13.9917 17.817 15.325C17.4753 16.65 17.0253 17.6333 16.467 18.275C15.917 18.9167 15.317 19.2375 14.667 19.2375ZM14.667 18.4625C14.917 18.4625 15.1503 18.2542 15.367 17.8375C15.5837 17.4208 15.7753 16.8417 15.942 16.1C16.1087 15.35 16.2378 14.475 16.3295 13.475C16.4212 12.475 16.467 11.3917 16.467 10.225C16.467 9.05 16.4212 7.9625 16.3295 6.9625C16.2378 5.95417 16.1087 5.075 15.942 4.325C15.7753 3.56667 15.5837 2.97917 15.367 2.5625C15.1503 2.1375 14.917 1.925 14.667 1.925C14.4087 1.925 14.1712 2.13333 13.9545 2.55C13.7378 2.95833 13.5462 3.5375 13.3795 4.2875C13.2128 5.0375 13.0837 5.91667 12.992 6.925C12.9003 7.93333 12.8545 9.03333 12.8545 10.225C12.8545 11.4083 12.9003 12.5042 12.992 13.5125C13.0837 14.5125 13.2128 15.3833 13.3795 16.125C13.5462 16.8667 13.7378 17.4417 13.9545 17.85C14.1712 18.2583 14.4087 18.4625 14.667 18.4625Z" fill="white"/>
<path d="M27.0404 19.0875C26.7238 19.0875 26.4363 19.0375 26.1779 18.9375C25.9279 18.8292 25.6863 18.7083 25.4529 18.575C25.2279 18.4333 24.9988 18.3125 24.7654 18.2125C24.5321 18.1042 24.2779 18.05 24.0029 18.05C23.6529 18.05 23.3821 18.1542 23.1904 18.3625C23.0071 18.5625 22.8946 18.7583 22.8529 18.95H22.1279C22.1279 17.6083 22.2488 16.4375 22.4904 15.4375C22.7404 14.4375 23.0529 13.5542 23.4279 12.7875C23.8113 12.0208 24.2196 11.3292 24.6529 10.7125C25.0863 10.0875 25.4946 9.49167 25.8779 8.925C26.2613 8.35833 26.5738 7.775 26.8154 7.175C27.0654 6.56667 27.1904 5.89583 27.1904 5.1625C27.1904 4.37917 27.1029 3.75 26.9279 3.275C26.7613 2.8 26.5279 2.45833 26.2279 2.25C25.9363 2.03333 25.5946 1.925 25.2029 1.925C24.8946 1.925 24.6196 1.99583 24.3779 2.1375C24.1363 2.27083 23.9446 2.44167 23.8029 2.65C23.6696 2.85 23.6029 3.05 23.6029 3.25C23.6029 3.41667 23.6363 3.56667 23.7029 3.7C23.7696 3.83333 23.8321 3.97083 23.8904 4.1125C23.9571 4.25417 23.9904 4.4375 23.9904 4.6625C23.9904 5.02083 23.9113 5.27917 23.7529 5.4375C23.6029 5.5875 23.4113 5.6625 23.1779 5.6625C22.9363 5.6625 22.7363 5.56667 22.5779 5.375C22.4279 5.18333 22.3529 4.8625 22.3529 4.4125C22.3529 3.82917 22.4738 3.29583 22.7154 2.8125C22.9654 2.32083 23.3321 1.925 23.8154 1.625C24.2988 1.325 24.8863 1.175 25.5779 1.175C25.9779 1.175 26.3779 1.2375 26.7779 1.3625C27.1863 1.47917 27.5613 1.6875 27.9029 1.9875C28.2446 2.27917 28.5196 2.6875 28.7279 3.2125C28.9363 3.72917 29.0404 4.3875 29.0404 5.1875C29.0404 5.99583 28.9446 6.7 28.7529 7.3C28.5613 7.9 28.2988 8.4375 27.9654 8.9125C27.6404 9.3875 27.2779 9.83333 26.8779 10.25C26.4863 10.6667 26.0821 11.0958 25.6654 11.5375C25.2571 11.9792 24.8696 12.4708 24.5029 13.0125C24.1363 13.5458 23.8196 14.1667 23.5529 14.875C23.2946 15.5833 23.1154 16.4125 23.0154 17.3625C23.0904 17.2208 23.2113 17.0917 23.3779 16.975C23.5529 16.85 23.7613 16.75 24.0029 16.675C24.2529 16.6 24.5196 16.5625 24.8029 16.5625C25.1529 16.5625 25.4779 16.625 25.7779 16.75C26.0779 16.8667 26.3571 16.9875 26.6154 17.1125C26.8821 17.2292 27.1238 17.2875 27.3404 17.2875C27.6654 17.2875 27.9071 17.1792 28.0654 16.9625C28.2321 16.7375 28.3154 16.3625 28.3154 15.8375H29.0154V16.275C29.0154 16.7833 28.9488 17.25 28.8154 17.675C28.6821 18.1 28.4696 18.4417 28.1779 18.7C27.8863 18.9583 27.5071 19.0875 27.0404 19.0875Z" fill="white"/>
<path d="M35.8574 19.25C35.2074 19.25 34.6533 19.1 34.1949 18.8C33.7449 18.5 33.3991 18.1 33.1574 17.6C32.9241 17.1 32.8074 16.5625 32.8074 15.9875C32.8074 15.5375 32.9033 15.2125 33.0949 15.0125C33.2866 14.8042 33.4991 14.7 33.7324 14.7C33.9658 14.7 34.1491 14.775 34.2824 14.925C34.4158 15.075 34.4824 15.3208 34.4824 15.6625C34.4824 15.8875 34.4449 16.0708 34.3699 16.2125C34.2949 16.3542 34.2199 16.5 34.1449 16.65C34.0699 16.8 34.0324 16.9958 34.0324 17.2375C34.0324 17.5375 34.1783 17.8208 34.4699 18.0875C34.7616 18.3458 35.1366 18.475 35.5949 18.475C35.9699 18.475 36.3074 18.3625 36.6074 18.1375C36.9158 17.9125 37.1574 17.5125 37.3324 16.9375C37.5074 16.3542 37.5949 15.5292 37.5949 14.4625C37.5949 13.4875 37.5074 12.7167 37.3324 12.15C37.1574 11.575 36.9366 11.15 36.6699 10.875C36.4033 10.5917 36.1366 10.4083 35.8699 10.325C35.6116 10.2333 35.3949 10.1875 35.2199 10.1875V9.4C35.3949 9.4 35.6199 9.3625 35.8949 9.2875C36.1699 9.2125 36.4449 9.04167 36.7199 8.775C36.9949 8.5 37.2241 8.075 37.4074 7.5C37.5991 6.91667 37.6949 6.12083 37.6949 5.1125C37.6949 4.07083 37.5158 3.28333 37.1574 2.75C36.8074 2.20833 36.3158 1.9375 35.6824 1.9375C35.2158 1.9375 34.8283 2.0625 34.5199 2.3125C34.2116 2.5625 34.0574 2.83333 34.0574 3.125C34.0574 3.39167 34.0908 3.60417 34.1574 3.7625C34.2324 3.9125 34.3033 4.05833 34.3699 4.2C34.4449 4.34167 34.4824 4.525 34.4824 4.75C34.4824 5.1 34.4158 5.35 34.2824 5.5C34.1574 5.65 33.9783 5.725 33.7449 5.725C33.5116 5.725 33.2949 5.62083 33.0949 5.4125C32.9033 5.19583 32.8074 4.8625 32.8074 4.4125C32.8074 3.82917 32.9324 3.29583 33.1824 2.8125C33.4324 2.32083 33.7949 1.925 34.2699 1.625C34.7533 1.325 35.3283 1.175 35.9949 1.175C36.6699 1.175 37.2699 1.33333 37.7949 1.65C38.3283 1.95833 38.7491 2.40833 39.0574 3C39.3741 3.59167 39.5324 4.3125 39.5324 5.1625C39.5324 5.92083 39.4241 6.5875 39.2074 7.1625C38.9991 7.7375 38.7283 8.21667 38.3949 8.6C38.0616 8.98333 37.7158 9.275 37.3574 9.475C36.9991 9.675 36.6741 9.78333 36.3824 9.8C36.6741 9.81667 37.0033 9.925 37.3699 10.125C37.7366 10.325 38.0908 10.6167 38.4324 11C38.7741 11.3833 39.0533 11.8625 39.2699 12.4375C39.4949 13.0042 39.6074 13.6708 39.6074 14.4375C39.6074 15.3292 39.4616 16.1417 39.1699 16.875C38.8866 17.6 38.4658 18.1792 37.9074 18.6125C37.3491 19.0375 36.6658 19.25 35.8574 19.25Z" fill="white"/>
<path d="M48.6676 18.95V18.2L52.9301 2.2H51.8176C51.1676 2.2 50.6842 2.29583 50.3676 2.4875C50.0509 2.67917 49.8426 2.9875 49.7426 3.4125C49.6426 3.8375 49.5926 4.3875 49.5926 5.0625H48.8426V1.45H54.9801V2.1875L50.6676 18.2H52.1801C52.7634 18.2 53.2176 18.1 53.5426 17.9C53.8759 17.7 54.1092 17.3875 54.2426 16.9625C54.3842 16.5292 54.4551 15.975 54.4551 15.3H55.2051V18.95H48.6676Z" fill="white"/>
<path d="M61.8117 19.2125C61.2034 19.2125 60.6826 19.0333 60.2492 18.675C59.8159 18.3083 59.4576 17.8083 59.1742 17.175C58.8992 16.5417 58.6951 15.8125 58.5617 14.9875C58.4367 14.1625 58.3742 13.2917 58.3742 12.375C58.3742 11.2583 58.4659 10.2833 58.6492 9.45C58.8326 8.61667 59.0826 7.92917 59.3992 7.3875C59.7242 6.8375 60.0909 6.42917 60.4992 6.1625C60.9076 5.8875 61.3326 5.75 61.7742 5.75C62.2992 5.75 62.7534 5.90833 63.1367 6.225C63.5201 6.53333 63.8367 6.95417 64.0867 7.4875C64.345 8.0125 64.5325 8.6125 64.6492 9.2875C64.7742 9.95417 64.8367 10.6458 64.8367 11.3625C64.8367 11.5292 64.8367 11.6958 64.8367 11.8625C64.8367 12.0292 64.8326 12.1917 64.8242 12.35H60.1117V11.6125H62.9992C62.9992 10.5375 62.9617 9.62083 62.8867 8.8625C62.8117 8.09583 62.6867 7.5125 62.5117 7.1125C62.3367 6.70417 62.0909 6.5 61.7742 6.5C61.4742 6.5 61.2117 6.7 60.9867 7.1C60.7617 7.5 60.5867 8.10833 60.4617 8.925C60.3451 9.74167 60.2867 10.775 60.2867 12.025C60.2867 12.9333 60.3076 13.775 60.3492 14.55C60.3992 15.325 60.4826 16 60.5992 16.575C60.7242 17.15 60.8992 17.6 61.1242 17.925C61.3576 18.2417 61.6534 18.4 62.0117 18.4C62.5451 18.4 62.9617 18.25 63.2617 17.95C63.5701 17.6417 63.7784 17.3333 63.8867 17.025L64.5367 17.4C64.3784 17.875 64.0534 18.2958 63.5617 18.6625C63.0701 19.0292 62.4867 19.2125 61.8117 19.2125Z" fill="white"/>
<path d="M67.7361 18.95V18.2H68.9986V6.6125H67.7361V5.8625H70.8361V7.2875C70.8861 7.0875 71.0028 6.86667 71.1861 6.625C71.3695 6.38333 71.6111 6.17917 71.9111 6.0125C72.2195 5.8375 72.5736 5.75 72.9736 5.75C73.3653 5.75 73.7445 5.84583 74.1111 6.0375C74.4778 6.22917 74.7778 6.6 75.0111 7.15C75.2528 7.7 75.3736 8.5125 75.3736 9.5875V18.2H76.6111V18.95H72.4486V18.2H73.4986V9.8C73.4986 8.75 73.4028 7.99583 73.2111 7.5375C73.0278 7.07083 72.7361 6.8375 72.3361 6.8375C72.1278 6.8375 71.9361 6.91667 71.7611 7.075C71.5861 7.225 71.432 7.42917 71.2986 7.6875C71.1653 7.94583 71.0611 8.22917 70.9861 8.5375C70.9195 8.8375 70.882 9.1375 70.8736 9.4375V18.2H71.8986V18.95H67.7361Z" fill="white"/>
<path d="M89.1133 19.2C87.9216 19.2 86.9424 18.4375 86.1758 16.9125C85.4174 15.3875 85.0383 13.1583 85.0383 10.225C85.0383 9.14167 85.1216 8.06667 85.2883 7C85.4633 5.925 85.7216 4.95 86.0633 4.075C86.4133 3.2 86.8508 2.5 87.3758 1.975C87.9008 1.44167 88.5133 1.175 89.2133 1.175C89.6966 1.175 90.1175 1.34167 90.4758 1.675C90.8341 2.00833 91.1091 2.42917 91.3008 2.9375C91.4924 3.4375 91.5883 3.94167 91.5883 4.45C91.5883 4.86667 91.5174 5.18333 91.3758 5.4C91.2424 5.60833 91.0383 5.7125 90.7633 5.7125C90.4633 5.7125 90.2425 5.62083 90.1008 5.4375C89.9675 5.24583 89.9008 4.97917 89.9008 4.6375C89.9008 4.4125 89.9383 4.22083 90.0133 4.0625C90.0883 3.89583 90.1633 3.725 90.2383 3.55C90.3133 3.375 90.3508 3.15417 90.3508 2.8875C90.3508 2.59583 90.2675 2.36667 90.1008 2.2C89.9425 2.03333 89.755 1.95 89.5383 1.95C89.1883 1.95 88.8758 2.12917 88.6008 2.4875C88.3341 2.8375 88.1008 3.30833 87.9008 3.9C87.7091 4.49167 87.5466 5.15 87.4133 5.875C87.2883 6.59167 87.1924 7.32917 87.1258 8.0875C87.0674 8.8375 87.0383 9.54167 87.0383 10.2C87.0383 11.1583 87.0758 12.0583 87.1508 12.9C87.2258 13.7417 87.3299 14.5042 87.4633 15.1875C87.5966 15.8625 87.7591 16.4458 87.9508 16.9375C88.1424 17.4208 88.3549 17.7958 88.5883 18.0625C88.8216 18.3208 89.0758 18.45 89.3508 18.45C89.6675 18.45 89.9341 18.3458 90.1508 18.1375C90.3758 17.9292 90.5591 17.6708 90.7008 17.3625C90.8508 17.0458 90.9674 16.7292 91.0508 16.4125L91.7133 16.75C91.5716 17.1833 91.3799 17.5875 91.1383 17.9625C90.9049 18.3292 90.6216 18.6292 90.2883 18.8625C89.955 19.0875 89.5633 19.2 89.1133 19.2Z" fill="white"/>
<path d="M98.1943 19.225C97.736 19.225 97.2985 19.075 96.8818 18.775C96.4735 18.475 96.1068 18.0333 95.7818 17.45C95.4568 16.8667 95.2027 16.15 95.0193 15.3C94.836 14.45 94.7443 13.4708 94.7443 12.3625C94.7443 11.1542 94.8402 10.1292 95.0318 9.2875C95.2318 8.44583 95.4943 7.76667 95.8193 7.25C96.1527 6.725 96.5235 6.34583 96.9318 6.1125C97.3485 5.87083 97.7693 5.75 98.1943 5.75C98.6277 5.75 99.0485 5.87083 99.4568 6.1125C99.8735 6.34583 100.244 6.725 100.569 7.25C100.903 7.76667 101.169 8.44583 101.369 9.2875C101.569 10.1292 101.669 11.1542 101.669 12.3625C101.669 13.4708 101.574 14.45 101.382 15.3C101.199 16.15 100.944 16.8667 100.619 17.45C100.294 18.0333 99.9235 18.475 99.5068 18.775C99.0902 19.075 98.6527 19.225 98.1943 19.225ZM98.1943 18.4375C98.6527 18.4375 99.0235 17.9417 99.3068 16.95C99.5902 15.9583 99.7318 14.4292 99.7318 12.3625C99.7318 10.3208 99.5902 8.8375 99.3068 7.9125C99.0235 6.9875 98.6527 6.525 98.1943 6.525C97.7443 6.525 97.3735 6.9875 97.0818 7.9125C96.7985 8.8375 96.6568 10.3208 96.6568 12.3625C96.6568 14.4292 96.7985 15.9583 97.0818 16.95C97.3735 17.9417 97.7443 18.4375 98.1943 18.4375Z" fill="white"/>
<path d="M104.596 18.95V18.2H105.958V6.6125H104.496V5.8625H105.958V4.8875C105.958 3.70417 106.096 2.7625 106.371 2.0625C106.654 1.35417 107.037 0.845833 107.521 0.5375C108.012 0.220833 108.562 0.0625 109.171 0.0625C109.612 0.0625 109.992 0.183333 110.308 0.424999C110.633 0.658332 110.883 0.941666 111.058 1.275C111.242 1.6 111.337 1.9125 111.346 2.2125L110.821 3.1625C110.821 2.77083 110.762 2.4 110.646 2.05C110.529 1.7 110.362 1.4125 110.146 1.1875C109.929 0.962499 109.662 0.85 109.346 0.85C109.021 0.85 108.758 0.974999 108.558 1.225C108.358 1.46667 108.204 1.8 108.096 2.225C107.987 2.65 107.912 3.1375 107.871 3.6875C107.837 4.2375 107.821 4.82083 107.821 5.4375C107.821 5.52917 107.821 5.6125 107.821 5.6875C107.821 5.75417 107.821 5.8125 107.821 5.8625H109.721V6.6125H107.821V18.2H109.221V18.95H104.596ZM109.296 18.95V18.2H110.621V6.6125H109.108V5.8625H110.621V4.1625C110.621 3.29583 110.725 2.55833 110.933 1.95C111.15 1.33333 111.475 0.866666 111.908 0.549999C112.342 0.225 112.871 0.0625 113.496 0.0625C114.187 0.0625 114.717 0.354166 115.083 0.937499C115.45 1.52083 115.633 2.26667 115.633 3.175C115.633 3.56667 115.562 3.87083 115.421 4.0875C115.287 4.29583 115.079 4.4 114.796 4.4C114.504 4.4 114.296 4.30417 114.171 4.1125C114.046 3.9125 113.983 3.66667 113.983 3.375C113.983 3.15 114.021 2.96667 114.096 2.825C114.179 2.675 114.258 2.53333 114.333 2.4C114.417 2.26667 114.458 2.10833 114.458 1.925C114.458 1.6 114.379 1.3375 114.221 1.1375C114.062 0.929166 113.858 0.825 113.608 0.825C113.392 0.825 113.208 0.908333 113.058 1.075C112.917 1.23333 112.804 1.4625 112.721 1.7625C112.637 2.05417 112.579 2.40833 112.546 2.825C112.512 3.23333 112.496 3.69167 112.496 4.2V5.8625H114.071V6.6125H112.496V18.2H113.846V18.95H109.296Z" fill="white"/>
<path d="M120.529 19.2125C119.921 19.2125 119.4 19.0333 118.967 18.675C118.534 18.3083 118.175 17.8083 117.892 17.175C117.617 16.5417 117.413 15.8125 117.279 14.9875C117.154 14.1625 117.092 13.2917 117.092 12.375C117.092 11.2583 117.184 10.2833 117.367 9.45C117.55 8.61667 117.8 7.92917 118.117 7.3875C118.442 6.8375 118.809 6.42917 119.217 6.1625C119.625 5.8875 120.05 5.75 120.492 5.75C121.017 5.75 121.471 5.90833 121.854 6.225C122.238 6.53333 122.554 6.95417 122.804 7.4875C123.063 8.0125 123.25 8.6125 123.367 9.2875C123.492 9.95417 123.554 10.6458 123.554 11.3625C123.554 11.5292 123.554 11.6958 123.554 11.8625C123.554 12.0292 123.55 12.1917 123.542 12.35H118.829V11.6125H121.717C121.717 10.5375 121.679 9.62083 121.604 8.8625C121.529 8.09583 121.404 7.5125 121.229 7.1125C121.054 6.70417 120.809 6.5 120.492 6.5C120.192 6.5 119.929 6.7 119.704 7.1C119.479 7.5 119.304 8.10833 119.179 8.925C119.063 9.74167 119.004 10.775 119.004 12.025C119.004 12.9333 119.025 13.775 119.067 14.55C119.117 15.325 119.2 16 119.317 16.575C119.442 17.15 119.617 17.6 119.842 17.925C120.075 18.2417 120.371 18.4 120.729 18.4C121.263 18.4 121.679 18.25 121.979 17.95C122.288 17.6417 122.496 17.3333 122.604 17.025L123.254 17.4C123.096 17.875 122.771 18.2958 122.279 18.6625C121.788 19.0292 121.204 19.2125 120.529 19.2125Z" fill="white"/>
<path d="M130.336 19.2125C129.728 19.2125 129.207 19.0333 128.774 18.675C128.34 18.3083 127.982 17.8083 127.699 17.175C127.424 16.5417 127.219 15.8125 127.086 14.9875C126.961 14.1625 126.899 13.2917 126.899 12.375C126.899 11.2583 126.99 10.2833 127.174 9.45C127.357 8.61667 127.607 7.92917 127.924 7.3875C128.249 6.8375 128.615 6.42917 129.024 6.1625C129.432 5.8875 129.857 5.75 130.299 5.75C130.824 5.75 131.278 5.90833 131.661 6.225C132.044 6.53333 132.361 6.95417 132.611 7.4875C132.869 8.0125 133.057 8.6125 133.174 9.2875C133.299 9.95417 133.361 10.6458 133.361 11.3625C133.361 11.5292 133.361 11.6958 133.361 11.8625C133.361 12.0292 133.357 12.1917 133.349 12.35H128.636V11.6125H131.524C131.524 10.5375 131.486 9.62083 131.411 8.8625C131.336 8.09583 131.211 7.5125 131.036 7.1125C130.861 6.70417 130.615 6.5 130.299 6.5C129.999 6.5 129.736 6.7 129.511 7.1C129.286 7.5 129.111 8.10833 128.986 8.925C128.869 9.74167 128.811 10.775 128.811 12.025C128.811 12.9333 128.832 13.775 128.874 14.55C128.924 15.325 129.007 16 129.124 16.575C129.249 17.15 129.424 17.6 129.649 17.925C129.882 18.2417 130.178 18.4 130.536 18.4C131.069 18.4 131.486 18.25 131.786 17.95C132.094 17.6417 132.303 17.3333 132.411 17.025L133.061 17.4C132.903 17.875 132.578 18.2958 132.086 18.6625C131.594 19.0292 131.011 19.2125 130.336 19.2125Z" fill="white"/>
<path d="M142.069 18.95V18.2H143.219V2.2H142.069V1.45H146.044V2.2H145.081V9.575H148.356V2.2H147.406V1.45H151.369V2.2H150.181V18.2H151.369V18.95H147.406V18.2H148.356V10.3125H145.081V18.2H146.044V18.95H142.069Z" fill="white"/>
<path d="M157.864 19.225C157.406 19.225 156.968 19.075 156.552 18.775C156.143 18.475 155.777 18.0333 155.452 17.45C155.127 16.8667 154.873 16.15 154.689 15.3C154.506 14.45 154.414 13.4708 154.414 12.3625C154.414 11.1542 154.51 10.1292 154.702 9.2875C154.902 8.44583 155.164 7.76667 155.489 7.25C155.823 6.725 156.193 6.34583 156.602 6.1125C157.018 5.87083 157.439 5.75 157.864 5.75C158.298 5.75 158.718 5.87083 159.127 6.1125C159.543 6.34583 159.914 6.725 160.239 7.25C160.573 7.76667 160.839 8.44583 161.039 9.2875C161.239 10.1292 161.339 11.1542 161.339 12.3625C161.339 13.4708 161.243 14.45 161.052 15.3C160.868 16.15 160.614 16.8667 160.289 17.45C159.964 18.0333 159.593 18.475 159.177 18.775C158.76 19.075 158.323 19.225 157.864 19.225ZM157.864 18.4375C158.323 18.4375 158.693 17.9417 158.977 16.95C159.26 15.9583 159.402 14.4292 159.402 12.3625C159.402 10.3208 159.26 8.8375 158.977 7.9125C158.693 6.9875 158.323 6.525 157.864 6.525C157.414 6.525 157.043 6.9875 156.752 7.9125C156.468 8.8375 156.327 10.3208 156.327 12.3625C156.327 14.4292 156.468 15.9583 156.752 16.95C157.043 17.9417 157.414 18.4375 157.864 18.4375Z" fill="white"/>
<path d="M167.73 19.225C167.272 19.225 166.851 19.1292 166.467 18.9375C166.084 18.7458 165.776 18.3875 165.542 17.8625C165.309 17.3292 165.192 16.5542 165.192 15.5375V6.6125H163.967V5.875H167.067V15.35C167.067 16.125 167.113 16.7208 167.205 17.1375C167.305 17.5542 167.438 17.8417 167.605 18C167.78 18.15 167.984 18.225 168.217 18.225C168.534 18.225 168.805 18.0667 169.03 17.75C169.263 17.4333 169.438 17.0208 169.555 16.5125C169.672 16.0042 169.73 15.4583 169.73 14.875V6.6125H168.542V5.875H171.605V18.2H172.717V18.95H169.917L169.842 17.45C169.801 17.6917 169.692 17.95 169.517 18.225C169.351 18.5 169.117 18.7375 168.817 18.9375C168.526 19.1292 168.163 19.225 167.73 19.225Z" fill="white"/>
<path d="M178.195 19.225C177.77 19.225 177.437 19.1667 177.195 19.05C176.962 18.9417 176.779 18.8333 176.645 18.725C176.512 18.6167 176.391 18.5625 176.283 18.5625C176.183 18.5625 176.112 18.5958 176.07 18.6625C176.037 18.7292 176.016 18.825 176.008 18.95H175.383V15.2375H176.133C176.174 15.7375 176.245 16.1875 176.345 16.5875C176.445 16.9875 176.574 17.3292 176.733 17.6125C176.899 17.8875 177.099 18.1 177.333 18.25C177.574 18.4 177.854 18.475 178.17 18.475C178.487 18.475 178.741 18.3917 178.933 18.225C179.124 18.05 179.262 17.8292 179.345 17.5625C179.429 17.2958 179.47 17.0208 179.47 16.7375C179.47 16.3208 179.404 15.9167 179.27 15.525C179.137 15.1333 178.933 14.7375 178.658 14.3375C178.391 13.9292 178.045 13.5 177.62 13.05C177.02 12.4 176.512 11.7375 176.095 11.0625C175.679 10.3875 175.47 9.57083 175.47 8.6125C175.47 7.97083 175.591 7.4375 175.833 7.0125C176.083 6.5875 176.404 6.27083 176.795 6.0625C177.187 5.85417 177.604 5.75 178.045 5.75C178.379 5.75 178.645 5.79167 178.845 5.875C179.054 5.95 179.22 6.02917 179.345 6.1125C179.47 6.19583 179.574 6.2375 179.658 6.2375C179.724 6.2375 179.774 6.20833 179.808 6.15C179.841 6.09167 179.862 5.99583 179.87 5.8625H180.52V9.4625H179.783C179.749 8.97917 179.691 8.55417 179.608 8.1875C179.524 7.82083 179.412 7.5125 179.27 7.2625C179.137 7.0125 178.97 6.825 178.77 6.7C178.57 6.56667 178.341 6.5 178.083 6.5C177.674 6.5 177.358 6.65 177.133 6.95C176.908 7.25 176.795 7.64167 176.795 8.125C176.795 8.68333 176.949 9.20417 177.258 9.6875C177.566 10.1708 178.008 10.7208 178.583 11.3375C179.049 11.8375 179.449 12.3292 179.783 12.8125C180.124 13.2958 180.387 13.7958 180.57 14.3125C180.754 14.8292 180.845 15.3917 180.845 16C180.845 16.6583 180.737 17.2292 180.52 17.7125C180.312 18.1958 180.008 18.5708 179.608 18.8375C179.216 19.0958 178.745 19.225 178.195 19.225Z" fill="white"/>
<path d="M187.345 19.2125C186.737 19.2125 186.216 19.0333 185.782 18.675C185.349 18.3083 184.991 17.8083 184.707 17.175C184.432 16.5417 184.228 15.8125 184.095 14.9875C183.97 14.1625 183.907 13.2917 183.907 12.375C183.907 11.2583 183.999 10.2833 184.182 9.45C184.366 8.61667 184.616 7.92917 184.932 7.3875C185.257 6.8375 185.624 6.42917 186.032 6.1625C186.441 5.8875 186.866 5.75 187.307 5.75C187.832 5.75 188.287 5.90833 188.67 6.225C189.053 6.53333 189.37 6.95417 189.62 7.4875C189.878 8.0125 190.066 8.6125 190.182 9.2875C190.307 9.95417 190.37 10.6458 190.37 11.3625C190.37 11.5292 190.37 11.6958 190.37 11.8625C190.37 12.0292 190.366 12.1917 190.357 12.35H185.645V11.6125H188.532C188.532 10.5375 188.495 9.62083 188.42 8.8625C188.345 8.09583 188.22 7.5125 188.045 7.1125C187.87 6.70417 187.624 6.5 187.307 6.5C187.007 6.5 186.745 6.7 186.52 7.1C186.295 7.5 186.12 8.10833 185.995 8.925C185.878 9.74167 185.82 10.775 185.82 12.025C185.82 12.9333 185.841 13.775 185.882 14.55C185.932 15.325 186.016 16 186.132 16.575C186.257 17.15 186.432 17.6 186.657 17.925C186.891 18.2417 187.187 18.4 187.545 18.4C188.078 18.4 188.495 18.25 188.795 17.95C189.103 17.6417 189.312 17.3333 189.42 17.025L190.07 17.4C189.912 17.875 189.587 18.2958 189.095 18.6625C188.603 19.0292 188.02 19.2125 187.345 19.2125Z" fill="white"/>
<path d="M194.082 12.2875V11.55H199.607V12.2875H194.082Z" fill="white"/>
<path d="M202.653 18.95V18.2H203.665L206.04 1.4125H207.24L209.753 18.2H210.94V18.95H206.665V18.2H207.74L206.103 5.6875H206.115L204.453 18.2H205.403V18.95H202.653ZM204.603 15.0125V14.3H207.628V15.0125H204.603Z" fill="white"/>
<path d="M213.239 18.95V18.2H214.414V0.95H213.239V0.199999H216.276V18.2H217.464V18.95H213.239Z" fill="white"/>
<path d="M220.238 18.95V18.2H221.413V0.95H220.238V0.199999H223.275V18.2H224.463V18.95H220.238Z" fill="white"/>
<path d="M240.82 19.15C240.261 19.15 239.849 19.0042 239.582 18.7125C239.324 18.4125 239.153 18.0125 239.07 17.5125C238.995 17.0042 238.957 16.4375 238.957 15.8125C238.957 15.3708 238.966 14.925 238.982 14.475C239.007 14.0167 239.02 13.6 239.02 13.225C239.02 12.4417 238.961 11.8417 238.845 11.425C238.736 11.0083 238.524 10.7208 238.207 10.5625C237.899 10.3958 237.441 10.3125 236.832 10.3125H236.12V18.2H237.32V18.95H233.032V18.2H234.257V2.2H233.032V1.45H237.62C238.286 1.45 238.878 1.59167 239.395 1.875C239.92 2.15 240.332 2.5875 240.632 3.1875C240.932 3.77917 241.082 4.55417 241.082 5.5125C241.082 6.24583 240.995 6.88333 240.82 7.425C240.645 7.95833 240.411 8.40417 240.12 8.7625C239.828 9.1125 239.503 9.38333 239.145 9.575C238.786 9.76667 238.42 9.88333 238.045 9.925C238.836 9.94167 239.436 10.1 239.845 10.4C240.253 10.7 240.532 11.1375 240.682 11.7125C240.832 12.2875 240.907 13 240.907 13.85C240.907 14.2583 240.895 14.6792 240.87 15.1125C240.853 15.5375 240.845 15.9458 240.845 16.3375C240.845 16.6125 240.853 16.9083 240.87 17.225C240.895 17.5333 240.941 17.8 241.007 18.025C241.082 18.2417 241.182 18.35 241.307 18.35C241.391 18.35 241.457 18.3083 241.507 18.225C241.566 18.1417 241.599 18.0458 241.607 17.9375H242.295C242.27 18.2125 242.186 18.4417 242.045 18.625C241.911 18.8 241.736 18.9292 241.52 19.0125C241.303 19.1042 241.07 19.15 240.82 19.15ZM236.12 9.575H237.095C237.586 9.575 237.982 9.39583 238.282 9.0375C238.591 8.67083 238.816 8.1875 238.957 7.5875C239.099 6.97917 239.17 6.30417 239.17 5.5625C239.17 4.87083 239.111 4.275 238.995 3.775C238.886 3.26667 238.691 2.87917 238.407 2.6125C238.124 2.3375 237.724 2.2 237.207 2.2H236.12V9.575Z" fill="white"/>
<path d="M244.687 18.95V18.2H245.975V6.6125H244.687V5.8625H247.85V18.2H249.162V18.95H244.687ZM246.887 3.5C246.504 3.5 246.175 3.36667 245.9 3.1C245.633 2.825 245.5 2.5 245.5 2.125C245.5 1.74167 245.633 1.41667 245.9 1.15C246.175 0.883333 246.508 0.749999 246.9 0.749999C247.258 0.749999 247.571 0.883333 247.837 1.15C248.104 1.41667 248.237 1.74167 248.237 2.125C248.237 2.5 248.104 2.825 247.837 3.1C247.571 3.36667 247.254 3.5 246.887 3.5Z" fill="white"/>
<path d="M255.233 25.175C254.508 25.175 253.862 25.0292 253.295 24.7375C252.737 24.4458 252.299 24.05 251.983 23.55C251.674 23.05 251.52 22.4833 251.52 21.85C251.52 21.3417 251.595 20.9083 251.745 20.55C251.895 20.2 252.078 19.9083 252.295 19.675C252.512 19.4417 252.728 19.2583 252.945 19.125C253.162 19 253.333 18.9167 253.458 18.875C253.391 18.8583 253.27 18.8125 253.095 18.7375C252.928 18.6625 252.749 18.55 252.558 18.4C252.374 18.2417 252.212 18.0417 252.07 17.8C251.937 17.55 251.87 17.2458 251.87 16.8875C251.87 16.5542 251.937 16.2708 252.07 16.0375C252.203 15.8042 252.362 15.625 252.545 15.5C252.737 15.375 252.912 15.3 253.07 15.275C253.103 15.275 253.141 15.2708 253.183 15.2625C253.233 15.2542 253.266 15.2542 253.283 15.2625C253.183 15.1792 253.058 15.0333 252.908 14.825C252.766 14.6167 252.624 14.3417 252.483 14C252.341 13.6583 252.22 13.2417 252.12 12.75C252.028 12.25 251.983 11.675 251.983 11.025C251.983 10.0333 252.078 9.2 252.27 8.525C252.462 7.85 252.716 7.30833 253.033 6.9C253.349 6.49167 253.699 6.2 254.083 6.025C254.474 5.84167 254.87 5.75 255.27 5.75C255.97 5.75 256.553 5.95833 257.02 6.375C257.487 6.79167 257.837 7.37917 258.07 8.1375C258.312 8.89583 258.433 9.7875 258.433 10.8125C258.433 11.7875 258.337 12.6125 258.145 13.2875C257.962 13.9625 257.716 14.5042 257.408 14.9125C257.099 15.3208 256.753 15.6167 256.37 15.8C255.987 15.975 255.599 16.0625 255.208 16.0625C254.808 16.0625 254.495 16.0167 254.27 15.925C254.045 15.825 253.912 15.7667 253.87 15.75C253.862 15.7417 253.849 15.7375 253.833 15.7375C253.824 15.7292 253.808 15.725 253.783 15.725C253.633 15.725 253.466 15.8083 253.283 15.975C253.108 16.1333 253.02 16.35 253.02 16.625C253.02 17.0083 253.203 17.3125 253.57 17.5375C253.937 17.7625 254.595 17.95 255.545 18.1C256.703 18.2667 257.57 18.625 258.145 19.175C258.728 19.725 259.02 20.5375 259.02 21.6125C259.02 22.2458 258.908 22.7875 258.683 23.2375C258.458 23.6875 258.158 24.0542 257.783 24.3375C257.416 24.6292 257.008 24.8417 256.558 24.975C256.116 25.1083 255.674 25.175 255.233 25.175ZM255.233 24.4625C255.866 24.4625 256.37 24.2292 256.745 23.7625C257.12 23.2958 257.308 22.7292 257.308 22.0625C257.308 21.2875 257.191 20.7167 256.958 20.35C256.724 19.9917 256.328 19.7292 255.77 19.5625C255.587 19.5042 255.403 19.4458 255.22 19.3875C255.045 19.3292 254.883 19.275 254.733 19.225C254.591 19.175 254.478 19.1417 254.395 19.125C254.137 19.2583 253.912 19.4583 253.72 19.725C253.537 19.9917 253.395 20.3 253.295 20.65C253.195 21 253.145 21.3792 253.145 21.7875C253.145 22.2458 253.22 22.6792 253.37 23.0875C253.52 23.4958 253.749 23.825 254.058 24.075C254.374 24.3333 254.766 24.4625 255.233 24.4625ZM255.208 15.3C255.449 15.3 255.666 15.1917 255.858 14.975C256.058 14.75 256.216 14.3208 256.333 13.6875C256.458 13.0458 256.52 12.1042 256.52 10.8625C256.52 9.6625 256.462 8.75417 256.345 8.1375C256.228 7.5125 256.074 7.0875 255.883 6.8625C255.691 6.62917 255.478 6.5125 255.245 6.5125C255.012 6.5125 254.791 6.62917 254.583 6.8625C254.383 7.0875 254.216 7.51667 254.083 8.15C253.958 8.78333 253.895 9.70833 253.895 10.925C253.895 12.1583 253.958 13.0875 254.083 13.7125C254.208 14.3375 254.37 14.7583 254.57 14.975C254.77 15.1917 254.983 15.3 255.208 15.3ZM256.445 6.5875C256.52 6.10417 256.741 5.71667 257.108 5.425C257.483 5.125 257.874 4.975 258.283 4.975C258.624 4.975 258.866 5.05417 259.008 5.2125C259.149 5.37083 259.22 5.57917 259.22 5.8375C259.22 6.07917 259.153 6.27083 259.02 6.4125C258.895 6.54583 258.724 6.6125 258.508 6.6125C258.324 6.6125 258.187 6.57083 258.095 6.4875C258.012 6.39583 257.937 6.30417 257.87 6.2125C257.803 6.12083 257.695 6.075 257.545 6.075C257.437 6.075 257.341 6.12083 257.258 6.2125C257.174 6.30417 257.133 6.4375 257.133 6.6125L256.445 6.5875Z" fill="white"/>
<path d="M261.786 18.95V18.2H263.036V0.95H261.786V0.199999H264.911V7.2875C264.928 7.15417 265.028 6.9625 265.211 6.7125C265.394 6.4625 265.644 6.2375 265.961 6.0375C266.286 5.8375 266.665 5.7375 267.098 5.7375C267.523 5.7375 267.923 5.85 268.298 6.075C268.673 6.29167 268.978 6.6875 269.211 7.2625C269.453 7.8375 269.573 8.66667 269.573 9.75V18.2H270.823V18.95H266.723V18.2H267.698V9.9875C267.698 8.8625 267.603 8.06667 267.411 7.6C267.228 7.13333 266.928 6.9 266.511 6.9C266.236 6.9 265.978 7.02083 265.736 7.2625C265.494 7.50417 265.298 7.82083 265.148 8.2125C264.998 8.60417 264.919 9.02083 264.911 9.4625V18.2H265.911V18.95H261.786Z" fill="white"/>
<path d="M276.467 19.175C276.117 19.175 275.779 19.1125 275.454 18.9875C275.129 18.8708 274.863 18.6417 274.654 18.3C274.446 17.9583 274.342 17.4625 274.342 16.8125V6.6125H272.805V5.8625H274.342C274.534 5.6875 274.704 5.40833 274.854 5.025C275.013 4.64167 275.142 4.20833 275.242 3.725C275.342 3.24167 275.413 2.7625 275.454 2.2875H276.217V5.8625H278.042V6.6125H276.217V17.525C276.217 17.8667 276.288 18.0958 276.43 18.2125C276.58 18.3292 276.725 18.3875 276.867 18.3875C277.034 18.3875 277.18 18.35 277.305 18.275C277.43 18.2 277.525 18.125 277.592 18.05L278.017 18.6375C277.859 18.7875 277.646 18.9125 277.379 19.0125C277.113 19.1208 276.809 19.175 276.467 19.175Z" fill="white"/>
<path d="M283.668 19.225C283.243 19.225 282.91 19.1667 282.668 19.05C282.435 18.9417 282.251 18.8333 282.118 18.725C281.985 18.6167 281.864 18.5625 281.755 18.5625C281.655 18.5625 281.585 18.5958 281.543 18.6625C281.51 18.7292 281.489 18.825 281.48 18.95H280.855V15.2375H281.605C281.647 15.7375 281.718 16.1875 281.818 16.5875C281.918 16.9875 282.047 17.3292 282.205 17.6125C282.372 17.8875 282.572 18.1 282.805 18.25C283.047 18.4 283.326 18.475 283.643 18.475C283.96 18.475 284.214 18.3917 284.405 18.225C284.597 18.05 284.735 17.8292 284.818 17.5625C284.901 17.2958 284.943 17.0208 284.943 16.7375C284.943 16.3208 284.876 15.9167 284.743 15.525C284.61 15.1333 284.405 14.7375 284.13 14.3375C283.864 13.9292 283.518 13.5 283.093 13.05C282.493 12.4 281.985 11.7375 281.568 11.0625C281.151 10.3875 280.943 9.57083 280.943 8.6125C280.943 7.97083 281.064 7.4375 281.305 7.0125C281.555 6.5875 281.876 6.27083 282.268 6.0625C282.66 5.85417 283.076 5.75 283.518 5.75C283.851 5.75 284.118 5.79167 284.318 5.875C284.526 5.95 284.693 6.02917 284.818 6.1125C284.943 6.19583 285.047 6.2375 285.13 6.2375C285.197 6.2375 285.247 6.20833 285.28 6.15C285.314 6.09167 285.335 5.99583 285.343 5.8625H285.993V9.4625H285.255C285.222 8.97917 285.164 8.55417 285.08 8.1875C284.997 7.82083 284.885 7.5125 284.743 7.2625C284.61 7.0125 284.443 6.825 284.243 6.7C284.043 6.56667 283.814 6.5 283.555 6.5C283.147 6.5 282.83 6.65 282.605 6.95C282.38 7.25 282.268 7.64167 282.268 8.125C282.268 8.68333 282.422 9.20417 282.73 9.6875C283.039 10.1708 283.48 10.7208 284.055 11.3375C284.522 11.8375 284.922 12.3292 285.255 12.8125C285.597 13.2958 285.86 13.7958 286.043 14.3125C286.226 14.8292 286.318 15.3917 286.318 16C286.318 16.6583 286.21 17.2292 285.993 17.7125C285.785 18.1958 285.48 18.5708 285.08 18.8375C284.689 19.0958 284.218 19.225 283.668 19.225Z" fill="white"/>
<path d="M302.826 19.15C302.267 19.15 301.855 19.0042 301.588 18.7125C301.33 18.4125 301.159 18.0125 301.076 17.5125C301.001 17.0042 300.963 16.4375 300.963 15.8125C300.963 15.3708 300.971 14.925 300.988 14.475C301.013 14.0167 301.026 13.6 301.026 13.225C301.026 12.4417 300.967 11.8417 300.851 11.425C300.742 11.0083 300.53 10.7208 300.213 10.5625C299.905 10.3958 299.446 10.3125 298.838 10.3125H298.126V18.2H299.326V18.95H295.038V18.2H296.263V2.2H295.038V1.45H299.626C300.292 1.45 300.884 1.59167 301.401 1.875C301.926 2.15 302.338 2.5875 302.638 3.1875C302.938 3.77917 303.088 4.55417 303.088 5.5125C303.088 6.24583 303.001 6.88333 302.826 7.425C302.651 7.95833 302.417 8.40417 302.126 8.7625C301.834 9.1125 301.509 9.38333 301.151 9.575C300.792 9.76667 300.426 9.88333 300.051 9.925C300.842 9.94167 301.442 10.1 301.851 10.4C302.259 10.7 302.538 11.1375 302.688 11.7125C302.838 12.2875 302.913 13 302.913 13.85C302.913 14.2583 302.901 14.6792 302.876 15.1125C302.859 15.5375 302.851 15.9458 302.851 16.3375C302.851 16.6125 302.859 16.9083 302.876 17.225C302.901 17.5333 302.946 17.8 303.013 18.025C303.088 18.2417 303.188 18.35 303.313 18.35C303.396 18.35 303.463 18.3083 303.513 18.225C303.571 18.1417 303.605 18.0458 303.613 17.9375H304.301C304.276 18.2125 304.192 18.4417 304.051 18.625C303.917 18.8 303.742 18.9292 303.526 19.0125C303.309 19.1042 303.076 19.15 302.826 19.15ZM298.126 9.575H299.101C299.592 9.575 299.988 9.39583 300.288 9.0375C300.596 8.67083 300.821 8.1875 300.963 7.5875C301.105 6.97917 301.176 6.30417 301.176 5.5625C301.176 4.87083 301.117 4.275 301.001 3.775C300.892 3.26667 300.696 2.87917 300.413 2.6125C300.13 2.3375 299.73 2.2 299.213 2.2H298.126V9.575Z" fill="white"/>
<path d="M310.356 19.2125C309.747 19.2125 309.226 19.0333 308.793 18.675C308.36 18.3083 308.002 17.8083 307.718 17.175C307.443 16.5417 307.239 15.8125 307.106 14.9875C306.981 14.1625 306.918 13.2917 306.918 12.375C306.918 11.2583 307.01 10.2833 307.193 9.45C307.377 8.61667 307.627 7.92917 307.943 7.3875C308.268 6.8375 308.635 6.42917 309.043 6.1625C309.451 5.8875 309.877 5.75 310.318 5.75C310.843 5.75 311.297 5.90833 311.681 6.225C312.064 6.53333 312.381 6.95417 312.631 7.4875C312.889 8.0125 313.077 8.6125 313.193 9.2875C313.318 9.95417 313.381 10.6458 313.381 11.3625C313.381 11.5292 313.381 11.6958 313.381 11.8625C313.381 12.0292 313.376 12.1917 313.368 12.35H308.656V11.6125H311.543C311.543 10.5375 311.506 9.62083 311.431 8.8625C311.356 8.09583 311.231 7.5125 311.056 7.1125C310.881 6.70417 310.635 6.5 310.318 6.5C310.018 6.5 309.756 6.7 309.531 7.1C309.306 7.5 309.131 8.10833 309.006 8.925C308.889 9.74167 308.831 10.775 308.831 12.025C308.831 12.9333 308.851 13.775 308.893 14.55C308.943 15.325 309.026 16 309.143 16.575C309.268 17.15 309.443 17.6 309.668 17.925C309.901 18.2417 310.197 18.4 310.556 18.4C311.089 18.4 311.506 18.25 311.806 17.95C312.114 17.6417 312.322 17.3333 312.431 17.025L313.081 17.4C312.922 17.875 312.597 18.2958 312.106 18.6625C311.614 19.0292 311.031 19.2125 310.356 19.2125Z" fill="white"/>
<path d="M319.33 19.225C318.905 19.225 318.572 19.1667 318.33 19.05C318.097 18.9417 317.913 18.8333 317.78 18.725C317.647 18.6167 317.526 18.5625 317.418 18.5625C317.318 18.5625 317.247 18.5958 317.205 18.6625C317.172 18.7292 317.151 18.825 317.143 18.95H316.518V15.2375H317.268C317.309 15.7375 317.38 16.1875 317.48 16.5875C317.58 16.9875 317.709 17.3292 317.868 17.6125C318.034 17.8875 318.234 18.1 318.468 18.25C318.709 18.4 318.988 18.475 319.305 18.475C319.622 18.475 319.876 18.3917 320.068 18.225C320.259 18.05 320.397 17.8292 320.48 17.5625C320.563 17.2958 320.605 17.0208 320.605 16.7375C320.605 16.3208 320.538 15.9167 320.405 15.525C320.272 15.1333 320.068 14.7375 319.793 14.3375C319.526 13.9292 319.18 13.5 318.755 13.05C318.155 12.4 317.647 11.7375 317.23 11.0625C316.813 10.3875 316.605 9.57083 316.605 8.6125C316.605 7.97083 316.726 7.4375 316.968 7.0125C317.218 6.5875 317.538 6.27083 317.93 6.0625C318.322 5.85417 318.738 5.75 319.18 5.75C319.513 5.75 319.78 5.79167 319.98 5.875C320.188 5.95 320.355 6.02917 320.48 6.1125C320.605 6.19583 320.709 6.2375 320.793 6.2375C320.859 6.2375 320.909 6.20833 320.943 6.15C320.976 6.09167 320.997 5.99583 321.005 5.8625H321.655V9.4625H320.918C320.884 8.97917 320.826 8.55417 320.743 8.1875C320.659 7.82083 320.547 7.5125 320.405 7.2625C320.272 7.0125 320.105 6.825 319.905 6.7C319.705 6.56667 319.476 6.5 319.218 6.5C318.809 6.5 318.493 6.65 318.268 6.95C318.043 7.25 317.93 7.64167 317.93 8.125C317.93 8.68333 318.084 9.20417 318.393 9.6875C318.701 10.1708 319.143 10.7208 319.718 11.3375C320.184 11.8375 320.584 12.3292 320.918 12.8125C321.259 13.2958 321.522 13.7958 321.705 14.3125C321.888 14.8292 321.98 15.3917 321.98 16C321.98 16.6583 321.872 17.2292 321.655 17.7125C321.447 18.1958 321.143 18.5708 320.743 18.8375C320.351 19.0958 319.88 19.225 319.33 19.225Z" fill="white"/>
<path d="M328.48 19.2125C327.871 19.2125 327.351 19.0333 326.917 18.675C326.484 18.3083 326.126 17.8083 325.842 17.175C325.567 16.5417 325.363 15.8125 325.23 14.9875C325.105 14.1625 325.042 13.2917 325.042 12.375C325.042 11.2583 325.134 10.2833 325.317 9.45C325.501 8.61667 325.751 7.92917 326.067 7.3875C326.392 6.8375 326.759 6.42917 327.167 6.1625C327.576 5.8875 328.001 5.75 328.442 5.75C328.967 5.75 329.421 5.90833 329.805 6.225C330.188 6.53333 330.505 6.95417 330.755 7.4875C331.013 8.0125 331.201 8.6125 331.317 9.2875C331.442 9.95417 331.505 10.6458 331.505 11.3625C331.505 11.5292 331.505 11.6958 331.505 11.8625C331.505 12.0292 331.501 12.1917 331.492 12.35H326.78V11.6125H329.667C329.667 10.5375 329.63 9.62083 329.555 8.8625C329.48 8.09583 329.355 7.5125 329.18 7.1125C329.005 6.70417 328.759 6.5 328.442 6.5C328.142 6.5 327.88 6.7 327.655 7.1C327.43 7.5 327.255 8.10833 327.13 8.925C327.013 9.74167 326.955 10.775 326.955 12.025C326.955 12.9333 326.976 13.775 327.017 14.55C327.067 15.325 327.151 16 327.267 16.575C327.392 17.15 327.567 17.6 327.792 17.925C328.026 18.2417 328.321 18.4 328.68 18.4C329.213 18.4 329.63 18.25 329.93 17.95C330.238 17.6417 330.446 17.3333 330.555 17.025L331.205 17.4C331.046 17.875 330.721 18.2958 330.23 18.6625C329.738 19.0292 329.155 19.2125 328.48 19.2125Z" fill="white"/>
<path d="M334.292 18.95V18.2H335.554V6.6125H334.292V5.8625H337.304L337.392 7.15C337.408 7.04167 337.492 6.875 337.642 6.65C337.792 6.425 337.996 6.22083 338.254 6.0375C338.521 5.84583 338.833 5.75 339.192 5.75C339.617 5.75 339.958 5.89583 340.217 6.1875C340.483 6.47083 340.679 6.85833 340.804 7.35C340.937 7.84167 341.004 8.3875 341.004 8.9875C341.004 9.4125 340.929 9.7375 340.779 9.9625C340.637 10.1792 340.433 10.2875 340.167 10.2875C339.925 10.2875 339.729 10.1958 339.579 10.0125C339.437 9.82083 339.367 9.55417 339.367 9.2125C339.367 9.00417 339.4 8.83333 339.467 8.7C339.542 8.55833 339.612 8.41667 339.679 8.275C339.746 8.125 339.779 7.93333 339.779 7.7C339.779 7.31667 339.708 7.0375 339.567 6.8625C339.433 6.6875 339.25 6.6 339.017 6.6C338.708 6.6 338.433 6.74167 338.192 7.025C337.958 7.3 337.771 7.65833 337.629 8.1C337.496 8.54167 337.429 9.00833 337.429 9.5V18.2H338.717V18.95H334.292Z" fill="white"/>
<path d="M346.688 19L344.426 6.6125H343.401V5.8625H347.313V6.6125H346.426L347.763 15.275L349.113 6.6125H348.251V5.8625H350.926V6.6125H349.951L347.776 19H346.688Z" fill="white"/>
<path d="M356.85 19.2125C356.241 19.2125 355.721 19.0333 355.287 18.675C354.854 18.3083 354.496 17.8083 354.212 17.175C353.937 16.5417 353.733 15.8125 353.6 14.9875C353.475 14.1625 353.412 13.2917 353.412 12.375C353.412 11.2583 353.504 10.2833 353.687 9.45C353.871 8.61667 354.121 7.92917 354.437 7.3875C354.762 6.8375 355.129 6.42917 355.537 6.1625C355.946 5.8875 356.371 5.75 356.812 5.75C357.337 5.75 357.791 5.90833 358.175 6.225C358.558 6.53333 358.875 6.95417 359.125 7.4875C359.383 8.0125 359.571 8.6125 359.687 9.2875C359.812 9.95417 359.875 10.6458 359.875 11.3625C359.875 11.5292 359.875 11.6958 359.875 11.8625C359.875 12.0292 359.871 12.1917 359.862 12.35H355.15V11.6125H358.037C358.037 10.5375 358 9.62083 357.925 8.8625C357.85 8.09583 357.725 7.5125 357.55 7.1125C357.375 6.70417 357.129 6.5 356.812 6.5C356.512 6.5 356.25 6.7 356.025 7.1C355.8 7.5 355.625 8.10833 355.5 8.925C355.383 9.74167 355.325 10.775 355.325 12.025C355.325 12.9333 355.346 13.775 355.387 14.55C355.437 15.325 355.521 16 355.637 16.575C355.762 17.15 355.937 17.6 356.162 17.925C356.396 18.2417 356.691 18.4 357.05 18.4C357.583 18.4 358 18.25 358.3 17.95C358.608 17.6417 358.816 17.3333 358.925 17.025L359.575 17.4C359.416 17.875 359.091 18.2958 358.6 18.6625C358.108 19.0292 357.525 19.2125 356.85 19.2125Z" fill="white"/>
<path d="M366.444 19.2C365.886 19.2 365.377 18.9833 364.919 18.55C364.469 18.1167 364.106 17.4083 363.831 16.425C363.565 15.4417 363.431 14.125 363.431 12.475C363.431 10.8667 363.565 9.57083 363.831 8.5875C364.098 7.60417 364.448 6.8875 364.881 6.4375C365.323 5.9875 365.802 5.7625 366.319 5.7625C366.736 5.7625 367.065 5.85 367.306 6.025C367.556 6.2 367.74 6.40417 367.856 6.6375C367.981 6.8625 368.061 7.05417 368.094 7.2125V0.95H366.706V0.199999H369.994V18.2H371.369V18.95H368.319L368.194 17.3875C368.169 17.6042 368.09 17.8583 367.956 18.15C367.823 18.4333 367.631 18.6792 367.381 18.8875C367.131 19.0958 366.819 19.2 366.444 19.2ZM366.769 18.1125C367.027 18.1125 367.248 17.9542 367.431 17.6375C367.623 17.3125 367.773 16.9083 367.881 16.425C367.998 15.9333 368.069 15.4417 368.094 14.95V9.425C368.061 9.01667 367.981 8.625 367.856 8.25C367.731 7.86667 367.569 7.55417 367.369 7.3125C367.177 7.07083 366.961 6.95 366.719 6.95C366.469 6.95 366.252 7.09583 366.069 7.3875C365.894 7.67083 365.752 8.07083 365.644 8.5875C365.544 9.09583 365.469 9.6875 365.419 10.3625C365.377 11.0375 365.356 11.7583 365.356 12.525C365.356 13.4083 365.381 14.1958 365.431 14.8875C365.481 15.5792 365.561 16.1667 365.669 16.65C365.786 17.125 365.931 17.4875 366.106 17.7375C366.29 17.9875 366.511 18.1125 366.769 18.1125Z" fill="white"/>
</svg>
