<svg width="1138" height="61" viewBox="0 0 1138 61" fill="none" xmlns="http://www.w3.org/2000/svg">
<path d="M0 30.5L383 30.5" stroke="white" stroke-width="9"/>
<path d="M492.513 10.4736V18.3838L484.847 42.0898H492.513V50H473.567V44.2627L481.478 18.3838H474.495V10.4736H492.513ZM495.198 10.4736H512.337V18.3838H505.477V25.8789H511.897V33.3984H505.477V42.0898H513.021V50H495.198V10.4736ZM538.948 10.4736V50H529.939L524.593 32.0312V50H515.999V10.4736H524.593L530.354 28.2715V10.4736H538.948ZM575.521 25.0244H565.242V21.4355C565.242 19.1732 565.145 17.7572 564.949 17.1875C564.754 16.6178 564.29 16.333 563.558 16.333C562.923 16.333 562.492 16.5771 562.264 17.0654C562.036 17.5537 561.922 18.807 561.922 20.8252V39.7949C561.922 41.569 562.036 42.7409 562.264 43.3105C562.492 43.8639 562.947 44.1406 563.631 44.1406C564.38 44.1406 564.884 43.8232 565.145 43.1885C565.421 42.5537 565.56 41.3167 565.56 39.4775V34.79H563.484V28.7842H575.521V50H569.051L568.099 47.168C567.399 48.3887 566.512 49.3083 565.438 49.9268C564.38 50.529 563.126 50.8301 561.678 50.8301C559.952 50.8301 558.333 50.415 556.819 49.585C555.322 48.7386 554.183 47.6969 553.401 46.46C552.62 45.223 552.132 43.929 551.937 42.5781C551.741 41.2109 551.644 39.1683 551.644 36.4502V24.707C551.644 20.931 551.847 18.1885 552.254 16.4795C552.661 14.7705 553.825 13.208 555.745 11.792C557.682 10.3597 560.18 9.64355 563.24 9.64355C566.251 9.64355 568.75 10.262 570.735 11.499C572.721 12.736 574.015 14.209 574.617 15.918C575.219 17.6107 575.521 20.0765 575.521 23.3154V25.0244ZM589.803 10.4736V50H579.524V10.4736H589.803ZM593.929 10.4736H611.336V18.3838H604.207V25.8789H610.555V33.3984H604.207V50H593.929V10.4736ZM634.554 10.4736V18.3838H628.45V50H618.172V18.3838H612.093V10.4736H634.554ZM658.675 22.4365H649.129V19.5068C649.129 18.1396 649.007 17.2689 648.763 16.8945C648.519 16.5202 648.112 16.333 647.542 16.333C646.924 16.333 646.451 16.5853 646.126 17.0898C645.817 17.5944 645.662 18.3594 645.662 19.3848C645.662 20.7031 645.841 21.696 646.199 22.3633C646.541 23.0306 647.509 23.8363 649.104 24.7803C653.678 27.4984 656.559 29.7282 657.747 31.4697C658.935 33.2113 659.529 36.0189 659.529 39.8926C659.529 42.7083 659.196 44.7835 658.528 46.1182C657.877 47.4528 656.608 48.5758 654.72 49.4873C652.832 50.3825 650.634 50.8301 648.128 50.8301C645.377 50.8301 643.025 50.3092 641.072 49.2676C639.135 48.2259 637.866 46.8994 637.264 45.2881C636.661 43.6768 636.36 41.39 636.36 38.4277V35.8398H645.906V40.6494C645.906 42.1305 646.036 43.0827 646.297 43.5059C646.574 43.929 647.054 44.1406 647.737 44.1406C648.421 44.1406 648.925 43.8721 649.251 43.335C649.593 42.7979 649.764 42.0003 649.764 40.9424C649.764 38.6149 649.446 37.0931 648.812 36.377C648.16 35.6608 646.557 34.4645 644.002 32.7881C641.447 31.0954 639.754 29.8665 638.924 29.1016C638.094 28.3366 637.402 27.2786 636.849 25.9277C636.312 24.5768 636.043 22.8516 636.043 20.752C636.043 17.7246 636.425 15.5111 637.19 14.1113C637.972 12.7116 639.225 11.6211 640.95 10.8398C642.675 10.0423 644.759 9.64355 647.2 9.64355C649.869 9.64355 652.14 10.0749 654.012 10.9375C655.9 11.8001 657.145 12.8906 657.747 14.209C658.366 15.5111 658.675 17.7327 658.675 20.874V22.4365Z" fill="white"/>
<path d="M751 30.5H1138" stroke="white" stroke-width="9"/>
</svg>
