<svg width="584" height="151" viewBox="0 0 584 151" fill="none" xmlns="http://www.w3.org/2000/svg">
<path fill-rule="evenodd" clip-rule="evenodd" d="M75.2349 150.526C116.671 150.526 150.261 116.936 150.261 75.5C150.261 34.0644 116.671 0.474121 75.2349 0.474121C33.7992 0.474121 0.208984 34.0644 0.208984 75.5C0.208984 116.936 33.7992 150.526 75.2349 150.526ZM75.2349 145.778C114.048 145.778 145.513 114.314 145.513 75.5C145.513 36.6865 114.048 5.22197 75.2349 5.22197C36.4214 5.22197 4.95683 36.6865 4.95683 75.5C4.95683 114.314 36.4214 145.778 75.2349 145.778Z" fill="white"/>
<path fill-rule="evenodd" clip-rule="evenodd" d="M95.0546 35.5H56.585L55.3111 44.059L51.2349 42.6584V48.4941H100.235V42.6584L96.7531 44.059L95.0546 35.5ZM71.0181 38.7215C70.2802 38.7215 69.6819 39.3137 69.6819 40.0442C69.6819 40.7748 70.2802 41.367 71.0181 41.367H80.2349C80.9728 41.367 81.571 40.7748 81.571 40.0442C81.571 39.3137 80.9728 38.7215 80.2349 38.7215H71.0181ZM55.8466 113.084C55.8466 111.75 56.9393 110.668 58.2872 110.668H95.4884C96.8363 110.668 97.929 111.75 97.929 113.084C97.929 114.418 96.8363 115.5 95.4884 115.5H58.2872C56.9393 115.5 55.8466 114.418 55.8466 113.084Z" fill="white"/>
<path d="M60.9982 107.777H92.1336L95.2028 80.6795L57.5507 80.6795L60.9982 107.777Z" fill="#FBFBFB"/>
<path d="M98.3437 52.9483L54.0225 52.9483L55.5749 65.15H96.9617L98.3437 52.9483Z" fill="#FBFBFB"/>
<path d="M96.9617 65.15H55.5749L57.5507 80.6795L95.2028 80.6795L96.9617 65.15Z" fill="black"/>
<path d="M199.233 20.7105V32.5757L187.734 68.1348H199.233V80H170.815V71.3941L182.68 32.5757H172.207V20.7105H199.233Z" fill="white"/>
<path d="M203.261 20.7105H228.969V32.5757H218.679V43.8184H228.31V55.0977H218.679V68.1348H229.995V80H203.261V20.7105Z" fill="white"/>
<path d="M268.886 20.7105V80H255.373L247.353 53.0469V80H234.462V20.7105H247.353L255.996 47.4073V20.7105H268.886Z" fill="white"/>
<path d="M323.745 42.5367H308.327V37.1534C308.327 33.7598 308.181 31.6358 307.888 30.7813C307.595 29.9268 306.899 29.4995 305.8 29.4995C304.848 29.4995 304.201 29.8658 303.859 30.5982C303.518 31.3306 303.347 33.2105 303.347 36.2378V64.6924C303.347 67.3535 303.518 69.1114 303.859 69.9659C304.201 70.7959 304.885 71.211 305.91 71.211C307.033 71.211 307.79 70.7349 308.181 69.7827C308.596 68.8306 308.803 66.9751 308.803 64.2163V57.1851H305.69V48.1763H323.745V80H314.04L312.612 75.752C311.562 77.583 310.232 78.9624 308.62 79.8902C307.033 80.7935 305.153 81.2451 302.981 81.2451C300.393 81.2451 297.963 80.6226 295.693 79.3775C293.447 78.1079 291.738 76.5454 290.566 74.69C289.394 72.8345 288.662 70.8936 288.369 68.8672C288.076 66.8164 287.929 63.7525 287.929 59.6753V42.0606C287.929 36.3965 288.234 32.2827 288.845 29.7193C289.455 27.1558 291.201 24.812 294.082 22.688C296.987 20.5396 300.734 19.4654 305.324 19.4654C309.841 19.4654 313.588 20.3931 316.567 22.2486C319.545 24.104 321.486 26.3135 322.39 28.877C323.293 31.416 323.745 35.1148 323.745 39.9732V42.5367Z" fill="white"/>
<path d="M345.168 20.7105V80H329.751V20.7105H345.168Z" fill="white"/>
<path d="M351.357 20.7105H377.468V32.5757H366.774V43.8184H376.296V55.0977H366.774V80H351.357V20.7105Z" fill="white"/>
<path d="M412.294 20.7105V32.5757H403.139V80H387.722V32.5757H378.603V20.7105H412.294Z" fill="white"/>
<path d="M461.733 38.6548H447.414V34.2603C447.414 32.2095 447.231 30.9034 446.865 30.3418C446.499 29.7803 445.888 29.4995 445.034 29.4995C444.106 29.4995 443.398 29.878 442.91 30.6348C442.446 31.3916 442.214 32.5391 442.214 34.0772C442.214 36.0547 442.482 37.544 443.02 38.545C443.532 39.5459 444.985 40.7544 447.378 42.1704C454.238 46.2476 458.559 49.5923 460.341 52.2046C462.124 54.8169 463.015 59.0284 463.015 64.8389C463.015 69.0625 462.514 72.1753 461.513 74.1773C460.537 76.1792 458.632 77.8638 455.8 79.231C452.968 80.5738 449.672 81.2451 445.913 81.2451C441.787 81.2451 438.259 80.4639 435.329 78.9014C432.424 77.3389 430.52 75.3492 429.616 72.9322C428.713 70.5152 428.261 67.085 428.261 62.6416V58.7598H442.58V65.9742C442.58 68.1958 442.775 69.6241 443.166 70.2588C443.581 70.8936 444.301 71.211 445.327 71.211C446.352 71.211 447.109 70.8081 447.597 70.0025C448.11 69.1968 448.366 68.0005 448.366 66.4136C448.366 62.9224 447.89 60.6397 446.938 59.5655C445.961 58.4912 443.557 56.6968 439.724 54.1822C435.891 51.6431 433.352 49.7998 432.107 48.6524C430.861 47.5049 429.824 45.918 428.994 43.8916C428.188 41.8653 427.785 39.2774 427.785 36.128C427.785 31.5869 428.359 28.2666 429.506 26.167C430.678 24.0674 432.558 22.4317 435.146 21.2598C437.734 20.0635 440.859 19.4654 444.521 19.4654C448.525 19.4654 451.931 20.1123 454.738 21.4063C457.57 22.7002 459.438 24.336 460.341 26.3135C461.269 28.2666 461.733 31.5992 461.733 36.3111V38.6548Z" fill="white"/>
<path d="M503.335 20.7105V80H487.917V55.0977H483.303V80H467.885V20.7105H483.303V41.9141H487.917V20.7105H503.335Z" fill="white"/>
<path d="M544.79 55.4273C544.79 61.3843 544.643 65.6079 544.35 68.0982C544.082 70.564 543.203 72.8223 541.713 74.8731C540.249 76.9239 538.259 78.4986 535.744 79.5972C533.23 80.6958 530.3 81.2451 526.955 81.2451C523.781 81.2451 520.925 80.7325 518.386 79.7071C515.871 78.6573 513.845 77.0948 512.307 75.0196C510.769 72.9444 509.853 70.6861 509.56 68.2447C509.267 65.8033 509.121 61.5308 509.121 55.4273V45.2832C509.121 39.3262 509.255 35.1148 509.523 32.649C509.816 30.1587 510.695 27.8882 512.16 25.8374C513.649 23.7867 515.651 22.2119 518.166 21.1133C520.681 20.0147 523.61 19.4654 526.955 19.4654C530.129 19.4654 532.973 19.9903 535.488 21.0401C538.027 22.0655 540.065 23.6158 541.604 25.6909C543.142 27.7661 544.057 30.0244 544.35 32.4659C544.643 34.9073 544.79 39.1797 544.79 45.2832V55.4273ZM529.372 35.9449C529.372 33.1861 529.213 31.4283 528.896 30.6714C528.603 29.8902 527.981 29.4995 527.028 29.4995C526.223 29.4995 525.6 29.8169 525.161 30.4517C524.746 31.062 524.538 32.8931 524.538 35.9449V63.6304C524.538 67.0728 524.672 69.1968 524.941 70.0025C525.234 70.8081 525.893 71.211 526.919 71.211C527.968 71.211 528.64 70.7471 528.933 69.8194C529.226 68.8916 529.372 66.6822 529.372 63.1909V35.9449Z" fill="white"/>
<path d="M550.576 20.7105H566.103C570.302 20.7105 573.525 21.0401 575.771 21.6992C578.042 22.3584 579.738 23.3106 580.861 24.5557C582.009 25.8008 582.778 27.3145 583.169 29.0967C583.584 30.8545 583.791 33.5889 583.791 37.2998V42.4634C583.791 46.2476 583.4 49.0064 582.619 50.7398C581.838 52.4732 580.398 53.8037 578.298 54.7315C576.223 55.6592 573.501 56.1231 570.131 56.1231H565.993V80H550.576V20.7105ZM565.993 30.8545V45.9424C566.433 45.9668 566.811 45.979 567.128 45.979C568.544 45.979 569.521 45.6372 570.058 44.9536C570.62 44.2456 570.9 42.793 570.9 40.5957V35.7251C570.9 33.6988 570.583 32.3804 569.948 31.7701C569.314 31.1597 567.995 30.8545 565.993 30.8545Z" fill="white"/>
<path d="M221.901 121.41V126H208.498V125.414L218.459 112.157H213.552C213.015 112.157 212.575 112.174 212.233 112.206C211.908 112.239 211.648 112.296 211.452 112.377C211.257 112.442 211.102 112.54 210.988 112.67C210.874 112.784 210.769 112.939 210.671 113.134C210.378 113.671 210.207 114.346 210.158 115.16H209.499V111.01H222.17V111.62L212.136 124.901H217.58C218.166 124.901 218.646 124.885 219.021 124.853C219.395 124.804 219.696 124.73 219.924 124.633C220.168 124.519 220.355 124.381 220.485 124.218C220.632 124.055 220.77 123.852 220.9 123.607C220.982 123.428 221.063 123.16 221.145 122.802C221.226 122.444 221.291 121.98 221.34 121.41H221.901Z" fill="white"/>
<path d="M226.296 116.649C226.296 117.772 226.442 118.773 226.735 119.652C227.045 120.531 227.443 121.28 227.932 121.898C228.436 122.517 229.014 122.989 229.665 123.314C230.332 123.64 231.032 123.803 231.765 123.803C232.741 123.803 233.588 123.534 234.304 122.997C235.036 122.46 235.647 121.532 236.135 120.214L236.648 120.531C236.534 121.264 236.306 121.988 235.964 122.704C235.622 123.404 235.183 124.039 234.646 124.608C234.125 125.162 233.514 125.609 232.815 125.951C232.115 126.293 231.35 126.464 230.52 126.464C229.624 126.464 228.778 126.285 227.981 125.927C227.199 125.552 226.508 125.032 225.905 124.364C225.319 123.681 224.847 122.867 224.489 121.923C224.148 120.963 223.977 119.888 223.977 118.7C223.977 117.414 224.156 116.267 224.514 115.258C224.872 114.249 225.36 113.394 225.979 112.694C226.597 111.994 227.321 111.466 228.151 111.107C228.998 110.749 229.909 110.57 230.886 110.57C231.716 110.57 232.481 110.717 233.181 111.01C233.881 111.286 234.483 111.693 234.987 112.23C235.508 112.751 235.915 113.386 236.208 114.135C236.501 114.883 236.648 115.722 236.648 116.649H226.296ZM226.296 115.722H233.23C233.148 114.338 232.815 113.329 232.229 112.694C231.659 112.043 230.91 111.718 229.982 111.718C229.543 111.718 229.112 111.807 228.689 111.986C228.265 112.165 227.883 112.426 227.541 112.768C227.216 113.109 226.939 113.533 226.711 114.037C226.483 114.525 226.345 115.087 226.296 115.722Z" fill="white"/>
<path d="M243.044 113.744C244.786 111.628 246.454 110.57 248.049 110.57C248.602 110.57 249.115 110.668 249.587 110.863C250.059 111.042 250.466 111.352 250.808 111.791C251.166 112.214 251.442 112.792 251.638 113.524C251.833 114.241 251.931 115.136 251.931 116.21V122.606C251.931 123.258 251.963 123.77 252.028 124.145C252.11 124.519 252.232 124.804 252.395 124.999C252.574 125.178 252.81 125.292 253.103 125.341C253.396 125.39 253.77 125.414 254.226 125.414V126H246.828V125.414H247.121C247.609 125.414 247.992 125.373 248.269 125.292C248.562 125.194 248.773 125.04 248.903 124.828C249.05 124.617 249.139 124.332 249.172 123.974C249.221 123.599 249.245 123.144 249.245 122.606V116.479C249.245 115.095 249.066 114.102 248.708 113.5C248.366 112.898 247.772 112.597 246.926 112.597C245.607 112.597 244.314 113.305 243.044 114.721V122.606C243.044 123.241 243.06 123.746 243.093 124.12C243.142 124.478 243.247 124.755 243.41 124.95C243.573 125.146 243.817 125.276 244.143 125.341C244.468 125.39 244.916 125.414 245.485 125.414V126H238.064V125.414H238.381C238.772 125.414 239.089 125.373 239.333 125.292C239.593 125.194 239.797 125.04 239.943 124.828C240.09 124.617 240.188 124.332 240.236 123.974C240.301 123.599 240.334 123.144 240.334 122.606V117.064C240.334 115.99 240.318 115.16 240.285 114.574C240.253 113.988 240.188 113.565 240.09 113.305C240.009 113.028 239.886 112.865 239.724 112.816C239.577 112.768 239.39 112.743 239.162 112.743C238.999 112.743 238.829 112.768 238.649 112.816C238.487 112.849 238.291 112.906 238.064 112.987L237.819 112.401L242.336 110.57H243.044V113.744Z" fill="white"/>
<path d="M276.54 120.312C276.345 121.304 276.036 122.183 275.612 122.948C275.205 123.713 274.717 124.356 274.148 124.877C273.594 125.398 272.984 125.788 272.316 126.049C271.649 126.326 270.966 126.464 270.266 126.464C269.436 126.464 268.638 126.277 267.873 125.902C267.108 125.528 266.433 124.999 265.847 124.315C265.261 123.632 264.789 122.802 264.431 121.825C264.089 120.849 263.918 119.75 263.918 118.529C263.918 117.357 264.105 116.283 264.48 115.307C264.87 114.33 265.391 113.492 266.042 112.792C266.693 112.092 267.45 111.547 268.313 111.156C269.175 110.766 270.095 110.57 271.071 110.57C271.804 110.57 272.471 110.684 273.073 110.912C273.692 111.124 274.229 111.409 274.685 111.767C275.14 112.108 275.49 112.499 275.734 112.939C275.995 113.362 276.125 113.777 276.125 114.184C276.125 114.607 275.987 114.949 275.71 115.209C275.45 115.453 275.075 115.575 274.587 115.575C274.082 115.575 273.667 115.453 273.342 115.209C273.016 114.949 272.821 114.42 272.756 113.622C272.626 112.32 271.885 111.669 270.534 111.669C269.883 111.669 269.305 111.815 268.801 112.108C268.313 112.401 267.898 112.8 267.556 113.305C267.23 113.793 266.978 114.371 266.799 115.038C266.636 115.689 266.555 116.381 266.555 117.113C266.555 117.976 266.661 118.814 266.872 119.628C267.1 120.442 267.426 121.166 267.849 121.801C268.272 122.436 268.785 122.948 269.387 123.339C269.989 123.713 270.673 123.9 271.438 123.9C271.893 123.9 272.325 123.843 272.732 123.73C273.155 123.616 273.553 123.42 273.928 123.144C274.318 122.851 274.685 122.46 275.026 121.972C275.385 121.467 275.734 120.832 276.076 120.067L276.54 120.312Z" fill="white"/>
<path d="M286.037 110.57C287.079 110.57 288.039 110.774 288.918 111.181C289.797 111.588 290.554 112.141 291.189 112.841C291.84 113.524 292.344 114.338 292.702 115.282C293.077 116.21 293.264 117.195 293.264 118.236C293.264 119.457 293.06 120.572 292.653 121.581C292.263 122.59 291.726 123.461 291.042 124.193C290.358 124.91 289.569 125.471 288.674 125.878C287.779 126.269 286.843 126.464 285.866 126.464C284.841 126.464 283.889 126.252 283.01 125.829C282.147 125.406 281.398 124.836 280.764 124.12C280.145 123.404 279.657 122.574 279.299 121.63C278.957 120.686 278.786 119.693 278.786 118.651C278.786 117.577 278.973 116.56 279.348 115.6C279.722 114.623 280.235 113.76 280.886 113.012C281.537 112.263 282.302 111.669 283.181 111.23C284.06 110.79 285.012 110.57 286.037 110.57ZM285.524 111.645C285.052 111.645 284.597 111.75 284.157 111.962C283.718 112.157 283.327 112.483 282.985 112.939C282.644 113.378 282.367 113.956 282.155 114.672C281.944 115.388 281.838 116.259 281.838 117.284C281.838 118.342 281.944 119.359 282.155 120.336C282.383 121.296 282.701 122.143 283.107 122.875C283.514 123.607 284.011 124.193 284.597 124.633C285.183 125.072 285.834 125.292 286.55 125.292C287.071 125.292 287.551 125.194 287.99 124.999C288.446 124.787 288.837 124.454 289.162 123.998C289.488 123.542 289.74 122.948 289.919 122.216C290.114 121.467 290.212 120.556 290.212 119.481C290.212 118.407 290.106 117.398 289.895 116.454C289.683 115.494 289.374 114.664 288.967 113.964C288.576 113.248 288.088 112.686 287.502 112.279C286.932 111.856 286.273 111.645 285.524 111.645Z" fill="white"/>
<path d="M301.32 112.206V122.045C301.32 122.826 301.369 123.445 301.467 123.9C301.581 124.356 301.727 124.698 301.906 124.926C302.102 125.137 302.321 125.276 302.565 125.341C302.826 125.39 303.103 125.414 303.396 125.414H304.738V126H295.803V125.414H296.462C296.853 125.414 297.178 125.365 297.439 125.268C297.715 125.154 297.935 124.967 298.098 124.706C298.277 124.446 298.407 124.104 298.488 123.681C298.57 123.241 298.61 122.696 298.61 122.045V112.206H295.705V111.01H298.61V110.033C298.61 108.959 298.757 107.982 299.05 107.104C299.343 106.208 299.758 105.443 300.295 104.809C300.832 104.158 301.483 103.661 302.248 103.319C303.029 102.961 303.9 102.782 304.86 102.782C305.284 102.782 305.731 102.855 306.203 103.002C306.691 103.132 307.139 103.319 307.546 103.564C307.953 103.808 308.287 104.101 308.547 104.442C308.824 104.784 308.962 105.15 308.962 105.541C308.962 105.867 308.824 106.176 308.547 106.469C308.27 106.745 307.961 106.884 307.619 106.884C307.489 106.884 307.359 106.868 307.229 106.835C307.115 106.802 306.984 106.737 306.838 106.64C306.691 106.542 306.537 106.404 306.374 106.225C306.211 106.029 306.024 105.777 305.813 105.468C305.389 104.866 305.015 104.467 304.69 104.272C304.364 104.06 303.99 103.954 303.566 103.954C303.062 103.954 302.631 104.092 302.273 104.369C301.931 104.63 301.687 105.045 301.54 105.614C301.394 106.151 301.32 107.592 301.32 109.936V111.01H305.178V112.206H301.32Z" fill="white"/>
<path d="M312.502 112.206V122.045C312.502 122.826 312.551 123.445 312.648 123.9C312.762 124.356 312.909 124.698 313.088 124.926C313.283 125.137 313.503 125.276 313.747 125.341C314.008 125.39 314.284 125.414 314.577 125.414H315.92V126H306.984V125.414H307.644C308.034 125.414 308.36 125.365 308.62 125.268C308.897 125.154 309.117 124.967 309.279 124.706C309.458 124.446 309.589 124.104 309.67 123.681C309.751 123.241 309.792 122.696 309.792 122.045V112.206H306.887V111.01H309.792V110.033C309.792 108.959 309.939 107.982 310.232 107.104C310.524 106.208 310.94 105.443 311.477 104.809C312.014 104.158 312.665 103.661 313.43 103.319C314.211 102.961 315.082 102.782 316.042 102.782C316.465 102.782 316.913 102.855 317.385 103.002C317.873 103.132 318.321 103.319 318.728 103.564C319.135 103.808 319.468 104.101 319.729 104.442C320.005 104.784 320.144 105.15 320.144 105.541C320.144 105.867 320.005 106.176 319.729 106.469C319.452 106.745 319.143 106.884 318.801 106.884C318.671 106.884 318.54 106.868 318.41 106.835C318.296 106.802 318.166 106.737 318.02 106.64C317.873 106.542 317.718 106.404 317.556 106.225C317.393 106.029 317.206 105.777 316.994 105.468C316.571 104.866 316.197 104.467 315.871 104.272C315.546 104.06 315.171 103.954 314.748 103.954C314.244 103.954 313.812 104.092 313.454 104.369C313.112 104.63 312.868 105.045 312.722 105.614C312.575 106.151 312.502 107.592 312.502 109.936V111.01H316.359V112.206H312.502Z" fill="white"/>
<path d="M320.339 116.649C320.339 117.772 320.485 118.773 320.778 119.652C321.088 120.531 321.486 121.28 321.975 121.898C322.479 122.517 323.057 122.989 323.708 123.314C324.375 123.64 325.075 123.803 325.808 123.803C326.784 123.803 327.631 123.534 328.347 122.997C329.079 122.46 329.69 121.532 330.178 120.214L330.69 120.531C330.577 121.264 330.349 121.988 330.007 122.704C329.665 123.404 329.226 124.039 328.689 124.608C328.168 125.162 327.557 125.609 326.857 125.951C326.158 126.293 325.393 126.464 324.563 126.464C323.667 126.464 322.821 126.285 322.023 125.927C321.242 125.552 320.551 125.032 319.948 124.364C319.362 123.681 318.89 122.867 318.532 121.923C318.19 120.963 318.02 119.888 318.02 118.7C318.02 117.414 318.199 116.267 318.557 115.258C318.915 114.249 319.403 113.394 320.022 112.694C320.64 111.994 321.364 111.466 322.194 111.107C323.041 110.749 323.952 110.57 324.929 110.57C325.759 110.57 326.524 110.717 327.224 111.01C327.924 111.286 328.526 111.693 329.03 112.23C329.551 112.751 329.958 113.386 330.251 114.135C330.544 114.883 330.69 115.722 330.69 116.649H320.339ZM320.339 115.722H327.273C327.191 114.338 326.857 113.329 326.272 112.694C325.702 112.043 324.953 111.718 324.025 111.718C323.586 111.718 323.155 111.807 322.732 111.986C322.308 112.165 321.926 112.426 321.584 112.768C321.259 113.109 320.982 113.533 320.754 114.037C320.526 114.525 320.388 115.087 320.339 115.722Z" fill="white"/>
<path d="M335.232 116.649C335.232 117.772 335.378 118.773 335.671 119.652C335.98 120.531 336.379 121.28 336.867 121.898C337.372 122.517 337.95 122.989 338.601 123.314C339.268 123.64 339.968 123.803 340.7 123.803C341.677 123.803 342.523 123.534 343.239 122.997C343.972 122.46 344.582 121.532 345.07 120.214L345.583 120.531C345.469 121.264 345.241 121.988 344.899 122.704C344.558 123.404 344.118 124.039 343.581 124.608C343.06 125.162 342.45 125.609 341.75 125.951C341.05 126.293 340.285 126.464 339.455 126.464C338.56 126.464 337.714 126.285 336.916 125.927C336.135 125.552 335.443 125.032 334.841 124.364C334.255 123.681 333.783 122.867 333.425 121.923C333.083 120.963 332.912 119.888 332.912 118.7C332.912 117.414 333.091 116.267 333.449 115.258C333.807 114.249 334.296 113.394 334.914 112.694C335.533 111.994 336.257 111.466 337.087 111.107C337.933 110.749 338.845 110.57 339.821 110.57C340.651 110.57 341.416 110.717 342.116 111.01C342.816 111.286 343.418 111.693 343.923 112.23C344.444 112.751 344.851 113.386 345.144 114.135C345.437 114.883 345.583 115.722 345.583 116.649H335.232ZM335.232 115.722H342.165C342.084 114.338 341.75 113.329 341.164 112.694C340.594 112.043 339.846 111.718 338.918 111.718C338.479 111.718 338.047 111.807 337.624 111.986C337.201 112.165 336.818 112.426 336.477 112.768C336.151 113.109 335.874 113.533 335.647 114.037C335.419 114.525 335.28 115.087 335.232 115.722Z" fill="white"/>
<path d="M365.7 110.57V115.673H365.139C364.943 114.875 364.707 114.208 364.431 113.671C364.17 113.134 363.877 112.711 363.552 112.401C363.226 112.092 362.852 111.872 362.429 111.742C362.022 111.612 361.574 111.547 361.086 111.547C360.695 111.547 360.345 111.604 360.036 111.718C359.727 111.832 359.458 111.978 359.231 112.157C359.003 112.336 358.824 112.54 358.693 112.768C358.579 112.995 358.523 113.231 358.523 113.476C358.523 113.785 358.555 114.07 358.62 114.33C358.702 114.591 358.84 114.835 359.035 115.063C359.231 115.29 359.491 115.518 359.816 115.746C360.158 115.974 360.59 116.218 361.11 116.479L363.503 117.65C365.717 118.725 366.823 120.149 366.823 121.923C366.823 122.606 366.677 123.233 366.384 123.803C366.107 124.356 365.733 124.828 365.261 125.219C364.789 125.609 364.252 125.911 363.649 126.122C363.047 126.35 362.437 126.464 361.818 126.464C361.346 126.464 360.85 126.423 360.329 126.342C359.808 126.277 359.255 126.155 358.669 125.976C358.49 125.927 358.327 125.886 358.181 125.854C358.034 125.821 357.904 125.805 357.79 125.805C357.546 125.805 357.351 125.943 357.204 126.22H356.667V120.873H357.204C357.351 121.638 357.579 122.314 357.888 122.899C358.197 123.469 358.555 123.949 358.962 124.34C359.369 124.714 359.816 124.999 360.305 125.194C360.809 125.39 361.322 125.487 361.843 125.487C362.217 125.487 362.559 125.43 362.868 125.316C363.177 125.203 363.446 125.048 363.674 124.853C363.902 124.641 364.081 124.397 364.211 124.12C364.341 123.843 364.406 123.55 364.406 123.241C364.406 122.867 364.349 122.533 364.235 122.24C364.121 121.931 363.918 121.638 363.625 121.361C363.332 121.068 362.925 120.767 362.404 120.458C361.9 120.149 361.241 119.791 360.427 119.384C359.629 118.993 358.978 118.627 358.474 118.285C357.985 117.943 357.595 117.602 357.302 117.26C357.025 116.918 356.838 116.56 356.74 116.186C356.643 115.811 356.594 115.388 356.594 114.916C356.594 114.298 356.7 113.728 356.911 113.207C357.139 112.67 357.456 112.206 357.863 111.815C358.27 111.425 358.75 111.124 359.304 110.912C359.857 110.684 360.468 110.57 361.135 110.57C361.346 110.57 361.615 110.603 361.94 110.668C362.266 110.733 362.592 110.806 362.917 110.888C363.259 110.969 363.568 111.042 363.845 111.107C364.121 111.173 364.309 111.205 364.406 111.205C364.585 111.205 364.716 111.173 364.797 111.107C364.895 111.026 365.009 110.847 365.139 110.57H365.7Z" fill="white"/>
<path d="M373.44 102.733V113.695C374.058 113.012 374.595 112.467 375.051 112.06C375.523 111.653 375.946 111.343 376.32 111.132C376.711 110.904 377.069 110.758 377.395 110.692C377.736 110.611 378.086 110.57 378.444 110.57C379.291 110.57 380.015 110.806 380.617 111.278C381.236 111.734 381.7 112.467 382.009 113.476C382.204 114.192 382.302 115.469 382.302 117.309V122.606C382.302 123.111 382.31 123.542 382.326 123.9C382.359 124.242 382.44 124.527 382.57 124.755C382.717 124.983 382.937 125.154 383.23 125.268C383.539 125.365 383.97 125.414 384.523 125.414V126H377.175V125.414H377.517C378.005 125.414 378.387 125.373 378.664 125.292C378.941 125.194 379.144 125.04 379.274 124.828C379.421 124.617 379.51 124.332 379.543 123.974C379.576 123.599 379.592 123.144 379.592 122.606V117.309C379.592 116.316 379.543 115.51 379.445 114.892C379.364 114.273 379.226 113.793 379.03 113.451C378.851 113.093 378.607 112.857 378.298 112.743C378.005 112.613 377.639 112.548 377.199 112.548C376.923 112.548 376.646 112.58 376.369 112.646C376.093 112.694 375.8 112.8 375.49 112.963C375.197 113.126 374.88 113.345 374.538 113.622C374.213 113.899 373.846 114.257 373.44 114.696V122.606C373.44 123.144 373.448 123.559 373.464 123.852C373.496 124.145 373.537 124.381 373.586 124.56C373.651 124.722 373.732 124.844 373.83 124.926C373.944 124.991 374.082 125.072 374.245 125.17C374.554 125.333 375.092 125.414 375.857 125.414V126H368.435V125.414C368.842 125.414 369.191 125.39 369.484 125.341C369.777 125.292 370.013 125.178 370.192 124.999C370.388 124.804 370.526 124.519 370.607 124.145C370.689 123.77 370.73 123.258 370.73 122.606V109.057C370.73 108.015 370.705 107.217 370.656 106.664C370.624 106.094 370.559 105.679 370.461 105.419C370.38 105.159 370.266 105.004 370.119 104.955C369.973 104.906 369.786 104.882 369.558 104.882C369.281 104.882 368.907 104.971 368.435 105.15L368.215 104.564L372.683 102.733H373.44Z" fill="white"/>
<path d="M393.117 110.57C394.159 110.57 395.119 110.774 395.998 111.181C396.877 111.588 397.634 112.141 398.269 112.841C398.92 113.524 399.424 114.338 399.782 115.282C400.157 116.21 400.344 117.195 400.344 118.236C400.344 119.457 400.14 120.572 399.733 121.581C399.343 122.59 398.806 123.461 398.122 124.193C397.439 124.91 396.649 125.471 395.754 125.878C394.859 126.269 393.923 126.464 392.946 126.464C391.921 126.464 390.969 126.252 390.09 125.829C389.227 125.406 388.479 124.836 387.844 124.12C387.225 123.404 386.737 122.574 386.379 121.63C386.037 120.686 385.866 119.693 385.866 118.651C385.866 117.577 386.053 116.56 386.428 115.6C386.802 114.623 387.315 113.76 387.966 113.012C388.617 112.263 389.382 111.669 390.261 111.23C391.14 110.79 392.092 110.57 393.117 110.57ZM392.605 111.645C392.133 111.645 391.677 111.75 391.237 111.962C390.798 112.157 390.407 112.483 390.065 112.939C389.724 113.378 389.447 113.956 389.235 114.672C389.024 115.388 388.918 116.259 388.918 117.284C388.918 118.342 389.024 119.359 389.235 120.336C389.463 121.296 389.781 122.143 390.188 122.875C390.594 123.607 391.091 124.193 391.677 124.633C392.263 125.072 392.914 125.292 393.63 125.292C394.151 125.292 394.631 125.194 395.07 124.999C395.526 124.787 395.917 124.454 396.242 123.998C396.568 123.542 396.82 122.948 396.999 122.216C397.194 121.467 397.292 120.556 397.292 119.481C397.292 118.407 397.186 117.398 396.975 116.454C396.763 115.494 396.454 114.664 396.047 113.964C395.656 113.248 395.168 112.686 394.582 112.279C394.012 111.856 393.353 111.645 392.605 111.645Z" fill="white"/>
<path d="M401.467 112.499L406.081 110.644H406.691V114.135C407.473 112.816 408.246 111.897 409.011 111.376C409.792 110.839 410.614 110.57 411.477 110.57C412.323 110.57 413.088 110.766 413.772 111.156C414.471 111.547 415.065 112.084 415.554 112.768C416.042 113.435 416.416 114.216 416.677 115.111C416.954 116.007 417.092 116.959 417.092 117.968C417.092 119.107 416.929 120.189 416.604 121.215C416.294 122.24 415.839 123.144 415.236 123.925C414.65 124.706 413.934 125.325 413.088 125.78C412.242 126.236 411.298 126.464 410.256 126.464C409.882 126.464 409.54 126.448 409.231 126.415C408.938 126.383 408.653 126.317 408.376 126.22C408.099 126.122 407.823 125.984 407.546 125.805C407.286 125.626 407.001 125.398 406.691 125.121V129.687C406.691 130.224 406.708 130.647 406.74 130.956C406.773 131.265 406.822 131.509 406.887 131.689C406.952 131.868 407.033 131.998 407.131 132.079C407.245 132.161 407.375 132.242 407.522 132.323C407.831 132.486 408.4 132.567 409.231 132.567V133.153H401.369V132.567H401.784C402.142 132.567 402.46 132.551 402.736 132.519C403.013 132.486 403.241 132.372 403.42 132.177C403.599 131.981 403.737 131.68 403.835 131.273C403.933 130.883 403.982 130.321 403.982 129.589V115.429C403.982 114.859 403.957 114.403 403.908 114.062C403.876 113.703 403.811 113.435 403.713 113.256C403.615 113.061 403.477 112.939 403.298 112.89C403.135 112.825 402.924 112.792 402.663 112.792C402.533 112.792 402.378 112.816 402.199 112.865C402.037 112.898 401.857 112.955 401.662 113.036L401.467 112.499ZM406.691 115.111V120.702C406.691 121.907 406.74 122.704 406.838 123.095C406.903 123.42 407.033 123.73 407.229 124.022C407.424 124.299 407.668 124.551 407.961 124.779C408.254 124.991 408.588 125.162 408.962 125.292C409.353 125.422 409.768 125.487 410.207 125.487C410.842 125.487 411.403 125.341 411.892 125.048C412.396 124.739 412.819 124.324 413.161 123.803C413.503 123.266 413.755 122.631 413.918 121.898C414.097 121.166 414.187 120.369 414.187 119.506C414.187 118.562 414.089 117.691 413.894 116.894C413.715 116.096 413.446 115.404 413.088 114.818C412.746 114.232 412.323 113.777 411.818 113.451C411.33 113.109 410.785 112.939 410.183 112.939C409.939 112.939 409.711 112.955 409.499 112.987C409.287 113.004 409.06 113.077 408.815 113.207C408.571 113.337 408.278 113.557 407.937 113.866C407.611 114.159 407.196 114.574 406.691 115.111Z" fill="white"/>
<path d="M419.607 117.26H428.054V119.726H419.607V117.26Z" fill="white"/>
<path d="M434.475 120.531C433.547 120.076 432.839 119.457 432.351 118.676C431.862 117.878 431.618 116.991 431.618 116.015C431.618 115.266 431.765 114.566 432.058 113.915C432.367 113.248 432.782 112.67 433.303 112.182C433.84 111.677 434.475 111.286 435.207 111.01C435.94 110.717 436.737 110.57 437.6 110.57C439.032 110.57 440.269 110.92 441.311 111.62H444.484C444.729 111.62 444.916 111.628 445.046 111.645C445.176 111.645 445.266 111.653 445.315 111.669C445.38 111.669 445.412 111.685 445.412 111.718C445.428 111.734 445.445 111.758 445.461 111.791C445.51 111.872 445.534 111.978 445.534 112.108C445.551 112.239 445.559 112.393 445.559 112.572C445.559 112.8 445.502 112.947 445.388 113.012C445.29 113.061 444.989 113.085 444.484 113.085H442.531C443.15 113.899 443.459 114.908 443.459 116.112C443.459 116.796 443.321 117.447 443.044 118.065C442.767 118.668 442.369 119.205 441.848 119.677C441.343 120.133 440.725 120.499 439.992 120.775C439.26 121.036 438.446 121.166 437.551 121.166C437.176 121.166 436.794 121.142 436.403 121.093C436.029 121.044 435.655 120.963 435.28 120.849C434.792 121.272 434.467 121.638 434.304 121.947C434.141 122.24 434.06 122.501 434.06 122.729C434.06 122.908 434.092 123.054 434.157 123.168C434.222 123.282 434.377 123.38 434.621 123.461C434.865 123.542 435.223 123.607 435.695 123.656C436.184 123.705 436.843 123.738 437.673 123.754C438.796 123.786 439.716 123.827 440.432 123.876C441.164 123.925 441.701 123.966 442.043 123.998C443.068 124.128 443.874 124.503 444.46 125.121C445.062 125.723 445.363 126.472 445.363 127.367C445.363 128.181 445.127 128.938 444.655 129.638C444.2 130.354 443.581 130.972 442.8 131.493C442.019 132.03 441.123 132.453 440.114 132.763C439.105 133.072 438.064 133.227 436.989 133.227C436.241 133.227 435.476 133.145 434.694 132.982C433.913 132.82 433.205 132.6 432.57 132.323C431.936 132.047 431.415 131.713 431.008 131.322C430.617 130.948 430.422 130.541 430.422 130.102C430.422 129.857 430.446 129.63 430.495 129.418C430.56 129.206 430.69 128.954 430.886 128.661C431.097 128.368 431.398 128.002 431.789 127.563C432.196 127.139 432.733 126.578 433.4 125.878C432.831 125.536 432.432 125.235 432.204 124.975C431.976 124.698 431.862 124.389 431.862 124.047C431.862 123.852 431.887 123.648 431.936 123.437C432.001 123.225 432.123 122.989 432.302 122.729C432.481 122.452 432.741 122.134 433.083 121.776C433.441 121.418 433.905 121.003 434.475 120.531ZM434.304 126C433.278 127.123 432.766 128.083 432.766 128.881C432.766 129.255 432.912 129.589 433.205 129.882C433.514 130.175 433.921 130.419 434.426 130.614C434.947 130.826 435.549 130.989 436.232 131.103C436.916 131.217 437.648 131.273 438.43 131.273C439.423 131.273 440.277 131.176 440.993 130.98C441.709 130.785 442.303 130.525 442.775 130.199C443.247 129.89 443.597 129.54 443.825 129.149C444.053 128.775 444.167 128.393 444.167 128.002C444.167 127.725 444.11 127.489 443.996 127.294C443.882 127.099 443.662 126.936 443.337 126.806C443.028 126.675 442.596 126.578 442.043 126.513C441.506 126.448 440.814 126.399 439.968 126.366C437.543 126.317 435.655 126.195 434.304 126ZM437.331 111.352C436.534 111.352 435.858 111.677 435.305 112.328C434.751 112.963 434.475 113.948 434.475 115.282C434.475 116.015 434.548 116.698 434.694 117.333C434.841 117.952 435.052 118.489 435.329 118.944C435.622 119.4 435.964 119.758 436.355 120.019C436.761 120.263 437.225 120.385 437.746 120.385C438.576 120.385 439.26 120.076 439.797 119.457C440.334 118.839 440.603 117.854 440.603 116.503C440.603 115.771 440.529 115.095 440.383 114.477C440.236 113.842 440.025 113.297 439.748 112.841C439.471 112.369 439.13 112.003 438.723 111.742C438.316 111.482 437.852 111.352 437.331 111.352Z" fill="white"/>
<path d="M452.395 110.57V122.606C452.395 123.323 452.435 123.876 452.517 124.267C452.598 124.641 452.728 124.918 452.907 125.097C453.103 125.259 453.339 125.357 453.615 125.39C453.908 125.406 454.258 125.414 454.665 125.414V126H447.39V125.414C447.894 125.414 448.293 125.382 448.586 125.316C448.895 125.235 449.131 125.089 449.294 124.877C449.457 124.665 449.554 124.381 449.587 124.022C449.636 123.648 449.66 123.176 449.66 122.606V116.845C449.66 115.901 449.644 115.152 449.611 114.599C449.579 114.045 449.522 113.638 449.44 113.378C449.359 113.101 449.237 112.93 449.074 112.865C448.928 112.784 448.732 112.743 448.488 112.743C448.326 112.743 448.155 112.768 447.976 112.816C447.813 112.849 447.618 112.906 447.39 112.987L447.146 112.401L451.662 110.57H452.395ZM451.027 102.733C451.499 102.733 451.89 102.896 452.199 103.222C452.525 103.531 452.688 103.922 452.688 104.394C452.688 104.849 452.525 105.24 452.199 105.565C451.89 105.891 451.499 106.054 451.027 106.054C450.555 106.054 450.157 105.891 449.831 105.565C449.522 105.24 449.367 104.849 449.367 104.394C449.367 103.922 449.522 103.531 449.831 103.222C450.157 102.896 450.555 102.733 451.027 102.733Z" fill="white"/>
<path d="M462.404 112.206V122.045C462.404 122.826 462.453 123.445 462.551 123.9C462.665 124.356 462.811 124.698 462.99 124.926C463.186 125.137 463.405 125.276 463.649 125.341C463.91 125.39 464.187 125.414 464.48 125.414H465.822V126H456.887V125.414H457.546C457.937 125.414 458.262 125.365 458.523 125.268C458.799 125.154 459.019 124.967 459.182 124.706C459.361 124.446 459.491 124.104 459.572 123.681C459.654 123.241 459.694 122.696 459.694 122.045V112.206H456.789V111.01H459.694V110.033C459.694 108.959 459.841 107.982 460.134 107.104C460.427 106.208 460.842 105.443 461.379 104.809C461.916 104.158 462.567 103.661 463.332 103.319C464.113 102.961 464.984 102.782 465.944 102.782C466.368 102.782 466.815 102.855 467.287 103.002C467.775 103.132 468.223 103.319 468.63 103.564C469.037 103.808 469.371 104.101 469.631 104.442C469.908 104.784 470.046 105.15 470.046 105.541C470.046 105.867 469.908 106.176 469.631 106.469C469.354 106.745 469.045 106.884 468.703 106.884C468.573 106.884 468.443 106.868 468.313 106.835C468.199 106.802 468.068 106.737 467.922 106.64C467.775 106.542 467.621 106.404 467.458 106.225C467.295 106.029 467.108 105.777 466.897 105.468C466.473 104.866 466.099 104.467 465.773 104.272C465.448 104.06 465.074 103.954 464.65 103.954C464.146 103.954 463.715 104.092 463.357 104.369C463.015 104.63 462.771 105.045 462.624 105.614C462.478 106.151 462.404 107.592 462.404 109.936V111.01H466.262V112.206H462.404Z" fill="white"/>
<path d="M472.072 106.103V111.01H475.564V112.157H472.072V121.874C472.072 122.362 472.105 122.769 472.17 123.095C472.251 123.42 472.357 123.673 472.487 123.852C472.634 124.031 472.797 124.161 472.976 124.242C473.155 124.307 473.35 124.34 473.562 124.34C473.936 124.34 474.286 124.234 474.611 124.022C474.953 123.795 475.214 123.461 475.393 123.022H476.027C475.653 124.096 475.116 124.901 474.416 125.439C473.716 125.976 472.992 126.244 472.243 126.244C471.381 126.244 470.689 125.943 470.168 125.341C469.647 124.739 469.387 123.705 469.387 122.24V112.157H466.994V111.62C467.922 111.262 468.752 110.652 469.484 109.789C470.233 108.91 470.925 107.681 471.56 106.103H472.072Z" fill="white"/>
<path d="M495.144 110.57V115.673H494.582C494.387 114.875 494.151 114.208 493.874 113.671C493.614 113.134 493.321 112.711 492.995 112.401C492.67 112.092 492.295 111.872 491.872 111.742C491.465 111.612 491.018 111.547 490.529 111.547C490.139 111.547 489.789 111.604 489.48 111.718C489.17 111.832 488.902 111.978 488.674 112.157C488.446 112.336 488.267 112.54 488.137 112.768C488.023 112.995 487.966 113.231 487.966 113.476C487.966 113.785 487.998 114.07 488.064 114.33C488.145 114.591 488.283 114.835 488.479 115.063C488.674 115.29 488.934 115.518 489.26 115.746C489.602 115.974 490.033 116.218 490.554 116.479L492.946 117.65C495.16 118.725 496.267 120.149 496.267 121.923C496.267 122.606 496.12 123.233 495.827 123.803C495.551 124.356 495.176 124.828 494.704 125.219C494.232 125.609 493.695 125.911 493.093 126.122C492.491 126.35 491.88 126.464 491.262 126.464C490.79 126.464 490.293 126.423 489.773 126.342C489.252 126.277 488.698 126.155 488.112 125.976C487.933 125.927 487.771 125.886 487.624 125.854C487.478 125.821 487.347 125.805 487.233 125.805C486.989 125.805 486.794 125.943 486.648 126.22H486.11V120.873H486.648C486.794 121.638 487.022 122.314 487.331 122.899C487.64 123.469 487.998 123.949 488.405 124.34C488.812 124.714 489.26 124.999 489.748 125.194C490.253 125.39 490.765 125.487 491.286 125.487C491.661 125.487 492.002 125.43 492.312 125.316C492.621 125.203 492.889 125.048 493.117 124.853C493.345 124.641 493.524 124.397 493.654 124.12C493.785 123.843 493.85 123.55 493.85 123.241C493.85 122.867 493.793 122.533 493.679 122.24C493.565 121.931 493.361 121.638 493.068 121.361C492.775 121.068 492.369 120.767 491.848 120.458C491.343 120.149 490.684 119.791 489.87 119.384C489.073 118.993 488.422 118.627 487.917 118.285C487.429 117.943 487.038 117.602 486.745 117.26C486.468 116.918 486.281 116.56 486.184 116.186C486.086 115.811 486.037 115.388 486.037 114.916C486.037 114.298 486.143 113.728 486.355 113.207C486.582 112.67 486.9 112.206 487.307 111.815C487.714 111.425 488.194 111.124 488.747 110.912C489.301 110.684 489.911 110.57 490.578 110.57C490.79 110.57 491.058 110.603 491.384 110.668C491.709 110.733 492.035 110.806 492.36 110.888C492.702 110.969 493.011 111.042 493.288 111.107C493.565 111.173 493.752 111.205 493.85 111.205C494.029 111.205 494.159 111.173 494.24 111.107C494.338 111.026 494.452 110.847 494.582 110.57H495.144Z" fill="white"/>
<path d="M502.883 102.733V113.695C503.501 113.012 504.038 112.467 504.494 112.06C504.966 111.653 505.389 111.343 505.764 111.132C506.154 110.904 506.512 110.758 506.838 110.692C507.18 110.611 507.53 110.57 507.888 110.57C508.734 110.57 509.458 110.806 510.061 111.278C510.679 111.734 511.143 112.467 511.452 113.476C511.648 114.192 511.745 115.469 511.745 117.309V122.606C511.745 123.111 511.753 123.542 511.77 123.9C511.802 124.242 511.884 124.527 512.014 124.755C512.16 124.983 512.38 125.154 512.673 125.268C512.982 125.365 513.413 125.414 513.967 125.414V126H506.618V125.414H506.96C507.448 125.414 507.831 125.373 508.107 125.292C508.384 125.194 508.588 125.04 508.718 124.828C508.864 124.617 508.954 124.332 508.986 123.974C509.019 123.599 509.035 123.144 509.035 122.606V117.309C509.035 116.316 508.986 115.51 508.889 114.892C508.807 114.273 508.669 113.793 508.474 113.451C508.295 113.093 508.051 112.857 507.741 112.743C507.448 112.613 507.082 112.548 506.643 112.548C506.366 112.548 506.089 112.58 505.813 112.646C505.536 112.694 505.243 112.8 504.934 112.963C504.641 113.126 504.323 113.345 503.982 113.622C503.656 113.899 503.29 114.257 502.883 114.696V122.606C502.883 123.144 502.891 123.559 502.907 123.852C502.94 124.145 502.981 124.381 503.029 124.56C503.094 124.722 503.176 124.844 503.273 124.926C503.387 124.991 503.526 125.072 503.689 125.17C503.998 125.333 504.535 125.414 505.3 125.414V126H497.878V125.414C498.285 125.414 498.635 125.39 498.928 125.341C499.221 125.292 499.457 125.178 499.636 124.999C499.831 124.804 499.969 124.519 500.051 124.145C500.132 123.77 500.173 123.258 500.173 122.606V109.057C500.173 108.015 500.148 107.217 500.1 106.664C500.067 106.094 500.002 105.679 499.904 105.419C499.823 105.159 499.709 105.004 499.563 104.955C499.416 104.906 499.229 104.882 499.001 104.882C498.724 104.882 498.35 104.971 497.878 105.15L497.658 104.564L502.126 102.733H502.883Z" fill="white"/>
<path d="M522.561 110.57C523.602 110.57 524.563 110.774 525.441 111.181C526.32 111.588 527.077 112.141 527.712 112.841C528.363 113.524 528.868 114.338 529.226 115.282C529.6 116.21 529.787 117.195 529.787 118.236C529.787 119.457 529.584 120.572 529.177 121.581C528.786 122.59 528.249 123.461 527.565 124.193C526.882 124.91 526.093 125.471 525.197 125.878C524.302 126.269 523.366 126.464 522.39 126.464C521.364 126.464 520.412 126.252 519.533 125.829C518.671 125.406 517.922 124.836 517.287 124.12C516.669 123.404 516.18 122.574 515.822 121.63C515.481 120.686 515.31 119.693 515.31 118.651C515.31 117.577 515.497 116.56 515.871 115.6C516.246 114.623 516.758 113.76 517.409 113.012C518.06 112.263 518.825 111.669 519.704 111.23C520.583 110.79 521.535 110.57 522.561 110.57ZM522.048 111.645C521.576 111.645 521.12 111.75 520.681 111.962C520.241 112.157 519.851 112.483 519.509 112.939C519.167 113.378 518.89 113.956 518.679 114.672C518.467 115.388 518.361 116.259 518.361 117.284C518.361 118.342 518.467 119.359 518.679 120.336C518.907 121.296 519.224 122.143 519.631 122.875C520.038 123.607 520.534 124.193 521.12 124.633C521.706 125.072 522.357 125.292 523.073 125.292C523.594 125.292 524.074 125.194 524.514 124.999C524.969 124.787 525.36 124.454 525.686 123.998C526.011 123.542 526.263 122.948 526.442 122.216C526.638 121.467 526.735 120.556 526.735 119.481C526.735 118.407 526.63 117.398 526.418 116.454C526.206 115.494 525.897 114.664 525.49 113.964C525.1 113.248 524.611 112.686 524.025 112.279C523.456 111.856 522.797 111.645 522.048 111.645Z" fill="white"/>
<path d="M530.91 112.499L535.524 110.644H536.135V114.135C536.916 112.816 537.689 111.897 538.454 111.376C539.235 110.839 540.057 110.57 540.92 110.57C541.766 110.57 542.531 110.766 543.215 111.156C543.915 111.547 544.509 112.084 544.997 112.768C545.485 113.435 545.86 114.216 546.12 115.111C546.397 116.007 546.535 116.959 546.535 117.968C546.535 119.107 546.372 120.189 546.047 121.215C545.738 122.24 545.282 123.144 544.68 123.925C544.094 124.706 543.378 125.325 542.531 125.78C541.685 126.236 540.741 126.464 539.699 126.464C539.325 126.464 538.983 126.448 538.674 126.415C538.381 126.383 538.096 126.317 537.819 126.22C537.543 126.122 537.266 125.984 536.989 125.805C536.729 125.626 536.444 125.398 536.135 125.121V129.687C536.135 130.224 536.151 130.647 536.184 130.956C536.216 131.265 536.265 131.509 536.33 131.689C536.395 131.868 536.477 131.998 536.574 132.079C536.688 132.161 536.818 132.242 536.965 132.323C537.274 132.486 537.844 132.567 538.674 132.567V133.153H530.813V132.567H531.228C531.586 132.567 531.903 132.551 532.18 132.519C532.456 132.486 532.684 132.372 532.863 132.177C533.042 131.981 533.181 131.68 533.278 131.273C533.376 130.883 533.425 130.321 533.425 129.589V115.429C533.425 114.859 533.4 114.403 533.352 114.062C533.319 113.703 533.254 113.435 533.156 113.256C533.059 113.061 532.92 112.939 532.741 112.89C532.579 112.825 532.367 112.792 532.107 112.792C531.976 112.792 531.822 112.816 531.643 112.865C531.48 112.898 531.301 112.955 531.106 113.036L530.91 112.499ZM536.135 115.111V120.702C536.135 121.907 536.184 122.704 536.281 123.095C536.346 123.42 536.477 123.73 536.672 124.022C536.867 124.299 537.111 124.551 537.404 124.779C537.697 124.991 538.031 125.162 538.405 125.292C538.796 125.422 539.211 125.487 539.65 125.487C540.285 125.487 540.847 125.341 541.335 125.048C541.84 124.739 542.263 124.324 542.605 123.803C542.946 123.266 543.199 122.631 543.361 121.898C543.54 121.166 543.63 120.369 543.63 119.506C543.63 118.562 543.532 117.691 543.337 116.894C543.158 116.096 542.889 115.404 542.531 114.818C542.19 114.232 541.766 113.777 541.262 113.451C540.773 113.109 540.228 112.939 539.626 112.939C539.382 112.939 539.154 112.955 538.942 112.987C538.731 113.004 538.503 113.077 538.259 113.207C538.015 113.337 537.722 113.557 537.38 113.866C537.054 114.159 536.639 114.574 536.135 115.111Z" fill="white"/>
</svg>
