<svg width="388" height="79" viewBox="0 0 388 79" fill="none" xmlns="http://www.w3.org/2000/svg">
<path fill-rule="evenodd" clip-rule="evenodd" d="M39.5 78C60.763 78 78 60.763 78 39.5C78 18.237 60.763 1 39.5 1C18.237 1 1 18.237 1 39.5C1 60.763 18.237 78 39.5 78ZM39.5 75.5636C59.4174 75.5636 75.5636 59.4174 75.5636 39.5C75.5636 19.5826 59.4174 3.43639 39.5 3.43639C19.5826 3.43639 3.43639 19.5826 3.43639 39.5C3.43639 59.4174 19.5826 75.5636 39.5 75.5636Z" fill="white"/>
<path fill-rule="evenodd" clip-rule="evenodd" d="M49.6706 18.9738H29.9297L29.276 23.3658L27.1843 22.6471V25.6417H52.3289V22.6471L50.5422 23.3658L49.6706 18.9738ZM37.3361 20.6269C36.9574 20.6269 36.6505 20.9308 36.6505 21.3056C36.6505 21.6805 36.9574 21.9844 37.3361 21.9844H42.0658C42.4445 21.9844 42.7514 21.6805 42.7514 21.3056C42.7514 20.9308 42.4445 20.6269 42.0658 20.6269H37.3361ZM29.5508 58.7864C29.5508 58.1017 30.1115 57.5466 30.8032 57.5466H49.8932C50.5849 57.5466 51.1456 58.1017 51.1456 58.7864C51.1456 59.4712 50.5849 60.0262 49.8932 60.0262H30.8032C30.1115 60.0262 29.5508 59.4712 29.5508 58.7864Z" fill="white"/>
<path d="M32.1944 56.063H48.1717L49.7466 42.1579H30.4252L32.1944 56.063Z" fill="white"/>
<path d="M51.3584 27.9274L28.6147 27.9274L29.4114 34.1888H50.6492L51.3584 27.9274Z" fill="white"/>
<path d="M50.6492 34.1888H29.4114L30.4252 42.1579H49.7466L50.6492 34.1888Z" fill="black"/>
<path d="M50.6492 34.1888L51.3584 27.9274L28.6147 27.9274L29.4114 34.1888M50.6492 34.1888H29.4114M50.6492 34.1888L49.7466 42.1579M29.4114 34.1888L30.4252 42.1579M30.4252 42.1579L32.1944 56.063H48.1717L49.7466 42.1579M30.4252 42.1579H49.7466M39.5 78C60.763 78 78 60.763 78 39.5C78 18.237 60.763 1 39.5 1C18.237 1 1 18.237 1 39.5C1 60.763 18.237 78 39.5 78ZM75.5636 39.5C75.5636 59.4174 59.4174 75.5636 39.5 75.5636C19.5826 75.5636 3.43639 59.4174 3.43639 39.5C3.43639 19.5826 19.5826 3.43639 39.5 3.43639C59.4174 3.43639 75.5636 19.5826 75.5636 39.5ZM29.9297 18.9738H49.6706L50.5422 23.3658L52.3289 22.6471V25.6417H27.1843V22.6471L29.276 23.3658L29.9297 18.9738ZM36.6505 21.3056C36.6505 20.9308 36.9574 20.6269 37.3361 20.6269H42.0658C42.4445 20.6269 42.7514 20.9308 42.7514 21.3056C42.7514 21.6805 42.4445 21.9844 42.0658 21.9844H37.3361C36.9574 21.9844 36.6505 21.6805 36.6505 21.3056ZM30.8032 57.5466C30.1115 57.5466 29.5508 58.1017 29.5508 58.7864C29.5508 59.4712 30.1115 60.0262 30.8032 60.0262H49.8932C50.5849 60.0262 51.1456 59.4712 51.1456 58.7864C51.1456 58.1017 50.5849 57.5466 49.8932 57.5466H30.8032Z" stroke="white"/>
<path d="M104.575 12.1248V18.0785L98.6774 35.9215H104.575V41.8752H90V37.5569L96.0855 18.0785H90.7137V12.1248H104.575Z" fill="white"/>
<path d="M108.564 12.1248H121.75V18.0785H116.472V23.7199H121.412V29.3797H116.472V35.9215H122.276V41.8752H108.564V12.1248Z" fill="white"/>
<path d="M144.146 12.1248V41.8752H137.215L133.102 28.3506V41.8752H126.49V12.1248H133.102L137.534 25.5207V12.1248H144.146Z" fill="white"/>
<path d="M176.447 25.0981H168.54V19.9161C168.54 18.4093 168.452 17.4721 168.277 17.1046C168.114 16.7249 167.745 16.535 167.169 16.535C166.518 16.535 166.105 16.7616 165.929 17.2149C165.754 17.6681 165.666 18.6482 165.666 20.155V33.9736C165.666 35.4192 165.754 36.3625 165.929 36.8035C166.105 37.2445 166.499 37.465 167.113 37.465C167.701 37.465 168.083 37.2445 168.258 36.8035C168.446 36.3625 168.54 35.3273 168.54 33.698V29.9677H176.447V31.1254C176.447 34.2003 176.222 36.3809 175.771 37.6672C175.333 38.9535 174.35 40.0805 172.822 41.0483C171.307 42.0161 169.435 42.5 167.207 42.5C164.89 42.5 162.981 42.0896 161.478 41.2688C159.975 40.448 158.98 39.3149 158.492 37.8693C158.003 36.4115 157.759 34.2248 157.759 31.3091V22.6174C157.759 20.4735 157.834 18.8687 157.984 17.8029C158.135 16.7249 158.579 15.6897 159.318 14.6974C160.069 13.7051 161.102 12.9272 162.417 12.3637C163.744 11.7879 165.266 11.5 166.981 11.5C169.31 11.5 171.232 11.941 172.747 12.8231C174.262 13.7051 175.258 14.8076 175.734 16.1307C176.21 17.4415 176.447 19.4874 176.447 22.2682V25.0981Z" fill="white"/>
<path d="M199.275 29.545C199.275 32.5342 199.2 34.6535 199.05 35.9031C198.912 37.1404 198.462 38.2736 197.698 39.3026C196.946 40.3317 195.926 41.1218 194.636 41.6731C193.346 42.2244 191.844 42.5 190.128 42.5C188.501 42.5 187.036 42.2427 185.733 41.7282C184.444 41.2014 183.404 40.4174 182.616 39.3761C181.827 38.3348 181.357 37.2016 181.207 35.9766C181.057 34.7515 180.981 32.6077 180.981 29.545V24.4549C180.981 21.4658 181.05 19.3526 181.188 18.1153C181.338 16.8657 181.789 15.7264 182.54 14.6974C183.304 13.6683 184.331 12.8782 185.621 12.3269C186.91 11.7756 188.413 11.5 190.128 11.5C191.756 11.5 193.215 11.7634 194.505 12.2902C195.807 12.8047 196.853 13.5826 197.641 14.6239C198.43 15.6652 198.9 16.7984 199.05 18.0234C199.2 19.2485 199.275 21.3923 199.275 24.4549V29.545ZM191.368 19.7691C191.368 18.3848 191.287 17.5028 191.124 17.123C190.974 16.731 190.654 16.535 190.166 16.535C189.753 16.535 189.434 16.6942 189.208 17.0127C188.995 17.319 188.889 18.2378 188.889 19.7691V33.6612C188.889 35.3886 188.958 36.4544 189.095 36.8586C189.246 37.2629 189.584 37.465 190.11 37.465C190.648 37.465 190.992 37.2323 191.143 36.7667C191.293 36.3012 191.368 35.1926 191.368 33.4407V19.7691Z" fill="white"/>
<path d="M204.166 12.1248H217.558V18.0785H212.074V23.7199H216.957V29.3797H212.074V41.8752H204.166V12.1248Z" fill="white"/>
<path d="M221.416 12.1248H234.808V18.0785H229.323V23.7199H234.207V29.3797H229.323V41.8752H221.416V12.1248Z" fill="white"/>
<path d="M238.666 12.1248H251.851V18.0785H246.573V23.7199H251.513V29.3797H246.573V35.9215H252.377V41.8752H238.666V12.1248Z" fill="white"/>
<path d="M256.592 12.1248H269.777V18.0785H264.499V23.7199H269.439V29.3797H264.499V35.9215H270.303V41.8752H256.592V12.1248Z" fill="white"/>
<path d="M301.421 12.1248V41.8752H293.514V29.3797H291.147V41.8752H283.24V12.1248H291.147V22.7644H293.514V12.1248H301.421Z" fill="white"/>
<path d="M324.606 29.545C324.606 32.5342 324.531 34.6535 324.381 35.9031C324.243 37.1404 323.792 38.2736 323.028 39.3026C322.277 40.3317 321.256 41.1218 319.967 41.6731C318.677 42.2244 317.174 42.5 315.459 42.5C313.831 42.5 312.366 42.2427 311.064 41.7282C309.774 41.2014 308.735 40.4174 307.946 39.3761C307.157 38.3348 306.688 37.2016 306.537 35.9766C306.387 34.7515 306.312 32.6077 306.312 29.545V24.4549C306.312 21.4658 306.381 19.3526 306.519 18.1153C306.669 16.8657 307.12 15.7264 307.871 14.6974C308.635 13.6683 309.662 12.8782 310.951 12.3269C312.241 11.7756 313.744 11.5 315.459 11.5C317.087 11.5 318.546 11.7634 319.835 12.2902C321.138 12.8047 322.183 13.5826 322.972 14.6239C323.761 15.6652 324.23 16.7984 324.381 18.0234C324.531 19.2485 324.606 21.3923 324.606 24.4549V29.545ZM316.699 19.7691C316.699 18.3848 316.617 17.5028 316.454 17.123C316.304 16.731 315.985 16.535 315.497 16.535C315.083 16.535 314.764 16.6942 314.539 17.0127C314.326 17.319 314.219 18.2378 314.219 19.7691V33.6612C314.219 35.3886 314.288 36.4544 314.426 36.8586C314.576 37.2629 314.914 37.465 315.44 37.465C315.979 37.465 316.323 37.2323 316.473 36.7667C316.623 36.3012 316.699 35.1926 316.699 33.4407V19.7691Z" fill="white"/>
<path d="M347.472 12.1248V32.0074C347.472 34.2615 347.396 35.848 347.246 36.7667C347.096 37.6733 346.651 38.6105 345.913 39.5782C345.174 40.5338 344.197 41.2627 342.983 41.765C341.781 42.255 340.359 42.5 338.719 42.5C336.903 42.5 335.301 42.206 333.911 41.618C332.521 41.0299 331.482 40.2643 330.793 39.321C330.104 38.3777 329.697 37.3854 329.572 36.3441C329.447 35.2906 329.384 33.0855 329.384 29.7288V12.1248H337.292V34.433C337.292 35.7316 337.36 36.5646 337.498 36.9321C337.648 37.2874 337.943 37.465 338.381 37.465C338.882 37.465 339.201 37.269 339.339 36.877C339.489 36.4727 339.564 35.5294 339.564 34.0471V12.1248H347.472Z" fill="white"/>
<path d="M369.21 21.1289H361.866V18.9238C361.866 17.8948 361.772 17.2394 361.585 16.9576C361.397 16.6759 361.084 16.535 360.645 16.535C360.17 16.535 359.807 16.7249 359.556 17.1046C359.318 17.4844 359.199 18.0602 359.199 18.8319C359.199 19.8242 359.337 20.5715 359.612 21.0738C359.875 21.5761 360.62 22.1825 361.848 22.893C365.366 24.9388 367.582 26.6172 368.496 27.928C369.411 29.2388 369.868 31.352 369.868 34.2676C369.868 36.387 369.611 37.9489 369.098 38.9535C368.597 39.958 367.62 40.8033 366.167 41.4893C364.715 42.1631 363.025 42.5 361.096 42.5C358.98 42.5 357.171 42.108 355.668 41.3239C354.178 40.5399 353.201 39.5415 352.738 38.3287C352.275 37.1159 352.043 35.3947 352.043 33.1651V31.2172H359.387V34.8373C359.387 35.9521 359.487 36.6687 359.688 36.9873C359.9 37.3058 360.27 37.465 360.796 37.465C361.322 37.465 361.71 37.2629 361.96 36.8586C362.223 36.4544 362.355 35.8541 362.355 35.0578C362.355 33.306 362.11 32.1605 361.622 31.6215C361.121 31.0825 359.888 30.1821 357.922 28.9203C355.956 27.6462 354.654 26.7213 354.015 26.1455C353.377 25.5697 352.845 24.7735 352.419 23.7567C352.006 22.7399 351.799 21.4413 351.799 19.861C351.799 17.5824 352.093 15.9163 352.682 14.8628C353.283 13.8092 354.247 12.9884 355.574 12.4004C356.902 11.8001 358.504 11.5 360.383 11.5C362.436 11.5 364.183 11.8246 365.623 12.4739C367.075 13.1232 368.033 13.944 368.496 14.9363C368.972 15.9163 369.21 17.5885 369.21 19.9529V21.1289Z" fill="white"/>
<path d="M374.289 12.1248H387.474V18.0785H382.196V23.7199H387.136V29.3797H382.196V35.9215H388V41.8752H374.289V12.1248Z" fill="white"/>
<path d="M131.724 60.313H127.317L126.541 62.0345C126.358 62.4599 126.266 62.7769 126.266 62.9856C126.266 63.0738 126.278 63.1541 126.303 63.2263C126.337 63.2986 126.399 63.3668 126.491 63.431C126.591 63.4872 126.725 63.5393 126.892 63.5875C127.067 63.6276 127.296 63.6557 127.58 63.6717V63.9727H124V63.6717C124.284 63.6316 124.513 63.5714 124.689 63.4912C124.864 63.4109 125.014 63.3026 125.139 63.1661C125.264 63.0217 125.377 62.8371 125.477 62.6124C125.586 62.3876 125.715 62.1108 125.865 61.7817L129.871 52.7889H130.159L134.115 61.878C134.273 62.2552 134.419 62.5602 134.553 62.7929C134.695 63.0177 134.837 63.1942 134.978 63.3226C135.129 63.451 135.287 63.5393 135.454 63.5875C135.629 63.6356 135.838 63.6637 136.08 63.6717V63.9727H131.586V63.6717C132.037 63.6557 132.341 63.5875 132.5 63.4671C132.667 63.3387 132.75 63.1862 132.75 63.0096C132.742 62.7769 132.629 62.3997 132.412 61.878L131.724 60.313ZM131.486 59.7111L129.558 55.2929L127.58 59.7111H131.486Z" fill="white"/>
<path d="M148.658 56.3644V58.8804H148.37C148.27 58.4872 148.149 58.1581 148.007 57.8933C147.874 57.6284 147.724 57.4197 147.557 57.2673C147.39 57.1148 147.198 57.0064 146.981 56.9422C146.772 56.878 146.543 56.8459 146.292 56.8459C146.092 56.8459 145.913 56.874 145.754 56.9302C145.596 56.9864 145.458 57.0586 145.341 57.1469C145.224 57.2352 145.132 57.3355 145.066 57.4478C145.007 57.5602 144.978 57.6766 144.978 57.797C144.978 57.9494 144.995 58.0899 145.028 58.2183C145.07 58.3467 145.141 58.4671 145.241 58.5795C145.341 58.6918 145.475 58.8042 145.642 58.9165C145.817 59.0289 146.038 59.1493 146.305 59.2777L147.532 59.8555C148.667 60.3852 149.234 61.0875 149.234 61.9623C149.234 62.2994 149.159 62.6083 149.009 62.8892C148.867 63.1621 148.675 63.3949 148.433 63.5875C148.191 63.7801 147.916 63.9286 147.607 64.0329C147.298 64.1453 146.985 64.2014 146.668 64.2014C146.426 64.2014 146.171 64.1814 145.904 64.1413C145.637 64.1091 145.354 64.049 145.053 63.9607C144.961 63.9366 144.878 63.9165 144.803 63.9005C144.728 63.8844 144.661 63.8764 144.603 63.8764C144.477 63.8764 144.377 63.9446 144.302 64.0811H144.027V61.4446H144.302C144.377 61.8218 144.494 62.1549 144.653 62.4438C144.811 62.7247 144.995 62.9615 145.203 63.1541C145.412 63.3387 145.642 63.4791 145.892 63.5754C146.151 63.6717 146.413 63.7199 146.681 63.7199C146.872 63.7199 147.048 63.6918 147.206 63.6356C147.365 63.5795 147.503 63.5032 147.619 63.4069C147.736 63.3026 147.828 63.1822 147.895 63.0457C147.962 62.9093 147.995 62.7648 147.995 62.6124C147.995 62.4278 147.966 62.2632 147.907 62.1188C147.849 61.9663 147.745 61.8218 147.594 61.6854C147.444 61.5409 147.236 61.3925 146.968 61.24C146.71 61.0875 146.372 60.9109 145.954 60.7103C145.546 60.5177 145.212 60.3371 144.953 60.1685C144.703 60 144.502 59.8315 144.352 59.6629C144.21 59.4944 144.114 59.3178 144.064 59.1332C144.014 58.9486 143.989 58.74 143.989 58.5072C143.989 58.2022 144.043 57.9213 144.152 57.6645C144.269 57.3997 144.431 57.1709 144.64 56.9783C144.849 56.7857 145.095 56.6372 145.379 56.5329C145.662 56.4205 145.975 56.3644 146.318 56.3644C146.426 56.3644 146.564 56.3804 146.731 56.4125C146.898 56.4446 147.064 56.4807 147.231 56.5209C147.407 56.561 147.565 56.5971 147.707 56.6292C147.849 56.6613 147.945 56.6774 147.995 56.6774C148.087 56.6774 148.154 56.6613 148.195 56.6292C148.245 56.5891 148.304 56.5008 148.37 56.3644H148.658Z" fill="white"/>
<path d="M151.104 57.3154L153.47 56.4005H153.783V58.122C154.184 57.4719 154.58 57.0185 154.973 56.7616C155.373 56.4968 155.795 56.3644 156.237 56.3644C156.671 56.3644 157.063 56.4607 157.414 56.6533C157.773 56.8459 158.077 57.1108 158.327 57.4478C158.578 57.7769 158.77 58.1621 158.903 58.6035C159.045 59.0449 159.116 59.5144 159.116 60.012C159.116 60.5738 159.033 61.1075 158.866 61.6132C158.707 62.1188 158.474 62.5642 158.165 62.9494C157.864 63.3347 157.497 63.6396 157.063 63.8644C156.629 64.0891 156.145 64.2014 155.611 64.2014C155.419 64.2014 155.244 64.1934 155.085 64.1774C154.935 64.1613 154.789 64.1292 154.647 64.0811C154.505 64.0329 154.363 63.9647 154.222 63.8764C154.088 63.7881 153.942 63.6758 153.783 63.5393V65.7905C153.783 66.0554 153.792 66.264 153.808 66.4165C153.825 66.569 153.85 66.6894 153.884 66.7777C153.917 66.866 153.959 66.9302 154.009 66.9703C154.067 67.0104 154.134 67.0506 154.209 67.0907C154.368 67.1709 154.66 67.2111 155.085 67.2111V67.5H151.054V67.2111H151.267C151.451 67.2111 151.614 67.203 151.755 67.187C151.897 67.1709 152.014 67.1148 152.106 67.0185C152.198 66.9222 152.269 66.7737 152.319 66.573C152.369 66.3804 152.394 66.1035 152.394 65.7424V58.76C152.394 58.4791 152.381 58.2544 152.356 58.0859C152.34 57.9093 152.306 57.7769 152.256 57.6886C152.206 57.5923 152.135 57.5321 152.043 57.508C151.96 57.4759 151.851 57.4599 151.718 57.4599C151.651 57.4599 151.572 57.4719 151.48 57.496C151.397 57.512 151.305 57.5401 151.205 57.5803L151.104 57.3154ZM153.783 58.6035V61.3604C153.783 61.9543 153.808 62.3475 153.858 62.5401C153.892 62.7006 153.959 62.8531 154.059 62.9976C154.159 63.134 154.284 63.2584 154.434 63.3708C154.585 63.4751 154.756 63.5594 154.948 63.6236C155.148 63.6878 155.361 63.7199 155.586 63.7199C155.911 63.7199 156.199 63.6477 156.45 63.5032C156.708 63.3507 156.925 63.1461 157.101 62.8892C157.276 62.6244 157.405 62.3114 157.489 61.9502C157.581 61.5891 157.626 61.1958 157.626 60.7705C157.626 60.305 157.576 59.8756 157.476 59.4823C157.384 59.0891 157.247 58.748 157.063 58.4591C156.888 58.1701 156.671 57.9454 156.412 57.7849C156.162 57.6164 155.882 57.5321 155.573 57.5321C155.448 57.5321 155.331 57.5401 155.223 57.5562C155.114 57.5642 154.998 57.6003 154.872 57.6645C154.747 57.7287 154.597 57.8371 154.422 57.9896C154.255 58.134 154.042 58.3387 153.783 58.6035Z" fill="white"/>
<path d="M165.881 62.9133C165.48 63.2022 165.155 63.435 164.905 63.6116C164.663 63.7801 164.491 63.8844 164.391 63.9246C164.083 64.061 163.761 64.1292 163.427 64.1292C163.16 64.1292 162.914 64.0811 162.689 63.9848C162.472 63.8965 162.28 63.7721 162.113 63.6116C161.954 63.443 161.829 63.2424 161.737 63.0096C161.646 62.7769 161.6 62.5161 161.6 62.2271C161.6 61.89 161.667 61.5891 161.8 61.3242C161.942 61.0594 162.155 60.8186 162.438 60.6019C162.731 60.3772 163.106 60.1726 163.565 59.988C164.283 59.6669 165.055 59.362 165.881 59.073V58.7841C165.881 58.4149 165.848 58.1059 165.781 57.8571C165.722 57.6083 165.631 57.4117 165.505 57.2673C165.38 57.1148 165.23 57.0104 165.055 56.9543C164.88 56.89 164.679 56.8579 164.454 56.8579C164.095 56.8579 163.811 56.9502 163.603 57.1348C163.394 57.3194 163.29 57.5281 163.29 57.7608L163.315 58.2303C163.315 58.4791 163.248 58.6717 163.114 58.8082C162.989 58.9366 162.818 59.0008 162.601 59.0008C162.393 59.0008 162.222 58.9326 162.088 58.7961C161.954 58.6517 161.888 58.4591 161.888 58.2183C161.888 57.9936 161.95 57.7729 162.075 57.5562C162.201 57.3315 162.384 57.1308 162.626 56.9543C162.868 56.7777 163.16 56.6372 163.503 56.5329C163.853 56.4205 164.254 56.3644 164.704 56.3644C165.297 56.3644 165.798 56.4486 166.206 56.6172C166.624 56.7857 166.924 57.0746 167.108 57.4839C167.208 57.7167 167.258 58.1902 167.258 58.9045V61.4085C167.258 61.8339 167.262 62.1629 167.271 62.3957C167.287 62.6204 167.312 62.7849 167.346 62.8892C167.379 62.9936 167.421 63.0578 167.471 63.0819C167.521 63.0979 167.583 63.1059 167.659 63.1059C167.717 63.1059 167.771 63.0979 167.821 63.0819C167.871 63.0658 167.93 63.0337 167.997 62.9856C168.063 62.9374 168.138 62.8732 168.222 62.7929C168.314 62.7047 168.431 62.5923 168.572 62.4559V62.9133C167.947 63.7159 167.35 64.1172 166.782 64.1172C166.515 64.1172 166.298 64.0289 166.131 63.8523C165.964 63.6677 165.881 63.3547 165.881 62.9133ZM165.881 62.3836V59.5666C165.297 59.7913 164.629 60.0803 163.878 60.4334C163.603 60.5698 163.386 60.7624 163.227 61.0112C163.077 61.26 163.002 61.5369 163.002 61.8419C163.002 62.0345 163.035 62.2151 163.102 62.3836C163.169 62.5441 163.256 62.6846 163.365 62.805C163.473 62.9254 163.599 63.0217 163.74 63.0939C163.891 63.1581 164.045 63.1902 164.204 63.1902C164.629 63.1902 165.188 62.9213 165.881 62.3836Z" fill="white"/>
<path d="M176.965 61.1677C176.864 61.6573 176.706 62.0907 176.489 62.4679C176.28 62.8451 176.03 63.1621 175.738 63.4189C175.454 63.6758 175.141 63.8684 174.799 63.9968C174.457 64.1332 174.106 64.2014 173.747 64.2014C173.322 64.2014 172.913 64.1091 172.521 63.9246C172.128 63.74 171.782 63.4791 171.482 63.1421C171.181 62.805 170.939 62.3957 170.756 61.9141C170.58 61.4326 170.493 60.8909 170.493 60.2889C170.493 59.7111 170.589 59.1814 170.781 58.6998C170.981 58.2183 171.248 57.805 171.582 57.4599C171.916 57.1148 172.304 56.8459 172.746 56.6533C173.188 56.4607 173.66 56.3644 174.161 56.3644C174.536 56.3644 174.878 56.4205 175.187 56.5329C175.504 56.6372 175.78 56.7777 176.013 56.9543C176.247 57.1228 176.426 57.3154 176.552 57.5321C176.685 57.7408 176.752 57.9454 176.752 58.1461C176.752 58.3547 176.681 58.5233 176.539 58.6517C176.405 58.7721 176.214 58.8323 175.963 58.8323C175.704 58.8323 175.492 58.7721 175.325 58.6517C175.158 58.5233 175.058 58.2624 175.024 57.8692C174.958 57.2271 174.578 56.9061 173.885 56.9061C173.551 56.9061 173.255 56.9783 172.996 57.1228C172.746 57.2673 172.533 57.4639 172.358 57.7127C172.191 57.9535 172.062 58.2384 171.97 58.5674C171.886 58.8884 171.845 59.2295 171.845 59.5907C171.845 60.0161 171.899 60.4294 172.007 60.8307C172.124 61.2319 172.291 61.5891 172.508 61.9021C172.725 62.2151 172.988 62.4679 173.297 62.6605C173.606 62.8451 173.956 62.9374 174.348 62.9374C174.582 62.9374 174.803 62.9093 175.012 62.8531C175.229 62.797 175.433 62.7006 175.625 62.5642C175.825 62.4197 176.013 62.2271 176.189 61.9864C176.372 61.7376 176.552 61.4246 176.727 61.0474L176.965 61.1677Z" fill="white"/>
<path d="M180.65 59.362C180.65 59.9157 180.725 60.4093 180.875 60.8427C181.034 61.2761 181.238 61.6453 181.489 61.9502C181.747 62.2552 182.044 62.488 182.378 62.6485C182.72 62.809 183.079 62.8892 183.454 62.8892C183.955 62.8892 184.389 62.7568 184.756 62.492C185.132 62.2271 185.444 61.7697 185.695 61.1196L185.958 61.2761C185.899 61.6372 185.782 61.9944 185.607 62.3475C185.432 62.6926 185.207 63.0056 184.931 63.2865C184.664 63.5594 184.351 63.7801 183.992 63.9486C183.634 64.1172 183.241 64.2014 182.816 64.2014C182.357 64.2014 181.923 64.1132 181.514 63.9366C181.113 63.752 180.759 63.4952 180.45 63.1661C180.149 62.8291 179.907 62.4278 179.724 61.9623C179.548 61.4888 179.461 60.9591 179.461 60.3732C179.461 59.7392 179.553 59.1734 179.736 58.6758C179.92 58.1782 180.17 57.7568 180.487 57.4117C180.804 57.0666 181.176 56.8058 181.601 56.6292C182.035 56.4526 182.503 56.3644 183.003 56.3644C183.429 56.3644 183.821 56.4366 184.18 56.5811C184.539 56.7175 184.848 56.9181 185.107 57.183C185.374 57.4398 185.582 57.7528 185.732 58.122C185.883 58.4912 185.958 58.9045 185.958 59.362H180.65ZM180.65 58.9045H184.205C184.163 58.2223 183.992 57.7247 183.692 57.4117C183.4 57.0907 183.016 56.9302 182.54 56.9302C182.315 56.9302 182.094 56.9743 181.877 57.0626C181.66 57.1509 181.464 57.2793 181.288 57.4478C181.122 57.6164 180.98 57.825 180.863 58.0738C180.746 58.3146 180.675 58.5915 180.65 58.9045Z" fill="white"/>
<path d="M196.871 57.1709V62.0225C196.871 62.4077 196.896 62.7127 196.946 62.9374C197.005 63.1621 197.08 63.3307 197.172 63.443C197.272 63.5474 197.384 63.6156 197.51 63.6477C197.643 63.6717 197.785 63.6838 197.935 63.6838H198.624V63.9727H194.042V63.6838H194.38C194.58 63.6838 194.747 63.6597 194.881 63.6116C195.023 63.5554 195.135 63.4631 195.219 63.3347C195.311 63.2063 195.377 63.0377 195.419 62.8291C195.461 62.6124 195.482 62.3435 195.482 62.0225V57.1709H193.992V56.5811H195.482V56.0995C195.482 55.5698 195.557 55.0883 195.707 54.6549C195.857 54.2135 196.07 53.8363 196.345 53.5233C196.621 53.2022 196.955 52.9575 197.347 52.7889C197.747 52.6124 198.194 52.5241 198.686 52.5241C198.903 52.5241 199.133 52.5602 199.375 52.6324C199.625 52.6966 199.855 52.7889 200.063 52.9093C200.272 53.0297 200.443 53.1742 200.577 53.3427C200.718 53.5112 200.789 53.6918 200.789 53.8844C200.789 54.0449 200.718 54.1974 200.577 54.3419C200.435 54.4783 200.276 54.5465 200.101 54.5465C200.034 54.5465 199.967 54.5385 199.901 54.5225C199.842 54.5064 199.775 54.4743 199.7 54.4262C199.625 54.378 199.546 54.3098 199.462 54.2215C199.379 54.1252 199.283 54.0008 199.174 53.8483C198.958 53.5514 198.766 53.3547 198.599 53.2584C198.432 53.1541 198.24 53.1019 198.023 53.1019C197.764 53.1019 197.543 53.1701 197.359 53.3066C197.184 53.435 197.059 53.6396 196.984 53.9205C196.909 54.1854 196.871 54.8957 196.871 56.0514V56.5811H198.849V57.1709H196.871Z" fill="white"/>
<path d="M204.637 56.3644C205.172 56.3644 205.664 56.4647 206.115 56.6653C206.565 56.866 206.953 57.1388 207.279 57.4839C207.613 57.821 207.871 58.2223 208.055 58.6878C208.247 59.1453 208.343 59.6308 208.343 60.1445C208.343 60.7464 208.239 61.2961 208.03 61.7937C207.83 62.2913 207.554 62.7207 207.204 63.0819C206.853 63.435 206.448 63.7119 205.989 63.9125C205.53 64.1051 205.051 64.2014 204.55 64.2014C204.024 64.2014 203.536 64.0971 203.085 63.8884C202.643 63.6798 202.259 63.3989 201.934 63.0457C201.616 62.6926 201.366 62.2833 201.182 61.8178C201.007 61.3523 200.92 60.8628 200.92 60.3491C200.92 59.8194 201.016 59.3178 201.207 58.8443C201.399 58.3628 201.662 57.9374 201.996 57.5682C202.33 57.199 202.722 56.9061 203.173 56.6894C203.623 56.4727 204.112 56.3644 204.637 56.3644ZM204.375 56.8941C204.133 56.8941 203.899 56.9462 203.674 57.0506C203.448 57.1469 203.248 57.3074 203.073 57.5321C202.897 57.7488 202.756 58.0337 202.647 58.3868C202.539 58.74 202.484 59.1693 202.484 59.675C202.484 60.1966 202.539 60.6982 202.647 61.1798C202.764 61.6533 202.927 62.0706 203.135 62.4318C203.344 62.7929 203.598 63.0819 203.899 63.2986C204.199 63.5152 204.533 63.6236 204.9 63.6236C205.167 63.6236 205.414 63.5754 205.639 63.4791C205.873 63.3748 206.073 63.2103 206.24 62.9856C206.407 62.7608 206.536 62.4679 206.628 62.1067C206.728 61.7376 206.778 61.2881 206.778 60.7584C206.778 60.2287 206.724 59.7311 206.615 59.2656C206.507 58.7921 206.348 58.3828 206.14 58.0377C205.939 57.6846 205.689 57.4077 205.389 57.2071C205.096 56.9984 204.758 56.8941 204.375 56.8941Z" fill="white"/>
<path d="M212.992 56.3644V58.0257C213.643 56.9181 214.307 56.3644 214.983 56.3644C215.133 56.3644 215.27 56.3884 215.396 56.4366C215.529 56.4848 215.642 56.553 215.734 56.6413C215.834 56.7215 215.909 56.8178 215.959 56.9302C216.017 57.0345 216.047 57.1469 216.047 57.2673C216.047 57.4759 215.971 57.6525 215.821 57.797C215.679 57.9414 215.508 58.0136 215.308 58.0136C215.216 58.0136 215.108 57.9856 214.983 57.9294C214.866 57.8732 214.749 57.809 214.632 57.7368C214.524 57.6645 214.419 57.6003 214.319 57.5441C214.227 57.488 214.156 57.4599 214.106 57.4599C213.956 57.4599 213.781 57.5762 213.58 57.809C213.38 58.0417 213.184 58.3387 212.992 58.6998V62.2512C212.992 62.4679 213.005 62.6645 213.03 62.8411C213.063 63.0177 213.126 63.1701 213.217 63.2986C213.309 63.4189 213.443 63.5152 213.618 63.5875C213.802 63.6517 214.044 63.6838 214.344 63.6838V63.9727H210.401V63.6838C210.651 63.6838 210.852 63.6677 211.002 63.6356C211.16 63.6035 211.285 63.5393 211.377 63.443C211.469 63.3467 211.532 63.2103 211.565 63.0337C211.598 62.8491 211.615 62.6083 211.615 62.3114V59.4462C211.615 59.0128 211.607 58.6717 211.59 58.423C211.582 58.1742 211.569 58.0056 211.553 57.9173C211.469 57.5963 211.281 57.4358 210.989 57.4358C210.897 57.4358 210.806 57.4478 210.714 57.4719C210.622 57.488 210.518 57.5161 210.401 57.5562L210.326 57.2673L212.642 56.3644H212.992Z" fill="white"/>
<path d="M226.009 56.3644V62.2994C226.009 62.6525 226.029 62.9254 226.071 63.118C226.113 63.3026 226.18 63.439 226.271 63.5273C226.372 63.6075 226.493 63.6557 226.634 63.6717C226.785 63.6798 226.964 63.6838 227.173 63.6838V63.9727H223.442V63.6838C223.701 63.6838 223.906 63.6677 224.056 63.6356C224.214 63.5955 224.335 63.5233 224.419 63.4189C224.502 63.3146 224.552 63.1742 224.569 62.9976C224.594 62.813 224.607 62.5803 224.607 62.2994V59.4583C224.607 58.9928 224.598 58.6236 224.581 58.3507C224.565 58.0778 224.536 57.8772 224.494 57.7488C224.452 57.6124 224.39 57.5281 224.306 57.496C224.231 57.4559 224.131 57.4358 224.006 57.4358C223.922 57.4358 223.835 57.4478 223.743 57.4719C223.659 57.488 223.559 57.5161 223.442 57.5562L223.317 57.2673L225.633 56.3644H226.009ZM225.308 52.5C225.55 52.5 225.75 52.5803 225.908 52.7408C226.075 52.8933 226.159 53.0859 226.159 53.3186C226.159 53.5433 226.075 53.736 225.908 53.8965C225.75 54.057 225.55 54.1372 225.308 54.1372C225.066 54.1372 224.861 54.057 224.694 53.8965C224.536 53.736 224.456 53.5433 224.456 53.3186C224.456 53.0859 224.536 52.8933 224.694 52.7408C224.861 52.5803 225.066 52.5 225.308 52.5Z" fill="white"/>
<path d="M234.839 63.1421C234.463 63.5193 234.096 63.7921 233.737 63.9607C233.387 64.1212 233.003 64.2014 232.586 64.2014C232.168 64.2014 231.772 64.1132 231.396 63.9366C231.021 63.752 230.687 63.4992 230.395 63.1782C230.111 62.8571 229.882 62.4759 229.706 62.0345C229.54 61.5931 229.456 61.1116 229.456 60.5899C229.456 60.0762 229.544 59.5706 229.719 59.073C229.903 58.5674 230.157 58.114 230.483 57.7127C230.808 57.3114 231.196 56.9864 231.647 56.7376C232.106 56.4888 232.611 56.3644 233.161 56.3644C233.837 56.3644 234.397 56.569 234.839 56.9783V55.618C234.839 55.1043 234.826 54.7111 234.801 54.4382C234.785 54.1573 234.755 53.9526 234.714 53.8242C234.672 53.6958 234.609 53.6196 234.526 53.5955C234.451 53.5714 234.359 53.5594 234.251 53.5594C234.084 53.5594 233.892 53.6035 233.675 53.6918L233.562 53.4029L235.853 52.5H236.228V61.0474C236.228 61.561 236.237 61.9583 236.253 62.2392C236.27 62.5201 236.299 62.7287 236.341 62.8652C236.391 62.9936 236.454 63.0738 236.529 63.1059C236.604 63.13 236.7 63.1421 236.817 63.1421C236.959 63.1421 237.159 63.0979 237.418 63.0096L237.505 63.2865L235.227 64.2014H234.839V63.1421ZM234.839 62.5762V58.7721C234.814 58.4671 234.743 58.1982 234.626 57.9655C234.518 57.7247 234.38 57.5241 234.213 57.3636C234.046 57.195 233.863 57.0706 233.662 56.9904C233.462 56.9021 233.262 56.8579 233.061 56.8579C232.769 56.8579 232.498 56.9342 232.248 57.0867C231.997 57.2311 231.776 57.4398 231.584 57.7127C231.401 57.9856 231.255 58.3106 231.146 58.6878C231.038 59.065 230.983 59.4864 230.983 59.9518C230.983 60.4976 231.05 60.9791 231.184 61.3965C231.325 61.8138 231.505 62.1669 231.722 62.4559C231.947 62.7368 232.202 62.9494 232.486 63.0939C232.769 63.2384 233.061 63.3106 233.362 63.3106C233.871 63.3106 234.363 63.0658 234.839 62.5762Z" fill="white"/>
<path d="M240.577 59.362C240.577 59.9157 240.652 60.4093 240.803 60.8427C240.961 61.2761 241.166 61.6453 241.416 61.9502C241.675 62.2552 241.971 62.488 242.305 62.6485C242.647 62.809 243.006 62.8892 243.381 62.8892C243.882 62.8892 244.316 62.7568 244.683 62.492C245.059 62.2271 245.372 61.7697 245.622 61.1196L245.885 61.2761C245.827 61.6372 245.71 61.9944 245.535 62.3475C245.359 62.6926 245.134 63.0056 244.859 63.2865C244.591 63.5594 244.279 63.7801 243.92 63.9486C243.561 64.1172 243.169 64.2014 242.743 64.2014C242.284 64.2014 241.85 64.1132 241.441 63.9366C241.04 63.752 240.686 63.4952 240.377 63.1661C240.077 62.8291 239.835 62.4278 239.651 61.9623C239.476 61.4888 239.388 60.9591 239.388 60.3732C239.388 59.7392 239.48 59.1734 239.663 58.6758C239.847 58.1782 240.097 57.7568 240.415 57.4117C240.732 57.0666 241.103 56.8058 241.529 56.6292C241.963 56.4526 242.43 56.3644 242.931 56.3644C243.356 56.3644 243.749 56.4366 244.107 56.5811C244.466 56.7175 244.775 56.9181 245.034 57.183C245.301 57.4398 245.509 57.7528 245.66 58.122C245.81 58.4912 245.885 58.9045 245.885 59.362H240.577ZM240.577 58.9045H244.132C244.091 58.2223 243.92 57.7247 243.619 57.4117C243.327 57.0907 242.943 56.9302 242.468 56.9302C242.242 56.9302 242.021 56.9743 241.804 57.0626C241.587 57.1509 241.391 57.2793 241.216 57.4478C241.049 57.6164 240.907 57.825 240.79 58.0738C240.673 58.3146 240.602 58.5915 240.577 58.9045Z" fill="white"/>
<path d="M252.562 62.9133C252.162 63.2022 251.836 63.435 251.586 63.6116C251.344 63.7801 251.173 63.8844 251.073 63.9246C250.764 64.061 250.442 64.1292 250.109 64.1292C249.842 64.1292 249.595 64.0811 249.37 63.9848C249.153 63.8965 248.961 63.7721 248.794 63.6116C248.636 63.443 248.511 63.2424 248.419 63.0096C248.327 62.7769 248.281 62.5161 248.281 62.2271C248.281 61.89 248.348 61.5891 248.481 61.3242C248.623 61.0594 248.836 60.8186 249.12 60.6019C249.412 60.3772 249.787 60.1726 250.246 59.988C250.964 59.6669 251.736 59.362 252.562 59.073V58.7841C252.562 58.4149 252.529 58.1059 252.462 57.8571C252.404 57.6083 252.312 57.4117 252.187 57.2673C252.062 57.1148 251.911 57.0104 251.736 56.9543C251.561 56.89 251.36 56.8579 251.135 56.8579C250.776 56.8579 250.493 56.9502 250.284 57.1348C250.075 57.3194 249.971 57.5281 249.971 57.7608L249.996 58.2303C249.996 58.4791 249.929 58.6717 249.796 58.8082C249.671 58.9366 249.499 59.0008 249.282 59.0008C249.074 59.0008 248.903 58.9326 248.769 58.7961C248.636 58.6517 248.569 58.4591 248.569 58.2183C248.569 57.9936 248.632 57.7729 248.757 57.5562C248.882 57.3315 249.065 57.1308 249.308 56.9543C249.55 56.7777 249.842 56.6372 250.184 56.5329C250.534 56.4205 250.935 56.3644 251.386 56.3644C251.978 56.3644 252.479 56.4486 252.888 56.6172C253.305 56.7857 253.605 57.0746 253.789 57.4839C253.889 57.7167 253.939 58.1902 253.939 58.9045V61.4085C253.939 61.8339 253.943 62.1629 253.952 62.3957C253.968 62.6204 253.993 62.7849 254.027 62.8892C254.06 62.9936 254.102 63.0578 254.152 63.0819C254.202 63.0979 254.265 63.1059 254.34 63.1059C254.398 63.1059 254.452 63.0979 254.503 63.0819C254.553 63.0658 254.611 63.0337 254.678 62.9856C254.745 62.9374 254.82 62.8732 254.903 62.7929C254.995 62.7047 255.112 62.5923 255.254 62.4559V62.9133C254.628 63.7159 254.031 64.1172 253.464 64.1172C253.197 64.1172 252.98 64.0289 252.813 63.8523C252.646 63.6677 252.562 63.3547 252.562 62.9133ZM252.562 62.3836V59.5666C251.978 59.7913 251.31 60.0803 250.559 60.4334C250.284 60.5698 250.067 60.7624 249.908 61.0112C249.758 61.26 249.683 61.5369 249.683 61.8419C249.683 62.0345 249.716 62.2151 249.783 62.3836C249.85 62.5441 249.938 62.6846 250.046 62.805C250.155 62.9254 250.28 63.0217 250.422 63.0939C250.572 63.1581 250.726 63.1902 250.885 63.1902C251.31 63.1902 251.87 62.9213 252.562 62.3836Z" fill="white"/>
<path d="M262.094 56.3644V58.8804H261.806C261.706 58.4872 261.585 58.1581 261.443 57.8933C261.309 57.6284 261.159 57.4197 260.992 57.2673C260.825 57.1148 260.633 57.0064 260.416 56.9422C260.208 56.878 259.978 56.8459 259.728 56.8459C259.527 56.8459 259.348 56.874 259.189 56.9302C259.031 56.9864 258.893 57.0586 258.776 57.1469C258.659 57.2352 258.568 57.3355 258.501 57.4478C258.442 57.5602 258.413 57.6766 258.413 57.797C258.413 57.9494 258.43 58.0899 258.463 58.2183C258.505 58.3467 258.576 58.4671 258.676 58.5795C258.776 58.6918 258.91 58.8042 259.077 58.9165C259.252 59.0289 259.473 59.1493 259.74 59.2777L260.967 59.8555C262.102 60.3852 262.669 61.0875 262.669 61.9623C262.669 62.2994 262.594 62.6083 262.444 62.8892C262.302 63.1621 262.11 63.3949 261.868 63.5875C261.626 63.7801 261.351 63.9286 261.042 64.0329C260.733 64.1453 260.42 64.2014 260.103 64.2014C259.861 64.2014 259.607 64.1814 259.34 64.1413C259.073 64.1091 258.789 64.049 258.488 63.9607C258.397 63.9366 258.313 63.9165 258.238 63.9005C258.163 63.8844 258.096 63.8764 258.038 63.8764C257.913 63.8764 257.812 63.9446 257.737 64.0811H257.462V61.4446H257.737C257.812 61.8218 257.929 62.1549 258.088 62.4438C258.246 62.7247 258.43 62.9615 258.639 63.1541C258.847 63.3387 259.077 63.4791 259.327 63.5754C259.586 63.6717 259.849 63.7199 260.116 63.7199C260.308 63.7199 260.483 63.6918 260.642 63.6356C260.8 63.5795 260.938 63.5032 261.055 63.4069C261.171 63.3026 261.263 63.1822 261.33 63.0457C261.397 62.9093 261.43 62.7648 261.43 62.6124C261.43 62.4278 261.401 62.2632 261.343 62.1188C261.284 61.9663 261.18 61.8218 261.03 61.6854C260.879 61.5409 260.671 61.3925 260.404 61.24C260.145 61.0875 259.807 60.9109 259.39 60.7103C258.981 60.5177 258.647 60.3371 258.388 60.1685C258.138 60 257.938 59.8315 257.787 59.6629C257.645 59.4944 257.55 59.3178 257.499 59.1332C257.449 58.9486 257.424 58.74 257.424 58.5072C257.424 58.2022 257.479 57.9213 257.587 57.6645C257.704 57.3997 257.867 57.1709 258.075 56.9783C258.284 56.7857 258.53 56.6372 258.814 56.5329C259.098 56.4205 259.411 56.3644 259.753 56.3644C259.861 56.3644 259.999 56.3804 260.166 56.4125C260.333 56.4446 260.5 56.4807 260.667 56.5209C260.842 56.561 261 56.5971 261.142 56.6292C261.284 56.6613 261.38 56.6774 261.43 56.6774C261.522 56.6774 261.589 56.6613 261.63 56.6292C261.681 56.5891 261.739 56.5008 261.806 56.3644H262.094Z" fill="white"/>
<path d="M272.907 54.1613V56.5811H274.697V57.1469H272.907V61.9382C272.907 62.179 272.924 62.3796 272.957 62.5401C272.999 62.7006 273.053 62.825 273.12 62.9133C273.195 63.0016 273.278 63.0658 273.37 63.1059C273.462 63.138 273.562 63.1541 273.67 63.1541C273.862 63.1541 274.042 63.1019 274.209 62.9976C274.384 62.8852 274.518 62.7207 274.609 62.504H274.935C274.743 63.0337 274.467 63.431 274.109 63.6958C273.75 63.9607 273.378 64.0931 272.995 64.0931C272.552 64.0931 272.198 63.9446 271.93 63.6477C271.663 63.3507 271.53 62.8411 271.53 62.1188V57.1469H270.303V56.882C270.779 56.7055 271.204 56.4045 271.58 55.9791C271.964 55.5457 272.319 54.9398 272.644 54.1613H272.907Z" fill="white"/>
<path d="M280.498 56.3644C281.032 56.3644 281.524 56.4647 281.975 56.6653C282.426 56.866 282.814 57.1388 283.139 57.4839C283.473 57.821 283.732 58.2223 283.915 58.6878C284.107 59.1453 284.203 59.6308 284.203 60.1445C284.203 60.7464 284.099 61.2961 283.89 61.7937C283.69 62.2913 283.415 62.7207 283.064 63.0819C282.714 63.435 282.309 63.7119 281.85 63.9125C281.391 64.1051 280.911 64.2014 280.41 64.2014C279.885 64.2014 279.396 64.0971 278.946 63.8884C278.503 63.6798 278.119 63.3989 277.794 63.0457C277.477 62.6926 277.227 62.2833 277.043 61.8178C276.868 61.3523 276.78 60.8628 276.78 60.3491C276.78 59.8194 276.876 59.3178 277.068 58.8443C277.26 58.3628 277.523 57.9374 277.857 57.5682C278.19 57.199 278.583 56.9061 279.033 56.6894C279.484 56.4727 279.972 56.3644 280.498 56.3644ZM280.235 56.8941C279.993 56.8941 279.759 56.9462 279.534 57.0506C279.309 57.1469 279.108 57.3074 278.933 57.5321C278.758 57.7488 278.616 58.0337 278.508 58.3868C278.399 58.74 278.345 59.1693 278.345 59.675C278.345 60.1966 278.399 60.6982 278.508 61.1798C278.624 61.6533 278.787 62.0706 278.996 62.4318C279.204 62.7929 279.459 63.0819 279.759 63.2986C280.06 63.5152 280.394 63.6236 280.761 63.6236C281.028 63.6236 281.274 63.5754 281.499 63.4791C281.733 63.3748 281.933 63.2103 282.1 62.9856C282.267 62.7608 282.397 62.4679 282.488 62.1067C282.588 61.7376 282.639 61.2881 282.639 60.7584C282.639 60.2287 282.584 59.7311 282.476 59.2656C282.367 58.7921 282.209 58.3828 282 58.0377C281.8 57.6846 281.549 57.4077 281.249 57.2071C280.957 56.9984 280.619 56.8941 280.235 56.8941Z" fill="white"/>
<path d="M295.204 57.1709V62.0225C295.204 62.4077 295.229 62.7127 295.279 62.9374C295.338 63.1621 295.413 63.3307 295.505 63.443C295.605 63.5474 295.718 63.6156 295.843 63.6477C295.976 63.6717 296.118 63.6838 296.268 63.6838H296.957V63.9727H292.375V63.6838H292.713C292.914 63.6838 293.08 63.6597 293.214 63.6116C293.356 63.5554 293.468 63.4631 293.552 63.3347C293.644 63.2063 293.711 63.0377 293.752 62.8291C293.794 62.6124 293.815 62.3435 293.815 62.0225V57.1709H292.325V56.5811H293.815V56.0995C293.815 55.5698 293.89 55.0883 294.04 54.6549C294.19 54.2135 294.403 53.8363 294.679 53.5233C294.954 53.2022 295.288 52.9575 295.68 52.7889C296.081 52.6124 296.527 52.5241 297.02 52.5241C297.236 52.5241 297.466 52.5602 297.708 52.6324C297.958 52.6966 298.188 52.7889 298.396 52.9093C298.605 53.0297 298.776 53.1742 298.91 53.3427C299.052 53.5112 299.123 53.6918 299.123 53.8844C299.123 54.0449 299.052 54.1974 298.91 54.3419C298.768 54.4783 298.609 54.5465 298.434 54.5465C298.367 54.5465 298.301 54.5385 298.234 54.5225C298.175 54.5064 298.109 54.4743 298.033 54.4262C297.958 54.378 297.879 54.3098 297.796 54.2215C297.712 54.1252 297.616 54.0008 297.508 53.8483C297.291 53.5514 297.099 53.3547 296.932 53.2584C296.765 53.1541 296.573 53.1019 296.356 53.1019C296.097 53.1019 295.876 53.1701 295.693 53.3066C295.517 53.435 295.392 53.6396 295.317 53.9205C295.242 54.1854 295.204 54.8957 295.204 56.0514V56.5811H297.182V57.1709H295.204Z" fill="white"/>
<path d="M301.857 52.5V62.2994C301.857 62.6364 301.873 62.8973 301.907 63.0819C301.948 63.2665 302.015 63.4069 302.107 63.5032C302.207 63.5915 302.336 63.6437 302.495 63.6597C302.654 63.6758 302.854 63.6838 303.096 63.6838V63.9727H299.328V63.6838C299.578 63.6838 299.779 63.6677 299.929 63.6356C300.079 63.5955 300.192 63.5233 300.267 63.4189C300.35 63.3146 300.404 63.1742 300.429 62.9976C300.454 62.813 300.467 62.5803 300.467 62.2994V55.5939C300.467 55.0883 300.454 54.699 300.429 54.4262C300.413 54.1453 300.379 53.9406 300.329 53.8122C300.288 53.6838 300.229 53.6116 300.154 53.5955C300.079 53.5714 299.987 53.5594 299.879 53.5594C299.72 53.5594 299.536 53.6035 299.328 53.6918L299.19 53.4029L301.481 52.5H301.857Z" fill="white"/>
<path d="M309.035 56.3644C309.569 56.3644 310.061 56.4647 310.512 56.6653C310.962 56.866 311.35 57.1388 311.676 57.4839C312.01 57.821 312.268 58.2223 312.452 58.6878C312.644 59.1453 312.74 59.6308 312.74 60.1445C312.74 60.7464 312.636 61.2961 312.427 61.7937C312.227 62.2913 311.951 62.7207 311.601 63.0819C311.25 63.435 310.845 63.7119 310.386 63.9125C309.927 64.1051 309.448 64.2014 308.947 64.2014C308.421 64.2014 307.933 64.0971 307.482 63.8884C307.04 63.6798 306.656 63.3989 306.331 63.0457C306.013 62.6926 305.763 62.2833 305.579 61.8178C305.404 61.3523 305.317 60.8628 305.317 60.3491C305.317 59.8194 305.413 59.3178 305.605 58.8443C305.796 58.3628 306.059 57.9374 306.393 57.5682C306.727 57.199 307.119 56.9061 307.57 56.6894C308.021 56.4727 308.509 56.3644 309.035 56.3644ZM308.772 56.8941C308.53 56.8941 308.296 56.9462 308.071 57.0506C307.845 57.1469 307.645 57.3074 307.47 57.5321C307.294 57.7488 307.153 58.0337 307.044 58.3868C306.936 58.74 306.881 59.1693 306.881 59.675C306.881 60.1966 306.936 60.6982 307.044 61.1798C307.161 61.6533 307.324 62.0706 307.532 62.4318C307.741 62.7929 307.995 63.0819 308.296 63.2986C308.596 63.5152 308.93 63.6236 309.297 63.6236C309.564 63.6236 309.811 63.5754 310.036 63.4791C310.27 63.3748 310.47 63.2103 310.637 62.9856C310.804 62.7608 310.933 62.4679 311.025 62.1067C311.125 61.7376 311.175 61.2881 311.175 60.7584C311.175 60.2287 311.121 59.7311 311.012 59.2656C310.904 58.7921 310.745 58.3828 310.537 58.0377C310.336 57.6846 310.086 57.4077 309.786 57.2071C309.493 56.9984 309.156 56.8941 308.772 56.8941Z" fill="white"/>
<path d="M321.883 56.5811V61.0594C321.883 61.565 321.892 61.9583 321.908 62.2392C321.933 62.5201 321.967 62.7287 322.008 62.8652C322.05 62.9936 322.109 63.0738 322.184 63.1059C322.259 63.13 322.355 63.1421 322.472 63.1421C322.63 63.1421 322.826 63.0979 323.06 63.0096L323.173 63.2865L320.869 64.2014H320.494V62.6364C320.152 62.9896 319.859 63.2705 319.617 63.4791C319.384 63.6878 319.171 63.8483 318.979 63.9607C318.787 64.065 318.608 64.1292 318.441 64.1533C318.274 64.1854 318.09 64.2014 317.89 64.2014C317.189 64.2014 316.684 63.9526 316.375 63.4551C316.075 62.9494 315.925 62.2392 315.925 61.3242V58.0257C315.925 57.7769 315.904 57.5803 315.862 57.4358C315.82 57.2833 315.749 57.1669 315.649 57.0867C315.557 57.0064 315.436 56.9543 315.286 56.9302C315.136 56.8981 314.948 56.882 314.723 56.882H314.623V56.5811H317.314V61.5289C317.314 61.882 317.347 62.1709 317.414 62.3957C317.489 62.6124 317.585 62.7809 317.702 62.9013C317.819 63.0217 317.952 63.1019 318.103 63.1421C318.261 63.1822 318.424 63.2022 318.591 63.2022C318.833 63.2022 319.104 63.13 319.405 62.9856C319.705 62.8411 320.068 62.5642 320.494 62.1549V57.9775C320.494 57.7689 320.477 57.5963 320.444 57.4599C320.41 57.3154 320.348 57.203 320.256 57.1228C320.164 57.0345 320.039 56.9743 319.88 56.9422C319.722 56.9021 319.517 56.882 319.267 56.882V56.5811H321.883Z" fill="white"/>
<path d="M327.259 56.3644V58.0257C327.909 56.9181 328.573 56.3644 329.249 56.3644C329.399 56.3644 329.537 56.3884 329.662 56.4366C329.796 56.4848 329.908 56.553 330 56.6413C330.1 56.7215 330.175 56.8178 330.225 56.9302C330.284 57.0345 330.313 57.1469 330.313 57.2673C330.313 57.4759 330.238 57.6525 330.088 57.797C329.946 57.9414 329.775 58.0136 329.574 58.0136C329.483 58.0136 329.374 57.9856 329.249 57.9294C329.132 57.8732 329.015 57.809 328.898 57.7368C328.79 57.6645 328.686 57.6003 328.585 57.5441C328.494 57.488 328.423 57.4599 328.373 57.4599C328.222 57.4599 328.047 57.5762 327.847 57.809C327.647 58.0417 327.45 58.3387 327.259 58.6998V62.2512C327.259 62.4679 327.271 62.6645 327.296 62.8411C327.329 63.0177 327.392 63.1701 327.484 63.2986C327.576 63.4189 327.709 63.5152 327.884 63.5875C328.068 63.6517 328.31 63.6838 328.611 63.6838V63.9727H324.667V63.6838C324.918 63.6838 325.118 63.6677 325.268 63.6356C325.427 63.6035 325.552 63.5393 325.644 63.443C325.735 63.3467 325.798 63.2103 325.831 63.0337C325.865 62.8491 325.882 62.6083 325.882 62.3114V59.4462C325.882 59.0128 325.873 58.6717 325.857 58.423C325.848 58.1742 325.836 58.0056 325.819 57.9173C325.735 57.5963 325.548 57.4358 325.256 57.4358C325.164 57.4358 325.072 57.4478 324.98 57.4719C324.888 57.488 324.784 57.5161 324.667 57.5562L324.592 57.2673L326.908 56.3644H327.259Z" fill="white"/>
<path d="M334.687 56.3644V62.2994C334.687 62.6525 334.708 62.9254 334.749 63.118C334.791 63.3026 334.858 63.439 334.95 63.5273C335.05 63.6075 335.171 63.6557 335.313 63.6717C335.463 63.6798 335.642 63.6838 335.851 63.6838V63.9727H332.121V63.6838C332.379 63.6838 332.584 63.6677 332.734 63.6356C332.893 63.5955 333.014 63.5233 333.097 63.4189C333.18 63.3146 333.231 63.1742 333.247 62.9976C333.272 62.813 333.285 62.5803 333.285 62.2994V59.4583C333.285 58.9928 333.276 58.6236 333.26 58.3507C333.243 58.0778 333.214 57.8772 333.172 57.7488C333.13 57.6124 333.068 57.5281 332.984 57.496C332.909 57.4559 332.809 57.4358 332.684 57.4358C332.6 57.4358 332.513 57.4478 332.421 57.4719C332.338 57.488 332.237 57.5161 332.121 57.5562L331.995 57.2673L334.311 56.3644H334.687ZM333.986 52.5C334.228 52.5 334.428 52.5803 334.587 52.7408C334.754 52.8933 334.837 53.0859 334.837 53.3186C334.837 53.5433 334.754 53.736 334.587 53.8965C334.428 54.057 334.228 54.1372 333.986 54.1372C333.744 54.1372 333.539 54.057 333.372 53.8965C333.214 53.736 333.135 53.5433 333.135 53.3186C333.135 53.0859 333.214 52.8933 333.372 52.7408C333.539 52.5803 333.744 52.5 333.986 52.5Z" fill="white"/>
<path d="M343.067 56.3644V58.8804H342.779C342.678 58.4872 342.557 58.1581 342.416 57.8933C342.282 57.6284 342.132 57.4197 341.965 57.2673C341.798 57.1148 341.606 57.0064 341.389 56.9422C341.18 56.878 340.951 56.8459 340.701 56.8459C340.5 56.8459 340.321 56.874 340.162 56.9302C340.004 56.9864 339.866 57.0586 339.749 57.1469C339.632 57.2352 339.541 57.3355 339.474 57.4478C339.415 57.5602 339.386 57.6766 339.386 57.797C339.386 57.9494 339.403 58.0899 339.436 58.2183C339.478 58.3467 339.549 58.4671 339.649 58.5795C339.749 58.6918 339.883 58.8042 340.05 58.9165C340.225 59.0289 340.446 59.1493 340.713 59.2777L341.94 59.8555C343.075 60.3852 343.642 61.0875 343.642 61.9623C343.642 62.2994 343.567 62.6083 343.417 62.8892C343.275 63.1621 343.083 63.3949 342.841 63.5875C342.599 63.7801 342.324 63.9286 342.015 64.0329C341.706 64.1453 341.393 64.2014 341.076 64.2014C340.834 64.2014 340.58 64.1814 340.313 64.1413C340.046 64.1091 339.762 64.049 339.461 63.9607C339.37 63.9366 339.286 63.9165 339.211 63.9005C339.136 63.8844 339.069 63.8764 339.011 63.8764C338.885 63.8764 338.785 63.9446 338.71 64.0811H338.435V61.4446H338.71C338.785 61.8218 338.902 62.1549 339.061 62.4438C339.219 62.7247 339.403 62.9615 339.612 63.1541C339.82 63.3387 340.05 63.4791 340.3 63.5754C340.559 63.6717 340.822 63.7199 341.089 63.7199C341.281 63.7199 341.456 63.6918 341.614 63.6356C341.773 63.5795 341.911 63.5032 342.028 63.4069C342.144 63.3026 342.236 63.1822 342.303 63.0457C342.37 62.9093 342.403 62.7648 342.403 62.6124C342.403 62.4278 342.374 62.2632 342.315 62.1188C342.257 61.9663 342.153 61.8218 342.003 61.6854C341.852 61.5409 341.644 61.3925 341.377 61.24C341.118 61.0875 340.78 60.9109 340.363 60.7103C339.954 60.5177 339.62 60.3371 339.361 60.1685C339.111 60 338.911 59.8315 338.76 59.6629C338.618 59.4944 338.522 59.3178 338.472 59.1332C338.422 58.9486 338.397 58.74 338.397 58.5072C338.397 58.2022 338.452 57.9213 338.56 57.6645C338.677 57.3997 338.84 57.1709 339.048 56.9783C339.257 56.7857 339.503 56.6372 339.787 56.5329C340.071 56.4205 340.383 56.3644 340.726 56.3644C340.834 56.3644 340.972 56.3804 341.139 56.4125C341.306 56.4446 341.473 56.4807 341.639 56.5209C341.815 56.561 341.973 56.5971 342.115 56.6292C342.257 56.6613 342.353 56.6774 342.403 56.6774C342.495 56.6774 342.562 56.6613 342.603 56.6292C342.653 56.5891 342.712 56.5008 342.779 56.3644H343.067Z" fill="white"/>
<path d="M348.317 52.5V57.9053C348.634 57.5682 348.909 57.2994 349.143 57.0987C349.385 56.8981 349.602 56.7456 349.794 56.6413C349.994 56.5289 350.178 56.4567 350.345 56.4246C350.52 56.3844 350.699 56.3644 350.883 56.3644C351.317 56.3644 351.688 56.4807 351.997 56.7135C352.314 56.9382 352.552 57.2994 352.711 57.797C352.811 58.1501 352.861 58.7801 352.861 59.687V62.2994C352.861 62.5482 352.865 62.7608 352.873 62.9374C352.89 63.1059 352.932 63.2464 352.999 63.3587C353.074 63.4711 353.186 63.5554 353.337 63.6116C353.495 63.6597 353.716 63.6838 354 63.6838V63.9727H350.232V63.6838H350.407C350.658 63.6838 350.854 63.6637 350.996 63.6236C351.137 63.5754 351.242 63.4992 351.309 63.3949C351.384 63.2905 351.43 63.1501 351.446 62.9735C351.463 62.7889 351.471 62.5642 351.471 62.2994V59.687C351.471 59.1974 351.446 58.8002 351.396 58.4952C351.354 58.1902 351.284 57.9535 351.183 57.7849C351.092 57.6083 350.966 57.492 350.808 57.4358C350.658 57.3716 350.47 57.3395 350.245 57.3395C350.103 57.3395 349.961 57.3555 349.819 57.3876C349.677 57.4117 349.527 57.4639 349.368 57.5441C349.218 57.6244 349.055 57.7327 348.88 57.8692C348.713 58.0056 348.525 58.1822 348.317 58.3989V62.2994C348.317 62.5642 348.321 62.7689 348.329 62.9133C348.346 63.0578 348.367 63.1742 348.392 63.2624C348.425 63.3427 348.467 63.4029 348.517 63.443C348.575 63.4751 348.646 63.5152 348.73 63.5634C348.888 63.6437 349.164 63.6838 349.556 63.6838V63.9727H345.75V63.6838C345.959 63.6838 346.139 63.6717 346.289 63.6477C346.439 63.6236 346.56 63.5674 346.652 63.4791C346.752 63.3828 346.823 63.2424 346.865 63.0578C346.906 62.8732 346.927 62.6204 346.927 62.2994V55.618C346.927 55.1043 346.915 54.7111 346.89 54.4382C346.873 54.1573 346.84 53.9526 346.789 53.8242C346.748 53.6958 346.689 53.6196 346.614 53.5955C346.539 53.5714 346.443 53.5594 346.326 53.5594C346.184 53.5594 345.992 53.6035 345.75 53.6918L345.638 53.4029L347.929 52.5H348.317Z" fill="white"/>
</svg>
