<svg width="876" height="152" viewBox="0 0 876 152" fill="none" xmlns="http://www.w3.org/2000/svg">
<path fill-rule="evenodd" clip-rule="evenodd" d="M76 151.026C117.436 151.026 151.026 117.436 151.026 76C151.026 34.5644 117.436 0.974121 76 0.974121C34.5643 0.974121 0.974091 34.5644 0.974091 76C0.974091 117.436 34.5643 151.026 76 151.026ZM76 146.278C114.813 146.278 146.278 114.814 146.278 76C146.278 37.1865 114.813 5.72197 76 5.72197C37.1865 5.72197 5.72194 37.1865 5.72194 76C5.72194 114.814 37.1865 146.278 76 146.278Z" fill="white"/>
<path fill-rule="evenodd" clip-rule="evenodd" d="M95.8198 36H57.3501L56.0763 44.559L52 43.1584V48.9941H101V43.1584L97.5182 44.559L95.8198 36ZM71.7832 39.2215C71.0453 39.2215 70.4471 39.8137 70.4471 40.5442C70.4471 41.2748 71.0453 41.867 71.7832 41.867H81C81.7379 41.867 82.3361 41.2748 82.3361 40.5442C82.3361 39.8137 81.7379 39.2215 81 39.2215H71.7832ZM56.6117 113.584C56.6117 112.25 57.7044 111.168 59.0523 111.168H96.2535C97.6014 111.168 98.6941 112.25 98.6941 113.584C98.6941 114.918 97.6014 116 96.2535 116H59.0523C57.7044 116 56.6117 114.918 56.6117 113.584Z" fill="white"/>
<path d="M61.7633 108.277H92.8987L95.9679 81.1795L58.3158 81.1795L61.7633 108.277Z" fill="#FBFBFB"/>
<path d="M99.1088 53.4483L54.7876 53.4483L56.34 65.65H97.7268L99.1088 53.4483Z" fill="#FBFBFB"/>
<path d="M97.7268 65.65H56.34L58.3158 81.1795L95.9679 81.1795L97.7268 65.65Z" fill="black"/>
<path d="M95.9679 81.1795L92.8987 108.277H61.7633L58.3158 81.1795M95.9679 81.1795L58.3158 81.1795M95.9679 81.1795L97.7268 65.65M58.3158 81.1795L56.34 65.65M56.34 65.65L54.7876 53.4483L99.1088 53.4483L97.7268 65.65M56.34 65.65H97.7268M76 151.026C117.436 151.026 151.026 117.436 151.026 76C151.026 34.5644 117.436 0.974121 76 0.974121C34.5643 0.974121 0.974091 34.5644 0.974091 76C0.974091 117.436 34.5643 151.026 76 151.026ZM76 146.278C114.813 146.278 146.278 114.814 146.278 76C146.278 37.1865 114.813 5.72197 76 5.72197C37.1865 5.72197 5.72194 37.1865 5.72194 76C5.72194 114.814 37.1865 146.278 76 146.278ZM95.8198 36H57.3501L56.0763 44.559L52 43.1584V48.9941H101V43.1584L97.5182 44.559L95.8198 36ZM71.7832 39.2215C71.0453 39.2215 70.4471 39.8137 70.4471 40.5442C70.4471 41.2748 71.0453 41.867 71.7832 41.867H81C81.7379 41.867 82.3361 41.2748 82.3361 40.5442C82.3361 39.8137 81.7379 39.2215 81 39.2215H71.7832ZM56.6117 113.584C56.6117 112.25 57.7044 111.168 59.0523 111.168H96.2535C97.6014 111.168 98.6941 112.25 98.6941 113.584C98.6941 114.918 97.6014 116 96.2535 116H59.0523C57.7044 116 56.6117 114.918 56.6117 113.584Z" stroke="black"/>
<path d="M223.734 47.0649H208.317V36.7378C208.317 33.7349 208.146 31.8672 207.804 31.1348C207.487 30.3779 206.767 29.9995 205.644 29.9995C204.374 29.9995 203.568 30.4512 203.227 31.3545C202.885 32.2578 202.714 34.2109 202.714 37.2139V64.7529C202.714 67.6338 202.885 69.5137 203.227 70.3926C203.568 71.2715 204.337 71.7109 205.534 71.7109C206.681 71.7109 207.426 71.2715 207.768 70.3926C208.134 69.5137 208.317 67.4507 208.317 64.2036V56.7695H223.734V59.0767C223.734 65.2046 223.295 69.5503 222.416 72.1138C221.562 74.6772 219.645 76.9233 216.667 78.8521C213.712 80.7808 210.063 81.7451 205.717 81.7451C201.2 81.7451 197.477 80.9272 194.547 79.2915C191.618 77.6558 189.677 75.3975 188.725 72.5166C187.772 69.6113 187.296 65.2534 187.296 59.4429V42.1211C187.296 37.8486 187.443 34.6504 187.736 32.5264C188.029 30.3779 188.896 28.3149 190.336 26.3374C191.801 24.3599 193.815 22.8096 196.378 21.6865C198.966 20.5391 201.933 19.9653 205.277 19.9653C209.818 19.9653 213.566 20.8442 216.52 22.6021C219.474 24.3599 221.415 26.5571 222.343 29.1938C223.271 31.8062 223.734 35.8833 223.734 41.4253V47.0649ZM264.494 55.9272C264.494 61.8843 264.347 66.1079 264.054 68.5981C263.786 71.064 262.907 73.3223 261.418 75.373C259.953 77.4238 257.963 78.9985 255.448 80.0972C252.934 81.1958 250.004 81.7451 246.659 81.7451C243.485 81.7451 240.629 81.2324 238.09 80.207C235.575 79.1572 233.549 77.5947 232.011 75.5195C230.473 73.4443 229.557 71.186 229.264 68.7446C228.971 66.3032 228.825 62.0308 228.825 55.9272V45.7832C228.825 39.8262 228.959 35.6147 229.228 33.1489C229.521 30.6587 230.399 28.3882 231.864 26.3374C233.354 24.2866 235.355 22.7119 237.87 21.6133C240.385 20.5146 243.314 19.9653 246.659 19.9653C249.833 19.9653 252.677 20.4902 255.192 21.54C257.731 22.5654 259.77 24.1157 261.308 26.1909C262.846 28.2661 263.761 30.5244 264.054 32.9658C264.347 35.4072 264.494 39.6797 264.494 45.7832V55.9272ZM249.076 36.4448C249.076 33.686 248.918 31.9282 248.6 31.1714C248.307 30.3901 247.685 29.9995 246.732 29.9995C245.927 29.9995 245.304 30.3169 244.865 30.9517C244.45 31.562 244.242 33.3931 244.242 36.4448V64.1304C244.242 67.5728 244.376 69.6968 244.645 70.5024C244.938 71.3081 245.597 71.7109 246.623 71.7109C247.672 71.7109 248.344 71.2471 248.637 70.3193C248.93 69.3916 249.076 67.1821 249.076 63.6909V36.4448ZM270.28 21.2104H296.391V33.0757H285.697V44.3184H295.219V55.5977H285.697V80.5H270.28V21.2104ZM300.163 21.2104H326.273V33.0757H315.58V44.3184H325.102V55.5977H315.58V80.5H300.163V21.2104ZM330.045 21.2104H355.753V33.0757H345.463V44.3184H355.094V55.5977H345.463V68.6348H356.779V80.5H330.045V21.2104ZM361.247 21.2104H386.955V33.0757H376.664V44.3184H386.295V55.5977H376.664V68.6348H387.98V80.5H361.247V21.2104ZM400.614 68.8911V74.2012C400.614 76.9844 400.285 79.2671 399.626 81.0493C398.966 82.8315 397.819 84.3452 396.183 85.5903C394.572 86.8354 392.741 87.6655 390.69 88.0806V83.8325C392.155 83.0024 392.985 81.8916 393.18 80.5H390.69V68.8911H400.614ZM418.302 21.2104H429.838C437.284 21.2104 442.314 21.5522 444.926 22.2358C447.563 22.9194 449.564 24.0425 450.932 25.605C452.299 27.1675 453.153 28.9131 453.495 30.8418C453.837 32.7461 454.008 36.5059 454.008 42.1211V62.8853C454.008 68.2075 453.751 71.772 453.239 73.5786C452.751 75.3608 451.884 76.7646 450.639 77.79C449.394 78.791 447.855 79.499 446.024 79.9141C444.193 80.3047 441.435 80.5 437.748 80.5H418.302V21.2104ZM433.72 31.3545V70.356C435.941 70.356 437.309 69.9165 437.821 69.0376C438.334 68.1343 438.59 65.7051 438.59 61.75V38.7153C438.59 36.0298 438.505 34.3086 438.334 33.5518C438.163 32.7949 437.772 32.2456 437.162 31.9038C436.552 31.5376 435.404 31.3545 433.72 31.3545ZM459.757 21.2104H470.67C477.946 21.2104 482.865 21.4912 485.429 22.0527C488.017 22.6143 490.116 24.0547 491.728 26.374C493.363 28.6689 494.181 32.3433 494.181 37.397C494.181 42.0112 493.607 45.1118 492.46 46.6987C491.313 48.2856 489.054 49.2378 485.685 49.5552C488.737 50.312 490.788 51.3252 491.837 52.5947C492.887 53.8643 493.534 55.0361 493.778 56.1104C494.047 57.1602 494.181 60.0776 494.181 64.8628V80.5H479.862V60.7979C479.862 57.624 479.606 55.6587 479.093 54.9019C478.605 54.145 477.299 53.7666 475.175 53.7666V80.5H459.757V21.2104ZM475.175 31.3545V44.5381C476.908 44.5381 478.117 44.3062 478.8 43.8423C479.508 43.354 479.862 41.8037 479.862 39.1914V35.9321C479.862 34.0522 479.521 32.8193 478.837 32.2334C478.178 31.6475 476.957 31.3545 475.175 31.3545ZM515.605 21.2104V80.5H500.187V21.2104H515.605ZM556.217 21.2104V80.5H542.704L534.684 53.5469V80.5H521.793V21.2104H534.684L543.327 47.9072V21.2104H556.217ZM599.174 21.2104L590.348 47.9805L600.016 80.5H584.086L577.86 55.085V80.5H562.443V21.2104H577.86V44.2451L584.709 21.2104H599.174ZM634.22 39.1548H619.901V34.7603C619.901 32.7095 619.718 31.4033 619.352 30.8418C618.986 30.2803 618.376 29.9995 617.521 29.9995C616.593 29.9995 615.885 30.3779 615.397 31.1348C614.933 31.8916 614.701 33.0391 614.701 34.5771C614.701 36.5547 614.97 38.0439 615.507 39.0449C616.02 40.0459 617.472 41.2544 619.865 42.6704C626.725 46.7476 631.046 50.0923 632.829 52.7046C634.611 55.3169 635.502 59.5283 635.502 65.3389C635.502 69.5625 635.001 72.6753 634.001 74.6772C633.024 76.6792 631.12 78.3638 628.288 79.731C625.456 81.0737 622.16 81.7451 618.4 81.7451C614.274 81.7451 610.746 80.9639 607.816 79.4014C604.911 77.8389 603.007 75.8491 602.104 73.4321C601.2 71.0151 600.749 67.585 600.749 63.1416V59.2598H615.067V66.4741C615.067 68.6958 615.263 70.124 615.653 70.7588C616.068 71.3936 616.789 71.7109 617.814 71.7109C618.839 71.7109 619.596 71.3081 620.085 70.5024C620.597 69.6968 620.854 68.5005 620.854 66.9136C620.854 63.4224 620.377 61.1396 619.425 60.0654C618.449 58.9912 616.044 57.1968 612.211 54.6821C608.378 52.1431 605.839 50.2998 604.594 49.1523C603.349 48.0049 602.311 46.418 601.481 44.3916C600.675 42.3652 600.272 39.7773 600.272 36.6279C600.272 32.0869 600.846 28.7666 601.994 26.667C603.166 24.5674 605.045 22.9316 607.633 21.7598C610.221 20.5635 613.346 19.9653 617.008 19.9653C621.012 19.9653 624.418 20.6123 627.226 21.9062C630.058 23.2002 631.925 24.8359 632.829 26.8135C633.756 28.7666 634.22 32.0991 634.22 36.811V39.1548ZM692.741 57.978V67.9756L688.566 70.6123L693.766 80.5H680.106L678.312 77.2041C673.722 80.2314 669.376 81.7451 665.275 81.7451C660.978 81.7451 657.67 80.3169 655.351 77.4604C653.031 74.604 651.872 71.1616 651.872 67.1333C651.872 63.9106 652.555 61.3838 653.922 59.5527C655.29 57.7217 657.34 56.2324 660.075 55.085C656.168 52.2773 654.215 48.481 654.215 43.6958C654.215 39.5698 655.607 36.2495 658.39 33.7349C661.173 31.2202 665.006 29.9629 669.889 29.9629C674.284 29.9629 677.738 31.1958 680.253 33.6616C682.792 36.1274 684.062 39.2646 684.062 43.0732C684.062 47.0771 682.523 50.6294 679.447 53.73L684.684 63.1782L692.741 57.978ZM669.926 47.5776C671.586 45.4048 672.416 43.3296 672.416 41.3521C672.416 40.4976 672.172 39.7163 671.684 39.0083C671.195 38.3003 670.512 37.9463 669.633 37.9463C668.827 37.9463 668.217 38.2148 667.802 38.752C667.387 39.2891 667.179 40.1069 667.179 41.2056C667.179 43.5005 668.095 45.6245 669.926 47.5776ZM673.258 70.5024L668.461 62.519C666.63 64.1792 665.714 65.9736 665.714 67.9023C665.714 69.2939 665.995 70.3438 666.557 71.0518C667.143 71.7354 667.997 72.0771 669.12 72.0771C670.316 72.0771 671.696 71.5522 673.258 70.5024ZM710.099 21.2104H736.21V33.0757H725.517V44.3184H735.038V55.5977H725.517V80.5H710.099V21.2104ZM775.211 55.9272C775.211 61.8843 775.065 66.1079 774.772 68.5981C774.503 71.064 773.625 73.3223 772.135 75.373C770.67 77.4238 768.681 78.9985 766.166 80.0972C763.651 81.1958 760.722 81.7451 757.377 81.7451C754.203 81.7451 751.347 81.2324 748.808 80.207C746.293 79.1572 744.267 77.5947 742.729 75.5195C741.19 73.4443 740.275 71.186 739.982 68.7446C739.689 66.3032 739.543 62.0308 739.543 55.9272V45.7832C739.543 39.8262 739.677 35.6147 739.945 33.1489C740.238 30.6587 741.117 28.3882 742.582 26.3374C744.071 24.2866 746.073 22.7119 748.588 21.6133C751.103 20.5146 754.032 19.9653 757.377 19.9653C760.551 19.9653 763.395 20.4902 765.91 21.54C768.449 22.5654 770.487 24.1157 772.025 26.1909C773.564 28.2661 774.479 30.5244 774.772 32.9658C775.065 35.4072 775.211 39.6797 775.211 45.7832V55.9272ZM759.794 36.4448C759.794 33.686 759.635 31.9282 759.318 31.1714C759.025 30.3901 758.402 29.9995 757.45 29.9995C756.645 29.9995 756.022 30.3169 755.583 30.9517C755.168 31.562 754.96 33.3931 754.96 36.4448V64.1304C754.96 67.5728 755.094 69.6968 755.363 70.5024C755.656 71.3081 756.315 71.7109 757.34 71.7109C758.39 71.7109 759.062 71.2471 759.355 70.3193C759.647 69.3916 759.794 67.1821 759.794 63.6909V36.4448ZM816.227 55.9272C816.227 61.8843 816.081 66.1079 815.788 68.5981C815.519 71.064 814.64 73.3223 813.151 75.373C811.686 77.4238 809.696 78.9985 807.182 80.0972C804.667 81.1958 801.737 81.7451 798.393 81.7451C795.219 81.7451 792.362 81.2324 789.823 80.207C787.309 79.1572 785.282 77.5947 783.744 75.5195C782.206 73.4443 781.291 71.186 780.998 68.7446C780.705 66.3032 780.558 62.0308 780.558 55.9272V45.7832C780.558 39.8262 780.692 35.6147 780.961 33.1489C781.254 30.6587 782.133 28.3882 783.598 26.3374C785.087 24.2866 787.089 22.7119 789.604 21.6133C792.118 20.5146 795.048 19.9653 798.393 19.9653C801.566 19.9653 804.411 20.4902 806.925 21.54C809.464 22.5654 811.503 24.1157 813.041 26.1909C814.579 28.2661 815.495 30.5244 815.788 32.9658C816.081 35.4072 816.227 39.6797 816.227 45.7832V55.9272ZM800.81 36.4448C800.81 33.686 800.651 31.9282 800.334 31.1714C800.041 30.3901 799.418 29.9995 798.466 29.9995C797.66 29.9995 797.038 30.3169 796.598 30.9517C796.183 31.562 795.976 33.3931 795.976 36.4448V64.1304C795.976 67.5728 796.11 69.6968 796.378 70.5024C796.671 71.3081 797.331 71.7109 798.356 71.7109C799.406 71.7109 800.077 71.2471 800.37 70.3193C800.663 69.3916 800.81 67.1821 800.81 63.6909V36.4448ZM822.013 21.2104H833.549C840.995 21.2104 846.024 21.5522 848.637 22.2358C851.273 22.9194 853.275 24.0425 854.643 25.605C856.01 27.1675 856.864 28.9131 857.206 30.8418C857.548 32.7461 857.719 36.5059 857.719 42.1211V62.8853C857.719 68.2075 857.462 71.772 856.95 73.5786C856.461 75.3608 855.595 76.7646 854.35 77.79C853.105 78.791 851.566 79.499 849.735 79.9141C847.904 80.3047 845.146 80.5 841.459 80.5H822.013V21.2104ZM837.431 31.3545V70.356C839.652 70.356 841.02 69.9165 841.532 69.0376C842.045 68.1343 842.301 65.7051 842.301 61.75V38.7153C842.301 36.0298 842.216 34.3086 842.045 33.5518C841.874 32.7949 841.483 32.2456 840.873 31.9038C840.263 31.5376 839.115 31.3545 837.431 31.3545Z" fill="white"/>
<path d="M184.123 121.91V126.5H170.719V125.914L180.68 112.657H175.773C175.236 112.657 174.796 112.674 174.455 112.706C174.129 112.739 173.869 112.796 173.673 112.877C173.478 112.942 173.323 113.04 173.21 113.17C173.096 113.284 172.99 113.438 172.892 113.634C172.599 114.171 172.428 114.846 172.379 115.66H171.72V111.51H184.391V112.12L174.357 125.401H179.801C180.387 125.401 180.867 125.385 181.242 125.353C181.616 125.304 181.917 125.23 182.145 125.133C182.389 125.019 182.576 124.881 182.707 124.718C182.853 124.555 182.991 124.352 183.122 124.107C183.203 123.928 183.284 123.66 183.366 123.302C183.447 122.944 183.512 122.48 183.561 121.91H184.123ZM188.517 117.149C188.517 118.272 188.664 119.273 188.957 120.152C189.266 121.031 189.665 121.78 190.153 122.398C190.657 123.017 191.235 123.489 191.886 123.814C192.554 124.14 193.253 124.303 193.986 124.303C194.962 124.303 195.809 124.034 196.525 123.497C197.257 122.96 197.868 122.032 198.356 120.714L198.869 121.031C198.755 121.764 198.527 122.488 198.185 123.204C197.843 123.904 197.404 124.539 196.867 125.108C196.346 125.662 195.736 126.109 195.036 126.451C194.336 126.793 193.571 126.964 192.741 126.964C191.846 126.964 190.999 126.785 190.202 126.427C189.42 126.052 188.729 125.532 188.126 124.864C187.541 124.181 187.069 123.367 186.71 122.423C186.369 121.463 186.198 120.388 186.198 119.2C186.198 117.914 186.377 116.767 186.735 115.758C187.093 114.749 187.581 113.894 188.2 113.194C188.818 112.494 189.543 111.965 190.373 111.607C191.219 111.249 192.13 111.07 193.107 111.07C193.937 111.07 194.702 111.217 195.402 111.51C196.102 111.786 196.704 112.193 197.209 112.73C197.729 113.251 198.136 113.886 198.429 114.635C198.722 115.383 198.869 116.222 198.869 117.149H188.517ZM188.517 116.222H195.451C195.369 114.838 195.036 113.829 194.45 113.194C193.88 112.543 193.131 112.218 192.204 112.218C191.764 112.218 191.333 112.307 190.91 112.486C190.487 112.665 190.104 112.926 189.762 113.268C189.437 113.609 189.16 114.033 188.932 114.537C188.704 115.025 188.566 115.587 188.517 116.222ZM205.265 114.244C207.007 112.128 208.675 111.07 210.27 111.07C210.823 111.07 211.336 111.168 211.808 111.363C212.28 111.542 212.687 111.852 213.029 112.291C213.387 112.714 213.664 113.292 213.859 114.024C214.054 114.741 214.152 115.636 214.152 116.71V123.106C214.152 123.757 214.184 124.27 214.25 124.645C214.331 125.019 214.453 125.304 214.616 125.499C214.795 125.678 215.031 125.792 215.324 125.841C215.617 125.89 215.991 125.914 216.447 125.914V126.5H209.049V125.914H209.342C209.831 125.914 210.213 125.873 210.49 125.792C210.783 125.694 210.994 125.54 211.125 125.328C211.271 125.117 211.361 124.832 211.393 124.474C211.442 124.099 211.466 123.644 211.466 123.106V116.979C211.466 115.595 211.287 114.602 210.929 114C210.587 113.398 209.993 113.097 209.147 113.097C207.829 113.097 206.535 113.805 205.265 115.221V123.106C205.265 123.741 205.281 124.246 205.314 124.62C205.363 124.978 205.469 125.255 205.631 125.45C205.794 125.646 206.038 125.776 206.364 125.841C206.689 125.89 207.137 125.914 207.707 125.914V126.5H200.285V125.914H200.602C200.993 125.914 201.31 125.873 201.554 125.792C201.815 125.694 202.018 125.54 202.165 125.328C202.311 125.117 202.409 124.832 202.458 124.474C202.523 124.099 202.555 123.644 202.555 123.106V117.564C202.555 116.49 202.539 115.66 202.506 115.074C202.474 114.488 202.409 114.065 202.311 113.805C202.23 113.528 202.108 113.365 201.945 113.316C201.798 113.268 201.611 113.243 201.383 113.243C201.221 113.243 201.05 113.268 200.871 113.316C200.708 113.349 200.513 113.406 200.285 113.487L200.041 112.901L204.557 111.07H205.265V114.244ZM238.761 120.812C238.566 121.804 238.257 122.683 237.834 123.448C237.427 124.213 236.938 124.856 236.369 125.377C235.815 125.898 235.205 126.288 234.538 126.549C233.87 126.826 233.187 126.964 232.487 126.964C231.657 126.964 230.859 126.777 230.094 126.402C229.329 126.028 228.654 125.499 228.068 124.815C227.482 124.132 227.01 123.302 226.652 122.325C226.31 121.349 226.139 120.25 226.139 119.029C226.139 117.857 226.326 116.783 226.701 115.807C227.091 114.83 227.612 113.992 228.263 113.292C228.914 112.592 229.671 112.047 230.534 111.656C231.396 111.266 232.316 111.07 233.293 111.07C234.025 111.07 234.692 111.184 235.294 111.412C235.913 111.624 236.45 111.909 236.906 112.267C237.362 112.608 237.711 112.999 237.956 113.438C238.216 113.862 238.346 114.277 238.346 114.684C238.346 115.107 238.208 115.449 237.931 115.709C237.671 115.953 237.296 116.075 236.808 116.075C236.304 116.075 235.889 115.953 235.563 115.709C235.237 115.449 235.042 114.92 234.977 114.122C234.847 112.82 234.106 112.169 232.755 112.169C232.104 112.169 231.527 112.315 231.022 112.608C230.534 112.901 230.119 113.3 229.777 113.805C229.451 114.293 229.199 114.871 229.02 115.538C228.857 116.189 228.776 116.881 228.776 117.613C228.776 118.476 228.882 119.314 229.093 120.128C229.321 120.942 229.647 121.666 230.07 122.301C230.493 122.936 231.006 123.448 231.608 123.839C232.21 124.213 232.894 124.4 233.659 124.4C234.114 124.4 234.546 124.343 234.953 124.229C235.376 124.116 235.775 123.92 236.149 123.644C236.54 123.351 236.906 122.96 237.248 122.472C237.606 121.967 237.956 121.332 238.297 120.567L238.761 120.812ZM248.258 111.07C249.3 111.07 250.26 111.274 251.139 111.681C252.018 112.088 252.775 112.641 253.41 113.341C254.061 114.024 254.565 114.838 254.923 115.782C255.298 116.71 255.485 117.695 255.485 118.736C255.485 119.957 255.281 121.072 254.875 122.081C254.484 123.09 253.947 123.961 253.263 124.693C252.58 125.41 251.79 125.971 250.895 126.378C250 126.769 249.064 126.964 248.087 126.964C247.062 126.964 246.11 126.752 245.231 126.329C244.368 125.906 243.62 125.336 242.985 124.62C242.366 123.904 241.878 123.074 241.52 122.13C241.178 121.186 241.007 120.193 241.007 119.151C241.007 118.077 241.195 117.06 241.569 116.1C241.943 115.123 242.456 114.26 243.107 113.512C243.758 112.763 244.523 112.169 245.402 111.729C246.281 111.29 247.233 111.07 248.258 111.07ZM247.746 112.145C247.274 112.145 246.818 112.25 246.378 112.462C245.939 112.657 245.548 112.983 245.207 113.438C244.865 113.878 244.588 114.456 244.376 115.172C244.165 115.888 244.059 116.759 244.059 117.784C244.059 118.842 244.165 119.859 244.376 120.836C244.604 121.796 244.922 122.643 245.329 123.375C245.736 124.107 246.232 124.693 246.818 125.133C247.404 125.572 248.055 125.792 248.771 125.792C249.292 125.792 249.772 125.694 250.211 125.499C250.667 125.287 251.058 124.954 251.383 124.498C251.709 124.042 251.961 123.448 252.14 122.716C252.335 121.967 252.433 121.056 252.433 119.981C252.433 118.907 252.327 117.898 252.116 116.954C251.904 115.994 251.595 115.164 251.188 114.464C250.797 113.748 250.309 113.186 249.723 112.779C249.154 112.356 248.494 112.145 247.746 112.145ZM263.542 112.706V122.545C263.542 123.326 263.59 123.945 263.688 124.4C263.802 124.856 263.948 125.198 264.127 125.426C264.323 125.637 264.543 125.776 264.787 125.841C265.047 125.89 265.324 125.914 265.617 125.914H266.96V126.5H258.024V125.914H258.683C259.074 125.914 259.399 125.865 259.66 125.768C259.936 125.654 260.156 125.466 260.319 125.206C260.498 124.946 260.628 124.604 260.71 124.181C260.791 123.741 260.832 123.196 260.832 122.545V112.706H257.926V111.51H260.832V110.533C260.832 109.459 260.978 108.482 261.271 107.604C261.564 106.708 261.979 105.943 262.516 105.309C263.053 104.658 263.704 104.161 264.469 103.819C265.251 103.461 266.121 103.282 267.082 103.282C267.505 103.282 267.952 103.355 268.424 103.502C268.913 103.632 269.36 103.819 269.767 104.063C270.174 104.308 270.508 104.601 270.768 104.942C271.045 105.284 271.183 105.65 271.183 106.041C271.183 106.367 271.045 106.676 270.768 106.969C270.491 107.245 270.182 107.384 269.84 107.384C269.71 107.384 269.58 107.368 269.45 107.335C269.336 107.302 269.206 107.237 269.059 107.14C268.913 107.042 268.758 106.904 268.595 106.725C268.432 106.529 268.245 106.277 268.034 105.968C267.611 105.366 267.236 104.967 266.911 104.771C266.585 104.56 266.211 104.454 265.788 104.454C265.283 104.454 264.852 104.592 264.494 104.869C264.152 105.13 263.908 105.545 263.761 106.114C263.615 106.651 263.542 108.092 263.542 110.436V111.51H267.399V112.706H263.542ZM274.723 112.706V122.545C274.723 123.326 274.772 123.945 274.87 124.4C274.984 124.856 275.13 125.198 275.309 125.426C275.504 125.637 275.724 125.776 275.968 125.841C276.229 125.89 276.505 125.914 276.798 125.914H278.141V126.5H269.206V125.914H269.865C270.255 125.914 270.581 125.865 270.841 125.768C271.118 125.654 271.338 125.466 271.501 125.206C271.68 124.946 271.81 124.604 271.891 124.181C271.973 123.741 272.013 123.196 272.013 122.545V112.706H269.108V111.51H272.013V110.533C272.013 109.459 272.16 108.482 272.453 107.604C272.746 106.708 273.161 105.943 273.698 105.309C274.235 104.658 274.886 104.161 275.651 103.819C276.432 103.461 277.303 103.282 278.263 103.282C278.686 103.282 279.134 103.355 279.606 103.502C280.094 103.632 280.542 103.819 280.949 104.063C281.356 104.308 281.689 104.601 281.95 104.942C282.226 105.284 282.365 105.65 282.365 106.041C282.365 106.367 282.226 106.676 281.95 106.969C281.673 107.245 281.364 107.384 281.022 107.384C280.892 107.384 280.762 107.368 280.631 107.335C280.517 107.302 280.387 107.237 280.241 107.14C280.094 107.042 279.94 106.904 279.777 106.725C279.614 106.529 279.427 106.277 279.215 105.968C278.792 105.366 278.418 104.967 278.092 104.771C277.767 104.56 277.392 104.454 276.969 104.454C276.465 104.454 276.033 104.592 275.675 104.869C275.334 105.13 275.089 105.545 274.943 106.114C274.796 106.651 274.723 108.092 274.723 110.436V111.51H278.581V112.706H274.723ZM282.56 117.149C282.56 118.272 282.707 119.273 283 120.152C283.309 121.031 283.708 121.78 284.196 122.398C284.7 123.017 285.278 123.489 285.929 123.814C286.597 124.14 287.296 124.303 288.029 124.303C289.005 124.303 289.852 124.034 290.568 123.497C291.3 122.96 291.911 122.032 292.399 120.714L292.912 121.031C292.798 121.764 292.57 122.488 292.228 123.204C291.886 123.904 291.447 124.539 290.91 125.108C290.389 125.662 289.779 126.109 289.079 126.451C288.379 126.793 287.614 126.964 286.784 126.964C285.889 126.964 285.042 126.785 284.245 126.427C283.463 126.052 282.772 125.532 282.169 124.864C281.584 124.181 281.112 123.367 280.753 122.423C280.412 121.463 280.241 120.388 280.241 119.2C280.241 117.914 280.42 116.767 280.778 115.758C281.136 114.749 281.624 113.894 282.243 113.194C282.861 112.494 283.585 111.965 284.416 111.607C285.262 111.249 286.173 111.07 287.15 111.07C287.98 111.07 288.745 111.217 289.445 111.51C290.145 111.786 290.747 112.193 291.251 112.73C291.772 113.251 292.179 113.886 292.472 114.635C292.765 115.383 292.912 116.222 292.912 117.149H282.56ZM282.56 116.222H289.494C289.412 114.838 289.079 113.829 288.493 113.194C287.923 112.543 287.174 112.218 286.247 112.218C285.807 112.218 285.376 112.307 284.953 112.486C284.529 112.665 284.147 112.926 283.805 113.268C283.48 113.609 283.203 114.033 282.975 114.537C282.747 115.025 282.609 115.587 282.56 116.222ZM297.453 117.149C297.453 118.272 297.599 119.273 297.892 120.152C298.201 121.031 298.6 121.78 299.088 122.398C299.593 123.017 300.171 123.489 300.822 123.814C301.489 124.14 302.189 124.303 302.921 124.303C303.898 124.303 304.744 124.034 305.46 123.497C306.193 122.96 306.803 122.032 307.292 120.714L307.804 121.031C307.69 121.764 307.462 122.488 307.121 123.204C306.779 123.904 306.339 124.539 305.802 125.108C305.281 125.662 304.671 126.109 303.971 126.451C303.271 126.793 302.506 126.964 301.676 126.964C300.781 126.964 299.935 126.785 299.137 126.427C298.356 126.052 297.664 125.532 297.062 124.864C296.476 124.181 296.004 123.367 295.646 122.423C295.304 121.463 295.133 120.388 295.133 119.2C295.133 117.914 295.312 116.767 295.67 115.758C296.029 114.749 296.517 113.894 297.135 113.194C297.754 112.494 298.478 111.965 299.308 111.607C300.154 111.249 301.066 111.07 302.043 111.07C302.873 111.07 303.638 111.217 304.337 111.51C305.037 111.786 305.64 112.193 306.144 112.73C306.665 113.251 307.072 113.886 307.365 114.635C307.658 115.383 307.804 116.222 307.804 117.149H297.453ZM297.453 116.222H304.386C304.305 114.838 303.971 113.829 303.385 113.194C302.816 112.543 302.067 112.218 301.139 112.218C300.7 112.218 300.268 112.307 299.845 112.486C299.422 112.665 299.04 112.926 298.698 113.268C298.372 113.609 298.096 114.033 297.868 114.537C297.64 115.025 297.501 115.587 297.453 116.222ZM327.921 111.07V116.173H327.36C327.165 115.375 326.929 114.708 326.652 114.171C326.391 113.634 326.099 113.211 325.773 112.901C325.447 112.592 325.073 112.372 324.65 112.242C324.243 112.112 323.795 112.047 323.307 112.047C322.917 112.047 322.567 112.104 322.257 112.218C321.948 112.332 321.68 112.478 321.452 112.657C321.224 112.836 321.045 113.04 320.915 113.268C320.801 113.495 320.744 113.731 320.744 113.976C320.744 114.285 320.776 114.57 320.841 114.83C320.923 115.09 321.061 115.335 321.256 115.562C321.452 115.79 321.712 116.018 322.038 116.246C322.379 116.474 322.811 116.718 323.332 116.979L325.724 118.15C327.938 119.225 329.044 120.649 329.044 122.423C329.044 123.106 328.898 123.733 328.605 124.303C328.328 124.856 327.954 125.328 327.482 125.719C327.01 126.109 326.473 126.41 325.871 126.622C325.268 126.85 324.658 126.964 324.04 126.964C323.568 126.964 323.071 126.923 322.55 126.842C322.029 126.777 321.476 126.655 320.89 126.476C320.711 126.427 320.548 126.386 320.402 126.354C320.255 126.321 320.125 126.305 320.011 126.305C319.767 126.305 319.572 126.443 319.425 126.72H318.888V121.373H319.425C319.572 122.138 319.8 122.813 320.109 123.399C320.418 123.969 320.776 124.449 321.183 124.84C321.59 125.214 322.038 125.499 322.526 125.694C323.03 125.89 323.543 125.987 324.064 125.987C324.438 125.987 324.78 125.93 325.089 125.816C325.399 125.702 325.667 125.548 325.895 125.353C326.123 125.141 326.302 124.897 326.432 124.62C326.562 124.343 326.627 124.05 326.627 123.741C326.627 123.367 326.571 123.033 326.457 122.74C326.343 122.431 326.139 122.138 325.846 121.861C325.553 121.568 325.146 121.267 324.626 120.958C324.121 120.649 323.462 120.291 322.648 119.884C321.85 119.493 321.199 119.127 320.695 118.785C320.207 118.443 319.816 118.102 319.523 117.76C319.246 117.418 319.059 117.06 318.961 116.686C318.864 116.311 318.815 115.888 318.815 115.416C318.815 114.798 318.921 114.228 319.132 113.707C319.36 113.17 319.678 112.706 320.085 112.315C320.491 111.925 320.972 111.624 321.525 111.412C322.078 111.184 322.689 111.07 323.356 111.07C323.568 111.07 323.836 111.103 324.162 111.168C324.487 111.233 324.813 111.306 325.138 111.388C325.48 111.469 325.789 111.542 326.066 111.607C326.343 111.673 326.53 111.705 326.627 111.705C326.807 111.705 326.937 111.673 327.018 111.607C327.116 111.526 327.23 111.347 327.36 111.07H327.921ZM335.661 103.233V114.195C336.279 113.512 336.816 112.966 337.272 112.56C337.744 112.153 338.167 111.843 338.542 111.632C338.932 111.404 339.29 111.257 339.616 111.192C339.958 111.111 340.307 111.07 340.666 111.07C341.512 111.07 342.236 111.306 342.838 111.778C343.457 112.234 343.921 112.966 344.23 113.976C344.425 114.692 344.523 115.969 344.523 117.809V123.106C344.523 123.611 344.531 124.042 344.547 124.4C344.58 124.742 344.661 125.027 344.792 125.255C344.938 125.483 345.158 125.654 345.451 125.768C345.76 125.865 346.191 125.914 346.745 125.914V126.5H339.396V125.914H339.738C340.226 125.914 340.609 125.873 340.885 125.792C341.162 125.694 341.365 125.54 341.496 125.328C341.642 125.117 341.732 124.832 341.764 124.474C341.797 124.099 341.813 123.644 341.813 123.106V117.809C341.813 116.816 341.764 116.01 341.667 115.392C341.585 114.773 341.447 114.293 341.251 113.951C341.072 113.593 340.828 113.357 340.519 113.243C340.226 113.113 339.86 113.048 339.42 113.048C339.144 113.048 338.867 113.08 338.59 113.146C338.314 113.194 338.021 113.3 337.711 113.463C337.418 113.626 337.101 113.845 336.759 114.122C336.434 114.399 336.068 114.757 335.661 115.196V123.106C335.661 123.644 335.669 124.059 335.685 124.352C335.718 124.645 335.758 124.881 335.807 125.06C335.872 125.222 335.954 125.344 336.051 125.426C336.165 125.491 336.304 125.572 336.466 125.67C336.776 125.833 337.313 125.914 338.078 125.914V126.5H330.656V125.914C331.063 125.914 331.413 125.89 331.706 125.841C331.999 125.792 332.235 125.678 332.414 125.499C332.609 125.304 332.747 125.019 332.829 124.645C332.91 124.27 332.951 123.757 332.951 123.106V109.557C332.951 108.515 332.926 107.717 332.877 107.164C332.845 106.594 332.78 106.179 332.682 105.919C332.601 105.659 332.487 105.504 332.34 105.455C332.194 105.406 332.007 105.382 331.779 105.382C331.502 105.382 331.128 105.471 330.656 105.65L330.436 105.064L334.904 103.233H335.661ZM355.338 111.07C356.38 111.07 357.34 111.274 358.219 111.681C359.098 112.088 359.855 112.641 360.49 113.341C361.141 114.024 361.645 114.838 362.003 115.782C362.378 116.71 362.565 117.695 362.565 118.736C362.565 119.957 362.362 121.072 361.955 122.081C361.564 123.09 361.027 123.961 360.343 124.693C359.66 125.41 358.87 125.971 357.975 126.378C357.08 126.769 356.144 126.964 355.168 126.964C354.142 126.964 353.19 126.752 352.311 126.329C351.448 125.906 350.7 125.336 350.065 124.62C349.446 123.904 348.958 123.074 348.6 122.13C348.258 121.186 348.087 120.193 348.087 119.151C348.087 118.077 348.275 117.06 348.649 116.1C349.023 115.123 349.536 114.26 350.187 113.512C350.838 112.763 351.603 112.169 352.482 111.729C353.361 111.29 354.313 111.07 355.338 111.07ZM354.826 112.145C354.354 112.145 353.898 112.25 353.459 112.462C353.019 112.657 352.628 112.983 352.287 113.438C351.945 113.878 351.668 114.456 351.457 115.172C351.245 115.888 351.139 116.759 351.139 117.784C351.139 118.842 351.245 119.859 351.457 120.836C351.684 121.796 352.002 122.643 352.409 123.375C352.816 124.107 353.312 124.693 353.898 125.133C354.484 125.572 355.135 125.792 355.851 125.792C356.372 125.792 356.852 125.694 357.292 125.499C357.747 125.287 358.138 124.954 358.463 124.498C358.789 124.042 359.041 123.448 359.22 122.716C359.416 121.967 359.513 121.056 359.513 119.981C359.513 118.907 359.407 117.898 359.196 116.954C358.984 115.994 358.675 115.164 358.268 114.464C357.877 113.748 357.389 113.186 356.803 112.779C356.234 112.356 355.574 112.145 354.826 112.145ZM363.688 112.999L368.302 111.144H368.913V114.635C369.694 113.316 370.467 112.397 371.232 111.876C372.013 111.339 372.835 111.07 373.698 111.07C374.544 111.07 375.309 111.266 375.993 111.656C376.693 112.047 377.287 112.584 377.775 113.268C378.263 113.935 378.638 114.716 378.898 115.611C379.175 116.507 379.313 117.459 379.313 118.468C379.313 119.607 379.15 120.689 378.825 121.715C378.515 122.74 378.06 123.644 377.458 124.425C376.872 125.206 376.155 125.825 375.309 126.28C374.463 126.736 373.519 126.964 372.477 126.964C372.103 126.964 371.761 126.948 371.452 126.915C371.159 126.882 370.874 126.817 370.597 126.72C370.321 126.622 370.044 126.484 369.767 126.305C369.507 126.126 369.222 125.898 368.913 125.621V130.187C368.913 130.724 368.929 131.147 368.961 131.456C368.994 131.765 369.043 132.009 369.108 132.188C369.173 132.368 369.254 132.498 369.352 132.579C369.466 132.66 369.596 132.742 369.743 132.823C370.052 132.986 370.622 133.067 371.452 133.067V133.653H363.59V133.067H364.005C364.363 133.067 364.681 133.051 364.958 133.019C365.234 132.986 365.462 132.872 365.641 132.677C365.82 132.481 365.959 132.18 366.056 131.773C366.154 131.383 366.203 130.821 366.203 130.089V115.929C366.203 115.359 366.178 114.903 366.129 114.562C366.097 114.203 366.032 113.935 365.934 113.756C365.836 113.561 365.698 113.438 365.519 113.39C365.356 113.325 365.145 113.292 364.884 113.292C364.754 113.292 364.599 113.316 364.42 113.365C364.258 113.398 364.079 113.455 363.883 113.536L363.688 112.999ZM368.913 115.611V121.202C368.913 122.407 368.961 123.204 369.059 123.595C369.124 123.92 369.254 124.229 369.45 124.522C369.645 124.799 369.889 125.051 370.182 125.279C370.475 125.491 370.809 125.662 371.183 125.792C371.574 125.922 371.989 125.987 372.428 125.987C373.063 125.987 373.625 125.841 374.113 125.548C374.617 125.239 375.041 124.824 375.382 124.303C375.724 123.766 375.976 123.131 376.139 122.398C376.318 121.666 376.408 120.868 376.408 120.006C376.408 119.062 376.31 118.191 376.115 117.394C375.936 116.596 375.667 115.904 375.309 115.318C374.967 114.732 374.544 114.277 374.04 113.951C373.551 113.609 373.006 113.438 372.404 113.438C372.16 113.438 371.932 113.455 371.72 113.487C371.509 113.504 371.281 113.577 371.037 113.707C370.793 113.837 370.5 114.057 370.158 114.366C369.832 114.659 369.417 115.074 368.913 115.611ZM395.085 111.07V123.106C395.085 123.823 395.125 124.376 395.207 124.767C395.288 125.141 395.418 125.418 395.597 125.597C395.793 125.759 396.029 125.857 396.305 125.89C396.598 125.906 396.948 125.914 397.355 125.914V126.5H390.08V125.914C390.584 125.914 390.983 125.882 391.276 125.816C391.585 125.735 391.821 125.589 391.984 125.377C392.147 125.165 392.244 124.881 392.277 124.522C392.326 124.148 392.35 123.676 392.35 123.106V117.345C392.35 116.401 392.334 115.652 392.301 115.099C392.269 114.545 392.212 114.138 392.13 113.878C392.049 113.601 391.927 113.43 391.764 113.365C391.618 113.284 391.422 113.243 391.178 113.243C391.015 113.243 390.845 113.268 390.666 113.316C390.503 113.349 390.307 113.406 390.08 113.487L389.835 112.901L394.352 111.07H395.085ZM393.717 103.233C394.189 103.233 394.58 103.396 394.889 103.722C395.215 104.031 395.377 104.422 395.377 104.894C395.377 105.349 395.215 105.74 394.889 106.065C394.58 106.391 394.189 106.554 393.717 106.554C393.245 106.554 392.847 106.391 392.521 106.065C392.212 105.74 392.057 105.349 392.057 104.894C392.057 104.422 392.212 104.031 392.521 103.722C392.847 103.396 393.245 103.233 393.717 103.233ZM403.605 114.244C405.347 112.128 407.015 111.07 408.61 111.07C409.163 111.07 409.676 111.168 410.148 111.363C410.62 111.542 411.027 111.852 411.369 112.291C411.727 112.714 412.003 113.292 412.199 114.024C412.394 114.741 412.492 115.636 412.492 116.71V123.106C412.492 123.757 412.524 124.27 412.589 124.645C412.671 125.019 412.793 125.304 412.956 125.499C413.135 125.678 413.371 125.792 413.664 125.841C413.957 125.89 414.331 125.914 414.787 125.914V126.5H407.389V125.914H407.682C408.17 125.914 408.553 125.873 408.83 125.792C409.123 125.694 409.334 125.54 409.464 125.328C409.611 125.117 409.7 124.832 409.733 124.474C409.782 124.099 409.806 123.644 409.806 123.106V116.979C409.806 115.595 409.627 114.602 409.269 114C408.927 113.398 408.333 113.097 407.487 113.097C406.168 113.097 404.875 113.805 403.605 115.221V123.106C403.605 123.741 403.621 124.246 403.654 124.62C403.703 124.978 403.808 125.255 403.971 125.45C404.134 125.646 404.378 125.776 404.704 125.841C405.029 125.89 405.477 125.914 406.046 125.914V126.5H398.625V125.914H398.942C399.333 125.914 399.65 125.873 399.894 125.792C400.154 125.694 400.358 125.54 400.504 125.328C400.651 125.117 400.749 124.832 400.797 124.474C400.862 124.099 400.895 123.644 400.895 123.106V117.564C400.895 116.49 400.879 115.66 400.846 115.074C400.814 114.488 400.749 114.065 400.651 113.805C400.57 113.528 400.447 113.365 400.285 113.316C400.138 113.268 399.951 113.243 399.723 113.243C399.56 113.243 399.39 113.268 399.21 113.316C399.048 113.349 398.852 113.406 398.625 113.487L398.38 112.901L402.897 111.07H403.605V114.244ZM420.329 106.603V111.51H423.82V112.657H420.329V122.374C420.329 122.862 420.361 123.269 420.426 123.595C420.508 123.92 420.613 124.173 420.744 124.352C420.89 124.531 421.053 124.661 421.232 124.742C421.411 124.807 421.606 124.84 421.818 124.84C422.192 124.84 422.542 124.734 422.868 124.522C423.21 124.295 423.47 123.961 423.649 123.521H424.284C423.909 124.596 423.372 125.401 422.672 125.938C421.973 126.476 421.248 126.744 420.5 126.744C419.637 126.744 418.945 126.443 418.424 125.841C417.904 125.239 417.643 124.205 417.643 122.74V112.657H415.251V112.12C416.178 111.762 417.008 111.152 417.741 110.289C418.489 109.41 419.181 108.181 419.816 106.603H420.329ZM427.824 117.149C427.824 118.272 427.97 119.273 428.263 120.152C428.572 121.031 428.971 121.78 429.46 122.398C429.964 123.017 430.542 123.489 431.193 123.814C431.86 124.14 432.56 124.303 433.293 124.303C434.269 124.303 435.115 124.034 435.832 123.497C436.564 122.96 437.174 122.032 437.663 120.714L438.175 121.031C438.061 121.764 437.834 122.488 437.492 123.204C437.15 123.904 436.71 124.539 436.173 125.108C435.653 125.662 435.042 126.109 434.342 126.451C433.642 126.793 432.877 126.964 432.047 126.964C431.152 126.964 430.306 126.785 429.508 126.427C428.727 126.052 428.035 125.532 427.433 124.864C426.847 124.181 426.375 123.367 426.017 122.423C425.675 121.463 425.504 120.388 425.504 119.2C425.504 117.914 425.683 116.767 426.042 115.758C426.4 114.749 426.888 113.894 427.506 113.194C428.125 112.494 428.849 111.965 429.679 111.607C430.526 111.249 431.437 111.07 432.414 111.07C433.244 111.07 434.009 111.217 434.709 111.51C435.408 111.786 436.011 112.193 436.515 112.73C437.036 113.251 437.443 113.886 437.736 114.635C438.029 115.383 438.175 116.222 438.175 117.149H427.824ZM427.824 116.222H434.757C434.676 114.838 434.342 113.829 433.756 113.194C433.187 112.543 432.438 112.218 431.51 112.218C431.071 112.218 430.64 112.307 430.216 112.486C429.793 112.665 429.411 112.926 429.069 113.268C428.743 113.609 428.467 114.033 428.239 114.537C428.011 115.025 427.873 115.587 427.824 116.222ZM444.572 111.07V114.439C445.841 112.193 447.135 111.07 448.454 111.07C448.747 111.07 449.015 111.119 449.259 111.217C449.52 111.314 449.739 111.453 449.918 111.632C450.114 111.795 450.26 111.99 450.358 112.218C450.472 112.429 450.529 112.657 450.529 112.901C450.529 113.325 450.382 113.683 450.089 113.976C449.813 114.269 449.479 114.415 449.088 114.415C448.909 114.415 448.698 114.358 448.454 114.244C448.226 114.13 447.998 114 447.77 113.854C447.558 113.707 447.355 113.577 447.16 113.463C446.981 113.349 446.842 113.292 446.745 113.292C446.452 113.292 446.11 113.528 445.719 114C445.329 114.472 444.946 115.074 444.572 115.807V123.009C444.572 123.448 444.596 123.847 444.645 124.205C444.71 124.563 444.832 124.872 445.011 125.133C445.19 125.377 445.451 125.572 445.793 125.719C446.151 125.849 446.623 125.914 447.209 125.914V126.5H439.518V125.914C440.006 125.914 440.397 125.882 440.69 125.816C440.999 125.751 441.243 125.621 441.422 125.426C441.601 125.23 441.724 124.954 441.789 124.596C441.854 124.221 441.886 123.733 441.886 123.131V117.32C441.886 116.441 441.87 115.75 441.837 115.245C441.821 114.741 441.797 114.399 441.764 114.22C441.601 113.569 441.235 113.243 440.666 113.243C440.487 113.243 440.307 113.268 440.128 113.316C439.949 113.349 439.746 113.406 439.518 113.487L439.372 112.901L443.888 111.07H444.572ZM455.753 114.244C457.495 112.128 459.163 111.07 460.758 111.07C461.312 111.07 461.824 111.168 462.296 111.363C462.768 111.542 463.175 111.852 463.517 112.291C463.875 112.714 464.152 113.292 464.347 114.024C464.543 114.741 464.64 115.636 464.64 116.71V123.106C464.64 123.757 464.673 124.27 464.738 124.645C464.819 125.019 464.941 125.304 465.104 125.499C465.283 125.678 465.519 125.792 465.812 125.841C466.105 125.89 466.479 125.914 466.935 125.914V126.5H459.538V125.914H459.831C460.319 125.914 460.701 125.873 460.978 125.792C461.271 125.694 461.483 125.54 461.613 125.328C461.759 125.117 461.849 124.832 461.881 124.474C461.93 124.099 461.955 123.644 461.955 123.106V116.979C461.955 115.595 461.776 114.602 461.418 114C461.076 113.398 460.482 113.097 459.635 113.097C458.317 113.097 457.023 113.805 455.753 115.221V123.106C455.753 123.741 455.77 124.246 455.802 124.62C455.851 124.978 455.957 125.255 456.12 125.45C456.282 125.646 456.527 125.776 456.852 125.841C457.178 125.89 457.625 125.914 458.195 125.914V126.5H450.773V125.914H451.09C451.481 125.914 451.798 125.873 452.043 125.792C452.303 125.694 452.506 125.54 452.653 125.328C452.799 125.117 452.897 124.832 452.946 124.474C453.011 124.099 453.043 123.644 453.043 123.106V117.564C453.043 116.49 453.027 115.66 452.995 115.074C452.962 114.488 452.897 114.065 452.799 113.805C452.718 113.528 452.596 113.365 452.433 113.316C452.287 113.268 452.099 113.243 451.872 113.243C451.709 113.243 451.538 113.268 451.359 113.316C451.196 113.349 451.001 113.406 450.773 113.487L450.529 112.901L455.045 111.07H455.753V114.244ZM470.646 117.149C470.646 118.272 470.793 119.273 471.085 120.152C471.395 121.031 471.793 121.78 472.282 122.398C472.786 123.017 473.364 123.489 474.015 123.814C474.682 124.14 475.382 124.303 476.115 124.303C477.091 124.303 477.938 124.034 478.654 123.497C479.386 122.96 479.997 122.032 480.485 120.714L480.998 121.031C480.884 121.764 480.656 122.488 480.314 123.204C479.972 123.904 479.533 124.539 478.996 125.108C478.475 125.662 477.864 126.109 477.165 126.451C476.465 126.793 475.7 126.964 474.87 126.964C473.974 126.964 473.128 126.785 472.331 126.427C471.549 126.052 470.858 125.532 470.255 124.864C469.669 124.181 469.197 123.367 468.839 122.423C468.498 121.463 468.327 120.388 468.327 119.2C468.327 117.914 468.506 116.767 468.864 115.758C469.222 114.749 469.71 113.894 470.329 113.194C470.947 112.494 471.671 111.965 472.501 111.607C473.348 111.249 474.259 111.07 475.236 111.07C476.066 111.07 476.831 111.217 477.531 111.51C478.231 111.786 478.833 112.193 479.337 112.73C479.858 113.251 480.265 113.886 480.558 114.635C480.851 115.383 480.998 116.222 480.998 117.149H470.646ZM470.646 116.222H477.58C477.498 114.838 477.165 113.829 476.579 113.194C476.009 112.543 475.26 112.218 474.333 112.218C473.893 112.218 473.462 112.307 473.039 112.486C472.615 112.665 472.233 112.926 471.891 113.268C471.566 113.609 471.289 114.033 471.061 114.537C470.833 115.025 470.695 115.587 470.646 116.222ZM487.37 106.603V111.51H490.861V112.657H487.37V122.374C487.37 122.862 487.402 123.269 487.467 123.595C487.549 123.92 487.654 124.173 487.785 124.352C487.931 124.531 488.094 124.661 488.273 124.742C488.452 124.807 488.647 124.84 488.859 124.84C489.233 124.84 489.583 124.734 489.909 124.522C490.251 124.295 490.511 123.961 490.69 123.521H491.325C490.95 124.596 490.413 125.401 489.713 125.938C489.014 126.476 488.289 126.744 487.541 126.744C486.678 126.744 485.986 126.443 485.465 125.841C484.945 125.239 484.684 124.205 484.684 122.74V112.657H482.292V112.12C483.219 111.762 484.049 111.152 484.782 110.289C485.53 109.41 486.222 108.181 486.857 106.603H487.37ZM513.468 120.812C513.273 121.804 512.964 122.683 512.541 123.448C512.134 124.213 511.645 124.856 511.076 125.377C510.522 125.898 509.912 126.288 509.245 126.549C508.577 126.826 507.894 126.964 507.194 126.964C506.364 126.964 505.566 126.777 504.801 126.402C504.036 126.028 503.361 125.499 502.775 124.815C502.189 124.132 501.717 123.302 501.359 122.325C501.017 121.349 500.846 120.25 500.846 119.029C500.846 117.857 501.033 116.783 501.408 115.807C501.798 114.83 502.319 113.992 502.97 113.292C503.621 112.592 504.378 112.047 505.241 111.656C506.103 111.266 507.023 111.07 508 111.07C508.732 111.07 509.399 111.184 510.001 111.412C510.62 111.624 511.157 111.909 511.613 112.267C512.069 112.608 512.418 112.999 512.663 113.438C512.923 113.862 513.053 114.277 513.053 114.684C513.053 115.107 512.915 115.449 512.638 115.709C512.378 115.953 512.003 116.075 511.515 116.075C511.011 116.075 510.596 115.953 510.27 115.709C509.945 115.449 509.749 114.92 509.684 114.122C509.554 112.82 508.813 112.169 507.462 112.169C506.811 112.169 506.234 112.315 505.729 112.608C505.241 112.901 504.826 113.3 504.484 113.805C504.158 114.293 503.906 114.871 503.727 115.538C503.564 116.189 503.483 116.881 503.483 117.613C503.483 118.476 503.589 119.314 503.8 120.128C504.028 120.942 504.354 121.666 504.777 122.301C505.2 122.936 505.713 123.448 506.315 123.839C506.917 124.213 507.601 124.4 508.366 124.4C508.821 124.4 509.253 124.343 509.66 124.229C510.083 124.116 510.482 123.92 510.856 123.644C511.247 123.351 511.613 122.96 511.955 122.472C512.313 121.967 512.663 121.332 513.004 120.567L513.468 120.812ZM524.137 124.352C523.356 124.938 522.721 125.41 522.233 125.768C521.761 126.109 521.427 126.321 521.232 126.402C520.63 126.679 520.003 126.817 519.352 126.817C518.831 126.817 518.351 126.72 517.912 126.524C517.488 126.345 517.114 126.093 516.789 125.768C516.479 125.426 516.235 125.019 516.056 124.547C515.877 124.075 515.788 123.546 515.788 122.96C515.788 122.276 515.918 121.666 516.178 121.129C516.455 120.592 516.87 120.104 517.423 119.664C517.993 119.208 518.725 118.793 519.621 118.419C521.02 117.768 522.526 117.149 524.137 116.563V115.978C524.137 115.229 524.072 114.602 523.942 114.098C523.828 113.593 523.649 113.194 523.405 112.901C523.161 112.592 522.868 112.381 522.526 112.267C522.184 112.136 521.793 112.071 521.354 112.071C520.654 112.071 520.101 112.258 519.694 112.633C519.287 113.007 519.084 113.43 519.084 113.902L519.132 114.854C519.132 115.359 519.002 115.75 518.742 116.026C518.498 116.287 518.164 116.417 517.741 116.417C517.334 116.417 517 116.279 516.74 116.002C516.479 115.709 516.349 115.318 516.349 114.83C516.349 114.374 516.471 113.927 516.715 113.487C516.96 113.032 517.318 112.625 517.79 112.267C518.262 111.909 518.831 111.624 519.499 111.412C520.182 111.184 520.963 111.07 521.842 111.07C522.998 111.07 523.974 111.241 524.772 111.583C525.586 111.925 526.172 112.511 526.53 113.341C526.725 113.813 526.823 114.773 526.823 116.222V121.3C526.823 122.162 526.831 122.83 526.847 123.302C526.88 123.757 526.929 124.091 526.994 124.303C527.059 124.514 527.14 124.645 527.238 124.693C527.335 124.726 527.458 124.742 527.604 124.742C527.718 124.742 527.824 124.726 527.921 124.693C528.019 124.661 528.133 124.596 528.263 124.498C528.393 124.4 528.54 124.27 528.703 124.107C528.882 123.928 529.11 123.701 529.386 123.424V124.352C528.166 125.979 527.002 126.793 525.895 126.793C525.374 126.793 524.951 126.614 524.626 126.256C524.3 125.882 524.137 125.247 524.137 124.352ZM524.137 123.277V117.564C522.998 118.02 521.696 118.606 520.231 119.322C519.694 119.599 519.271 119.99 518.961 120.494C518.668 120.999 518.522 121.56 518.522 122.179C518.522 122.569 518.587 122.936 518.717 123.277C518.848 123.603 519.018 123.888 519.23 124.132C519.442 124.376 519.686 124.571 519.962 124.718C520.255 124.848 520.557 124.913 520.866 124.913C521.696 124.913 522.786 124.368 524.137 123.277ZM536.393 112.706V122.545C536.393 123.326 536.442 123.945 536.54 124.4C536.654 124.856 536.8 125.198 536.979 125.426C537.174 125.637 537.394 125.776 537.638 125.841C537.899 125.89 538.175 125.914 538.468 125.914H539.811V126.5H530.876V125.914H531.535C531.925 125.914 532.251 125.865 532.511 125.768C532.788 125.654 533.008 125.466 533.17 125.206C533.349 124.946 533.48 124.604 533.561 124.181C533.642 123.741 533.683 123.196 533.683 122.545V112.706H530.778V111.51H533.683V110.533C533.683 109.459 533.83 108.482 534.123 107.604C534.416 106.708 534.831 105.943 535.368 105.309C535.905 104.658 536.556 104.161 537.321 103.819C538.102 103.461 538.973 103.282 539.933 103.282C540.356 103.282 540.804 103.355 541.276 103.502C541.764 103.632 542.212 103.819 542.619 104.063C543.026 104.308 543.359 104.601 543.62 104.942C543.896 105.284 544.035 105.65 544.035 106.041C544.035 106.367 543.896 106.676 543.62 106.969C543.343 107.245 543.034 107.384 542.692 107.384C542.562 107.384 542.432 107.368 542.301 107.335C542.187 107.302 542.057 107.237 541.911 107.14C541.764 107.042 541.61 106.904 541.447 106.725C541.284 106.529 541.097 106.277 540.885 105.968C540.462 105.366 540.088 104.967 539.762 104.771C539.437 104.56 539.062 104.454 538.639 104.454C538.135 104.454 537.703 104.592 537.345 104.869C537.003 105.13 536.759 105.545 536.613 106.114C536.466 106.651 536.393 108.092 536.393 110.436V111.51H540.251V112.706H536.393ZM544.23 117.149C544.23 118.272 544.376 119.273 544.669 120.152C544.979 121.031 545.377 121.78 545.866 122.398C546.37 123.017 546.948 123.489 547.599 123.814C548.266 124.14 548.966 124.303 549.699 124.303C550.675 124.303 551.522 124.034 552.238 123.497C552.97 122.96 553.581 122.032 554.069 120.714L554.582 121.031C554.468 121.764 554.24 122.488 553.898 123.204C553.556 123.904 553.117 124.539 552.58 125.108C552.059 125.662 551.448 126.109 550.749 126.451C550.049 126.793 549.284 126.964 548.454 126.964C547.558 126.964 546.712 126.785 545.915 126.427C545.133 126.052 544.442 125.532 543.839 124.864C543.253 124.181 542.781 123.367 542.423 122.423C542.082 121.463 541.911 120.388 541.911 119.2C541.911 117.914 542.09 116.767 542.448 115.758C542.806 114.749 543.294 113.894 543.913 113.194C544.531 112.494 545.255 111.965 546.085 111.607C546.932 111.249 547.843 111.07 548.82 111.07C549.65 111.07 550.415 111.217 551.115 111.51C551.815 111.786 552.417 112.193 552.921 112.73C553.442 113.251 553.849 113.886 554.142 114.635C554.435 115.383 554.582 116.222 554.582 117.149H544.23ZM544.23 116.222H551.164C551.082 114.838 550.749 113.829 550.163 113.194C549.593 112.543 548.844 112.218 547.917 112.218C547.477 112.218 547.046 112.307 546.623 112.486C546.199 112.665 545.817 112.926 545.475 113.268C545.15 113.609 544.873 114.033 544.645 114.537C544.417 115.025 544.279 115.587 544.23 116.222ZM573.356 103.233L565.324 126.964H564.005L572.038 103.233H573.356ZM587.052 120.812C586.857 121.804 586.548 122.683 586.125 123.448C585.718 124.213 585.229 124.856 584.66 125.377C584.106 125.898 583.496 126.288 582.829 126.549C582.161 126.826 581.478 126.964 580.778 126.964C579.948 126.964 579.15 126.777 578.385 126.402C577.62 126.028 576.945 125.499 576.359 124.815C575.773 124.132 575.301 123.302 574.943 122.325C574.601 121.349 574.43 120.25 574.43 119.029C574.43 117.857 574.617 116.783 574.992 115.807C575.382 114.83 575.903 113.992 576.554 113.292C577.205 112.592 577.962 112.047 578.825 111.656C579.687 111.266 580.607 111.07 581.584 111.07C582.316 111.07 582.983 111.184 583.585 111.412C584.204 111.624 584.741 111.909 585.197 112.267C585.653 112.608 586.002 112.999 586.247 113.438C586.507 113.862 586.637 114.277 586.637 114.684C586.637 115.107 586.499 115.449 586.222 115.709C585.962 115.953 585.587 116.075 585.099 116.075C584.595 116.075 584.18 115.953 583.854 115.709C583.529 115.449 583.333 114.92 583.268 114.122C583.138 112.82 582.397 112.169 581.046 112.169C580.395 112.169 579.818 112.315 579.313 112.608C578.825 112.901 578.41 113.3 578.068 113.805C577.742 114.293 577.49 114.871 577.311 115.538C577.148 116.189 577.067 116.881 577.067 117.613C577.067 118.476 577.173 119.314 577.384 120.128C577.612 120.942 577.938 121.666 578.361 122.301C578.784 122.936 579.297 123.448 579.899 123.839C580.501 124.213 581.185 124.4 581.95 124.4C582.405 124.4 582.837 124.343 583.244 124.229C583.667 124.116 584.066 123.92 584.44 123.644C584.831 123.351 585.197 122.96 585.539 122.472C585.897 121.967 586.247 121.332 586.588 120.567L587.052 120.812ZM596.549 111.07C597.591 111.07 598.551 111.274 599.43 111.681C600.309 112.088 601.066 112.641 601.701 113.341C602.352 114.024 602.856 114.838 603.214 115.782C603.589 116.71 603.776 117.695 603.776 118.736C603.776 119.957 603.572 121.072 603.166 122.081C602.775 123.09 602.238 123.961 601.554 124.693C600.871 125.41 600.081 125.971 599.186 126.378C598.291 126.769 597.355 126.964 596.378 126.964C595.353 126.964 594.401 126.752 593.522 126.329C592.659 125.906 591.911 125.336 591.276 124.62C590.657 123.904 590.169 123.074 589.811 122.13C589.469 121.186 589.298 120.193 589.298 119.151C589.298 118.077 589.486 117.06 589.86 116.1C590.234 115.123 590.747 114.26 591.398 113.512C592.049 112.763 592.814 112.169 593.693 111.729C594.572 111.29 595.524 111.07 596.549 111.07ZM596.037 112.145C595.565 112.145 595.109 112.25 594.669 112.462C594.23 112.657 593.839 112.983 593.498 113.438C593.156 113.878 592.879 114.456 592.668 115.172C592.456 115.888 592.35 116.759 592.35 117.784C592.35 118.842 592.456 119.859 592.668 120.836C592.895 121.796 593.213 122.643 593.62 123.375C594.027 124.107 594.523 124.693 595.109 125.133C595.695 125.572 596.346 125.792 597.062 125.792C597.583 125.792 598.063 125.694 598.502 125.499C598.958 125.287 599.349 124.954 599.674 124.498C600 124.042 600.252 123.448 600.431 122.716C600.626 121.967 600.724 121.056 600.724 119.981C600.724 118.907 600.618 117.898 600.407 116.954C600.195 115.994 599.886 115.164 599.479 114.464C599.088 113.748 598.6 113.186 598.014 112.779C597.445 112.356 596.785 112.145 596.037 112.145ZM611.833 112.706V122.545C611.833 123.326 611.881 123.945 611.979 124.4C612.093 124.856 612.239 125.198 612.418 125.426C612.614 125.637 612.834 125.776 613.078 125.841C613.338 125.89 613.615 125.914 613.908 125.914H615.251V126.5H606.315V125.914H606.974C607.365 125.914 607.69 125.865 607.951 125.768C608.227 125.654 608.447 125.466 608.61 125.206C608.789 124.946 608.919 124.604 609.001 124.181C609.082 123.741 609.123 123.196 609.123 122.545V112.706H606.217V111.51H609.123V110.533C609.123 109.459 609.269 108.482 609.562 107.604C609.855 106.708 610.27 105.943 610.807 105.309C611.344 104.658 611.995 104.161 612.76 103.819C613.542 103.461 614.412 103.282 615.373 103.282C615.796 103.282 616.243 103.355 616.715 103.502C617.204 103.632 617.651 103.819 618.058 104.063C618.465 104.308 618.799 104.601 619.059 104.942C619.336 105.284 619.474 105.65 619.474 106.041C619.474 106.367 619.336 106.676 619.059 106.969C618.782 107.245 618.473 107.384 618.131 107.384C618.001 107.384 617.871 107.368 617.741 107.335C617.627 107.302 617.497 107.237 617.35 107.14C617.204 107.042 617.049 106.904 616.886 106.725C616.724 106.529 616.536 106.277 616.325 105.968C615.902 105.366 615.527 104.967 615.202 104.771C614.876 104.56 614.502 104.454 614.079 104.454C613.574 104.454 613.143 104.592 612.785 104.869C612.443 105.13 612.199 105.545 612.052 106.114C611.906 106.651 611.833 108.092 611.833 110.436V111.51H615.69V112.706H611.833ZM623.014 112.706V122.545C623.014 123.326 623.063 123.945 623.161 124.4C623.275 124.856 623.421 125.198 623.6 125.426C623.795 125.637 624.015 125.776 624.259 125.841C624.52 125.89 624.796 125.914 625.089 125.914H626.432V126.5H617.497V125.914H618.156C618.546 125.914 618.872 125.865 619.132 125.768C619.409 125.654 619.629 125.466 619.792 125.206C619.971 124.946 620.101 124.604 620.182 124.181C620.264 123.741 620.304 123.196 620.304 122.545V112.706H617.399V111.51H620.304V110.533C620.304 109.459 620.451 108.482 620.744 107.604C621.037 106.708 621.452 105.943 621.989 105.309C622.526 104.658 623.177 104.161 623.942 103.819C624.723 103.461 625.594 103.282 626.554 103.282C626.977 103.282 627.425 103.355 627.897 103.502C628.385 103.632 628.833 103.819 629.24 104.063C629.647 104.308 629.98 104.601 630.241 104.942C630.517 105.284 630.656 105.65 630.656 106.041C630.656 106.367 630.517 106.676 630.241 106.969C629.964 107.245 629.655 107.384 629.313 107.384C629.183 107.384 629.053 107.368 628.922 107.335C628.808 107.302 628.678 107.237 628.532 107.14C628.385 107.042 628.231 106.904 628.068 106.725C627.905 106.529 627.718 106.277 627.506 105.968C627.083 105.366 626.709 104.967 626.383 104.771C626.058 104.56 625.683 104.454 625.26 104.454C624.756 104.454 624.324 104.592 623.966 104.869C623.625 105.13 623.38 105.545 623.234 106.114C623.087 106.651 623.014 108.092 623.014 110.436V111.51H626.872V112.706H623.014ZM630.851 117.149C630.851 118.272 630.998 119.273 631.291 120.152C631.6 121.031 631.999 121.78 632.487 122.398C632.991 123.017 633.569 123.489 634.22 123.814C634.888 124.14 635.587 124.303 636.32 124.303C637.296 124.303 638.143 124.034 638.859 123.497C639.591 122.96 640.202 122.032 640.69 120.714L641.203 121.031C641.089 121.764 640.861 122.488 640.519 123.204C640.177 123.904 639.738 124.539 639.201 125.108C638.68 125.662 638.07 126.109 637.37 126.451C636.67 126.793 635.905 126.964 635.075 126.964C634.18 126.964 633.333 126.785 632.536 126.427C631.754 126.052 631.063 125.532 630.46 124.864C629.875 124.181 629.403 123.367 629.044 122.423C628.703 121.463 628.532 120.388 628.532 119.2C628.532 117.914 628.711 116.767 629.069 115.758C629.427 114.749 629.915 113.894 630.534 113.194C631.152 112.494 631.876 111.965 632.707 111.607C633.553 111.249 634.464 111.07 635.441 111.07C636.271 111.07 637.036 111.217 637.736 111.51C638.436 111.786 639.038 112.193 639.543 112.73C640.063 113.251 640.47 113.886 640.763 114.635C641.056 115.383 641.203 116.222 641.203 117.149H630.851ZM630.851 116.222H637.785C637.703 114.838 637.37 113.829 636.784 113.194C636.214 112.543 635.465 112.218 634.538 112.218C634.098 112.218 633.667 112.307 633.244 112.486C632.821 112.665 632.438 112.926 632.096 113.268C631.771 113.609 631.494 114.033 631.266 114.537C631.038 115.025 630.9 115.587 630.851 116.222ZM645.744 117.149C645.744 118.272 645.89 119.273 646.183 120.152C646.492 121.031 646.891 121.78 647.379 122.398C647.884 123.017 648.462 123.489 649.113 123.814C649.78 124.14 650.48 124.303 651.212 124.303C652.189 124.303 653.035 124.034 653.751 123.497C654.484 122.96 655.094 122.032 655.583 120.714L656.095 121.031C655.981 121.764 655.753 122.488 655.412 123.204C655.07 123.904 654.63 124.539 654.093 125.108C653.572 125.662 652.962 126.109 652.262 126.451C651.562 126.793 650.797 126.964 649.967 126.964C649.072 126.964 648.226 126.785 647.428 126.427C646.647 126.052 645.955 125.532 645.353 124.864C644.767 124.181 644.295 123.367 643.937 122.423C643.595 121.463 643.424 120.388 643.424 119.2C643.424 117.914 643.603 116.767 643.961 115.758C644.32 114.749 644.808 113.894 645.426 113.194C646.045 112.494 646.769 111.965 647.599 111.607C648.446 111.249 649.357 111.07 650.334 111.07C651.164 111.07 651.929 111.217 652.628 111.51C653.328 111.786 653.931 112.193 654.435 112.73C654.956 113.251 655.363 113.886 655.656 114.635C655.949 115.383 656.095 116.222 656.095 117.149H645.744ZM645.744 116.222H652.677C652.596 114.838 652.262 113.829 651.676 113.194C651.107 112.543 650.358 112.218 649.43 112.218C648.991 112.218 648.559 112.307 648.136 112.486C647.713 112.665 647.331 112.926 646.989 113.268C646.663 113.609 646.387 114.033 646.159 114.537C645.931 115.025 645.793 115.587 645.744 116.222ZM667.814 111.07V116.173H667.252C667.057 115.375 666.821 114.708 666.544 114.171C666.284 113.634 665.991 113.211 665.666 112.901C665.34 112.592 664.966 112.372 664.543 112.242C664.136 112.112 663.688 112.047 663.2 112.047C662.809 112.047 662.459 112.104 662.15 112.218C661.841 112.332 661.572 112.478 661.344 112.657C661.116 112.836 660.937 113.04 660.807 113.268C660.693 113.495 660.636 113.731 660.636 113.976C660.636 114.285 660.669 114.57 660.734 114.83C660.815 115.09 660.954 115.335 661.149 115.562C661.344 115.79 661.605 116.018 661.93 116.246C662.272 116.474 662.703 116.718 663.224 116.979L665.617 118.15C667.83 119.225 668.937 120.649 668.937 122.423C668.937 123.106 668.791 123.733 668.498 124.303C668.221 124.856 667.847 125.328 667.375 125.719C666.903 126.109 666.365 126.41 665.763 126.622C665.161 126.85 664.551 126.964 663.932 126.964C663.46 126.964 662.964 126.923 662.443 126.842C661.922 126.777 661.369 126.655 660.783 126.476C660.604 126.427 660.441 126.386 660.294 126.354C660.148 126.321 660.018 126.305 659.904 126.305C659.66 126.305 659.464 126.443 659.318 126.72H658.781V121.373H659.318C659.464 122.138 659.692 122.813 660.001 123.399C660.311 123.969 660.669 124.449 661.076 124.84C661.483 125.214 661.93 125.499 662.418 125.694C662.923 125.89 663.436 125.987 663.957 125.987C664.331 125.987 664.673 125.93 664.982 125.816C665.291 125.702 665.56 125.548 665.788 125.353C666.015 125.141 666.195 124.897 666.325 124.62C666.455 124.343 666.52 124.05 666.52 123.741C666.52 123.367 666.463 123.033 666.349 122.74C666.235 122.431 666.032 122.138 665.739 121.861C665.446 121.568 665.039 121.267 664.518 120.958C664.014 120.649 663.354 120.291 662.541 119.884C661.743 119.493 661.092 119.127 660.587 118.785C660.099 118.443 659.709 118.102 659.416 117.76C659.139 117.418 658.952 117.06 658.854 116.686C658.756 116.311 658.708 115.888 658.708 115.416C658.708 114.798 658.813 114.228 659.025 113.707C659.253 113.17 659.57 112.706 659.977 112.315C660.384 111.925 660.864 111.624 661.418 111.412C661.971 111.184 662.581 111.07 663.249 111.07C663.46 111.07 663.729 111.103 664.054 111.168C664.38 111.233 664.705 111.306 665.031 111.388C665.373 111.469 665.682 111.542 665.959 111.607C666.235 111.673 666.422 111.705 666.52 111.705C666.699 111.705 666.829 111.673 666.911 111.607C667.008 111.526 667.122 111.347 667.252 111.07H667.814ZM671.916 132.066V131.358C673.039 130.984 673.901 130.406 674.503 129.625C675.122 128.844 675.431 128.022 675.431 127.159C675.431 126.98 675.39 126.817 675.309 126.671C675.244 126.541 675.163 126.476 675.065 126.476C674.984 126.476 674.805 126.557 674.528 126.72C674.251 126.882 673.958 126.964 673.649 126.964C673.128 126.964 672.705 126.809 672.379 126.5C672.07 126.174 671.916 125.735 671.916 125.182C671.916 124.921 671.973 124.669 672.086 124.425C672.2 124.181 672.347 123.977 672.526 123.814C672.721 123.635 672.941 123.497 673.185 123.399C673.446 123.285 673.722 123.229 674.015 123.229C674.373 123.229 674.715 123.31 675.041 123.473C675.366 123.635 675.659 123.871 675.919 124.181C676.18 124.474 676.383 124.832 676.53 125.255C676.693 125.678 676.774 126.15 676.774 126.671C676.774 127.794 676.383 128.836 675.602 129.796C674.837 130.756 673.608 131.513 671.916 132.066ZM698.527 124.815C697.794 125.58 697.078 126.134 696.378 126.476C695.695 126.801 694.946 126.964 694.132 126.964C693.319 126.964 692.545 126.785 691.813 126.427C691.081 126.052 690.43 125.54 689.86 124.889C689.307 124.238 688.859 123.465 688.517 122.569C688.192 121.674 688.029 120.698 688.029 119.64C688.029 118.598 688.2 117.573 688.542 116.563C688.9 115.538 689.396 114.618 690.031 113.805C690.666 112.991 691.422 112.332 692.301 111.827C693.196 111.323 694.181 111.07 695.255 111.07C696.574 111.07 697.664 111.485 698.527 112.315V109.557C698.527 108.515 698.502 107.717 698.454 107.164C698.421 106.594 698.364 106.179 698.283 105.919C698.201 105.659 698.079 105.504 697.917 105.455C697.77 105.406 697.591 105.382 697.379 105.382C697.054 105.382 696.68 105.471 696.256 105.65L696.037 105.064L700.504 103.233H701.237V120.567C701.237 121.609 701.253 122.415 701.286 122.984C701.318 123.554 701.375 123.977 701.457 124.254C701.554 124.514 701.676 124.677 701.823 124.742C701.969 124.791 702.156 124.815 702.384 124.815C702.661 124.815 703.052 124.726 703.556 124.547L703.727 125.108L699.284 126.964H698.527V124.815ZM698.527 123.668V115.953C698.478 115.335 698.34 114.789 698.112 114.317C697.9 113.829 697.632 113.422 697.306 113.097C696.981 112.755 696.623 112.503 696.232 112.34C695.841 112.161 695.451 112.071 695.06 112.071C694.49 112.071 693.961 112.226 693.473 112.535C692.985 112.828 692.554 113.251 692.179 113.805C691.821 114.358 691.536 115.017 691.325 115.782C691.113 116.547 691.007 117.402 691.007 118.346C691.007 119.452 691.138 120.429 691.398 121.275C691.675 122.122 692.025 122.838 692.448 123.424C692.887 123.993 693.384 124.425 693.937 124.718C694.49 125.011 695.06 125.157 695.646 125.157C696.639 125.157 697.599 124.661 698.527 123.668ZM709.074 111.07V114.439C710.343 112.193 711.637 111.07 712.956 111.07C713.249 111.07 713.517 111.119 713.761 111.217C714.022 111.314 714.241 111.453 714.42 111.632C714.616 111.795 714.762 111.99 714.86 112.218C714.974 112.429 715.031 112.657 715.031 112.901C715.031 113.325 714.884 113.683 714.591 113.976C714.315 114.269 713.981 114.415 713.59 114.415C713.411 114.415 713.2 114.358 712.956 114.244C712.728 114.13 712.5 114 712.272 113.854C712.06 113.707 711.857 113.577 711.662 113.463C711.483 113.349 711.344 113.292 711.247 113.292C710.954 113.292 710.612 113.528 710.221 114C709.831 114.472 709.448 115.074 709.074 115.807V123.009C709.074 123.448 709.098 123.847 709.147 124.205C709.212 124.563 709.334 124.872 709.513 125.133C709.692 125.377 709.953 125.572 710.294 125.719C710.653 125.849 711.125 125.914 711.71 125.914V126.5H704.02V125.914C704.508 125.914 704.899 125.882 705.192 125.816C705.501 125.751 705.745 125.621 705.924 125.426C706.103 125.23 706.225 124.954 706.291 124.596C706.356 124.221 706.388 123.733 706.388 123.131V117.32C706.388 116.441 706.372 115.75 706.339 115.245C706.323 114.741 706.299 114.399 706.266 114.22C706.103 113.569 705.737 113.243 705.168 113.243C704.988 113.243 704.809 113.268 704.63 113.316C704.451 113.349 704.248 113.406 704.02 113.487L703.874 112.901L708.39 111.07H709.074ZM721.061 111.07V123.106C721.061 123.823 721.102 124.376 721.183 124.767C721.265 125.141 721.395 125.418 721.574 125.597C721.769 125.759 722.005 125.857 722.282 125.89C722.575 125.906 722.925 125.914 723.332 125.914V126.5H716.056V125.914C716.561 125.914 716.96 125.882 717.252 125.816C717.562 125.735 717.798 125.589 717.96 125.377C718.123 125.165 718.221 124.881 718.253 124.522C718.302 124.148 718.327 123.676 718.327 123.106V117.345C718.327 116.401 718.31 115.652 718.278 115.099C718.245 114.545 718.188 114.138 718.107 113.878C718.026 113.601 717.904 113.43 717.741 113.365C717.594 113.284 717.399 113.243 717.155 113.243C716.992 113.243 716.821 113.268 716.642 113.316C716.479 113.349 716.284 113.406 716.056 113.487L715.812 112.901L720.329 111.07H721.061ZM719.694 103.233C720.166 103.233 720.557 103.396 720.866 103.722C721.191 104.031 721.354 104.422 721.354 104.894C721.354 105.349 721.191 105.74 720.866 106.065C720.557 106.391 720.166 106.554 719.694 106.554C719.222 106.554 718.823 106.391 718.498 106.065C718.188 105.74 718.034 105.349 718.034 104.894C718.034 104.422 718.188 104.031 718.498 103.722C718.823 103.396 719.222 103.233 719.694 103.233ZM729.582 114.244C731.323 112.128 732.991 111.07 734.586 111.07C735.14 111.07 735.653 111.168 736.125 111.363C736.597 111.542 737.003 111.852 737.345 112.291C737.703 112.714 737.98 113.292 738.175 114.024C738.371 114.741 738.468 115.636 738.468 116.71V123.106C738.468 123.757 738.501 124.27 738.566 124.645C738.647 125.019 738.769 125.304 738.932 125.499C739.111 125.678 739.347 125.792 739.64 125.841C739.933 125.89 740.307 125.914 740.763 125.914V126.5H733.366V125.914H733.659C734.147 125.914 734.529 125.873 734.806 125.792C735.099 125.694 735.311 125.54 735.441 125.328C735.587 125.117 735.677 124.832 735.71 124.474C735.758 124.099 735.783 123.644 735.783 123.106V116.979C735.783 115.595 735.604 114.602 735.246 114C734.904 113.398 734.31 113.097 733.463 113.097C732.145 113.097 730.851 113.805 729.582 115.221V123.106C729.582 123.741 729.598 124.246 729.63 124.62C729.679 124.978 729.785 125.255 729.948 125.45C730.111 125.646 730.355 125.776 730.68 125.841C731.006 125.89 731.453 125.914 732.023 125.914V126.5H724.601V125.914H724.918C725.309 125.914 725.626 125.873 725.871 125.792C726.131 125.694 726.335 125.54 726.481 125.328C726.627 125.117 726.725 124.832 726.774 124.474C726.839 124.099 726.872 123.644 726.872 123.106V117.564C726.872 116.49 726.855 115.66 726.823 115.074C726.79 114.488 726.725 114.065 726.627 113.805C726.546 113.528 726.424 113.365 726.261 113.316C726.115 113.268 725.928 113.243 725.7 113.243C725.537 113.243 725.366 113.268 725.187 113.316C725.024 113.349 724.829 113.406 724.601 113.487L724.357 112.901L728.874 111.07H729.582V114.244ZM746.378 103.233V118.102L750.211 114.684C750.553 114.358 750.822 114.098 751.017 113.902C751.229 113.707 751.383 113.544 751.481 113.414C751.595 113.284 751.668 113.186 751.701 113.121C751.733 113.04 751.75 112.958 751.75 112.877C751.75 112.649 751.66 112.462 751.481 112.315C751.302 112.169 751.001 112.079 750.578 112.047V111.51H757.096V112.047C756.64 112.063 756.225 112.104 755.851 112.169C755.493 112.218 755.151 112.307 754.826 112.438C754.516 112.568 754.207 112.747 753.898 112.975C753.589 113.186 753.255 113.455 752.897 113.78L749.064 117.345L752.897 122.203C753.434 122.887 753.882 123.44 754.24 123.863C754.598 124.27 754.875 124.563 755.07 124.742C755.314 124.986 755.517 125.182 755.68 125.328C755.859 125.475 756.046 125.597 756.242 125.694C756.437 125.776 756.657 125.833 756.901 125.865C757.145 125.898 757.462 125.914 757.853 125.914V126.5H750.578V125.914C751.001 125.898 751.286 125.833 751.432 125.719C751.579 125.605 751.652 125.442 751.652 125.23C751.652 125.003 751.432 124.604 750.993 124.034L746.378 118.199V123.131C746.378 123.635 746.395 124.042 746.427 124.352C746.46 124.645 746.509 124.881 746.574 125.06C746.655 125.239 746.745 125.377 746.842 125.475C746.94 125.556 747.054 125.629 747.184 125.694C747.314 125.776 747.51 125.833 747.77 125.865C748.047 125.882 748.397 125.898 748.82 125.914V126.5H741.178V125.914C741.683 125.914 742.098 125.882 742.423 125.816C742.749 125.751 743.001 125.621 743.18 125.426C743.376 125.23 743.506 124.962 743.571 124.62C743.636 124.262 743.668 123.79 743.668 123.204V109.581C743.668 108.702 743.66 108.002 743.644 107.481C743.628 106.944 743.603 106.586 743.571 106.407C743.489 106 743.359 105.724 743.18 105.577C743.001 105.431 742.773 105.357 742.497 105.357C742.269 105.357 741.927 105.455 741.471 105.65L741.178 105.064L745.646 103.233H746.378ZM768.4 111.07V116.173H767.838C767.643 115.375 767.407 114.708 767.13 114.171C766.87 113.634 766.577 113.211 766.251 112.901C765.926 112.592 765.552 112.372 765.128 112.242C764.722 112.112 764.274 112.047 763.786 112.047C763.395 112.047 763.045 112.104 762.736 112.218C762.427 112.332 762.158 112.478 761.93 112.657C761.702 112.836 761.523 113.04 761.393 113.268C761.279 113.495 761.222 113.731 761.222 113.976C761.222 114.285 761.255 114.57 761.32 114.83C761.401 115.09 761.54 115.335 761.735 115.562C761.93 115.79 762.191 116.018 762.516 116.246C762.858 116.474 763.289 116.718 763.81 116.979L766.203 118.15C768.416 119.225 769.523 120.649 769.523 122.423C769.523 123.106 769.376 123.733 769.084 124.303C768.807 124.856 768.432 125.328 767.96 125.719C767.488 126.109 766.951 126.41 766.349 126.622C765.747 126.85 765.137 126.964 764.518 126.964C764.046 126.964 763.55 126.923 763.029 126.842C762.508 126.777 761.955 126.655 761.369 126.476C761.19 126.427 761.027 126.386 760.88 126.354C760.734 126.321 760.604 126.305 760.49 126.305C760.246 126.305 760.05 126.443 759.904 126.72H759.367V121.373H759.904C760.05 122.138 760.278 122.813 760.587 123.399C760.897 123.969 761.255 124.449 761.662 124.84C762.069 125.214 762.516 125.499 763.004 125.694C763.509 125.89 764.022 125.987 764.543 125.987C764.917 125.987 765.259 125.93 765.568 125.816C765.877 125.702 766.146 125.548 766.374 125.353C766.601 125.141 766.78 124.897 766.911 124.62C767.041 124.343 767.106 124.05 767.106 123.741C767.106 123.367 767.049 123.033 766.935 122.74C766.821 122.431 766.618 122.138 766.325 121.861C766.032 121.568 765.625 121.267 765.104 120.958C764.599 120.649 763.94 120.291 763.126 119.884C762.329 119.493 761.678 119.127 761.173 118.785C760.685 118.443 760.294 118.102 760.001 117.76C759.725 117.418 759.538 117.06 759.44 116.686C759.342 116.311 759.293 115.888 759.293 115.416C759.293 114.798 759.399 114.228 759.611 113.707C759.839 113.17 760.156 112.706 760.563 112.315C760.97 111.925 761.45 111.624 762.003 111.412C762.557 111.184 763.167 111.07 763.835 111.07C764.046 111.07 764.315 111.103 764.64 111.168C764.966 111.233 765.291 111.306 765.617 111.388C765.959 111.469 766.268 111.542 766.544 111.607C766.821 111.673 767.008 111.705 767.106 111.705C767.285 111.705 767.415 111.673 767.497 111.607C767.594 111.526 767.708 111.347 767.838 111.07H768.4ZM796.183 112.218H803.068V112.828C802.124 112.893 801.416 113.105 800.944 113.463C800.765 113.609 800.488 113.976 800.114 114.562C799.739 115.147 799.308 115.839 798.82 116.637C798.348 117.418 797.827 118.24 797.257 119.103C796.704 119.965 796.151 120.738 795.597 121.422C796.574 122.561 797.436 123.359 798.185 123.814C798.95 124.27 799.723 124.498 800.504 124.498C801.269 124.498 801.904 124.295 802.409 123.888C802.93 123.465 803.304 122.854 803.532 122.057L804.142 122.521C803.735 124.05 803.084 125.182 802.189 125.914C801.294 126.646 800.252 127.013 799.064 127.013C798.169 127.013 797.257 126.769 796.33 126.28C795.418 125.792 794.417 124.97 793.327 123.814C792.643 124.417 792.008 124.921 791.422 125.328C790.836 125.735 790.259 126.069 789.689 126.329C789.136 126.573 788.574 126.744 788.004 126.842C787.435 126.956 786.833 127.013 786.198 127.013C785.286 127.013 784.464 126.882 783.732 126.622C783.016 126.362 782.405 126.012 781.901 125.572C781.396 125.117 781.006 124.596 780.729 124.01C780.452 123.424 780.314 122.797 780.314 122.13C780.314 120.812 780.794 119.501 781.754 118.199C782.226 117.532 782.902 116.865 783.781 116.197C784.66 115.514 785.766 114.814 787.101 114.098C786.841 113.512 786.621 112.999 786.442 112.56C786.279 112.104 786.141 111.689 786.027 111.314C785.929 110.94 785.856 110.582 785.807 110.24C785.775 109.898 785.758 109.557 785.758 109.215C785.758 108.401 785.905 107.66 786.198 106.993C786.507 106.326 786.914 105.756 787.418 105.284C787.939 104.812 788.542 104.454 789.225 104.21C789.925 103.95 790.674 103.819 791.471 103.819C792.106 103.819 792.692 103.925 793.229 104.137C793.766 104.332 794.23 104.609 794.621 104.967C795.011 105.325 795.312 105.748 795.524 106.236C795.752 106.725 795.866 107.245 795.866 107.799C795.866 108.385 795.776 108.93 795.597 109.435C795.418 109.923 795.117 110.403 794.694 110.875C794.271 111.331 793.717 111.786 793.034 112.242C792.35 112.698 791.504 113.186 790.495 113.707C791.195 114.944 791.903 116.124 792.619 117.247C793.335 118.37 794.075 119.444 794.84 120.47C796.745 118.207 797.697 116.279 797.697 114.684C797.697 114.26 797.575 113.862 797.331 113.487C797.086 113.113 796.704 112.893 796.183 112.828V112.218ZM792.472 122.862C791.74 121.886 791.121 121.039 790.617 120.323C790.128 119.607 789.746 119.021 789.469 118.565C788.932 117.67 788.322 116.547 787.638 115.196C785.018 116.71 783.708 118.517 783.708 120.616C783.708 121.186 783.805 121.739 784.001 122.276C784.196 122.813 784.473 123.285 784.831 123.692C785.189 124.099 785.628 124.425 786.149 124.669C786.67 124.913 787.248 125.035 787.882 125.035C788.224 125.035 788.55 125.011 788.859 124.962C789.184 124.897 789.518 124.791 789.86 124.645C790.218 124.482 790.6 124.262 791.007 123.985C791.431 123.692 791.919 123.318 792.472 122.862ZM789.933 112.657C792.635 111.371 793.986 109.728 793.986 107.726C793.986 106.944 793.742 106.301 793.253 105.797C792.781 105.276 792.179 105.016 791.447 105.016C790.959 105.016 790.535 105.113 790.177 105.309C789.819 105.488 789.518 105.724 789.274 106.017C789.046 106.31 788.867 106.627 788.737 106.969C788.623 107.311 788.566 107.636 788.566 107.945C788.566 108.222 788.582 108.499 788.615 108.775C788.664 109.052 788.737 109.369 788.835 109.728C788.932 110.069 789.071 110.476 789.25 110.948C789.429 111.42 789.656 111.99 789.933 112.657ZM820.475 112.706V122.545C820.475 123.326 820.524 123.945 820.622 124.4C820.736 124.856 820.882 125.198 821.061 125.426C821.256 125.637 821.476 125.776 821.72 125.841C821.981 125.89 822.257 125.914 822.55 125.914H823.893V126.5H814.958V125.914H815.617C816.007 125.914 816.333 125.865 816.593 125.768C816.87 125.654 817.09 125.466 817.252 125.206C817.432 124.946 817.562 124.604 817.643 124.181C817.724 123.741 817.765 123.196 817.765 122.545V112.706H814.86V111.51H817.765V110.533C817.765 109.459 817.912 108.482 818.205 107.604C818.498 106.708 818.913 105.943 819.45 105.309C819.987 104.658 820.638 104.161 821.403 103.819C822.184 103.461 823.055 103.282 824.015 103.282C824.438 103.282 824.886 103.355 825.358 103.502C825.846 103.632 826.294 103.819 826.701 104.063C827.108 104.308 827.441 104.601 827.702 104.942C827.978 105.284 828.117 105.65 828.117 106.041C828.117 106.367 827.978 106.676 827.702 106.969C827.425 107.245 827.116 107.384 826.774 107.384C826.644 107.384 826.514 107.368 826.383 107.335C826.269 107.302 826.139 107.237 825.993 107.14C825.846 107.042 825.692 106.904 825.529 106.725C825.366 106.529 825.179 106.277 824.967 105.968C824.544 105.366 824.17 104.967 823.844 104.771C823.519 104.56 823.144 104.454 822.721 104.454C822.217 104.454 821.785 104.592 821.427 104.869C821.085 105.13 820.841 105.545 820.695 106.114C820.548 106.651 820.475 108.092 820.475 110.436V111.51H824.333V112.706H820.475ZM833.122 111.07C834.163 111.07 835.124 111.274 836.002 111.681C836.881 112.088 837.638 112.641 838.273 113.341C838.924 114.024 839.429 114.838 839.787 115.782C840.161 116.71 840.348 117.695 840.348 118.736C840.348 119.957 840.145 121.072 839.738 122.081C839.347 123.09 838.81 123.961 838.126 124.693C837.443 125.41 836.654 125.971 835.758 126.378C834.863 126.769 833.927 126.964 832.951 126.964C831.925 126.964 830.973 126.752 830.094 126.329C829.232 125.906 828.483 125.336 827.848 124.62C827.23 123.904 826.741 123.074 826.383 122.13C826.042 121.186 825.871 120.193 825.871 119.151C825.871 118.077 826.058 117.06 826.432 116.1C826.807 115.123 827.319 114.26 827.97 113.512C828.621 112.763 829.386 112.169 830.265 111.729C831.144 111.29 832.096 111.07 833.122 111.07ZM832.609 112.145C832.137 112.145 831.681 112.25 831.242 112.462C830.802 112.657 830.412 112.983 830.07 113.438C829.728 113.878 829.451 114.456 829.24 115.172C829.028 115.888 828.922 116.759 828.922 117.784C828.922 118.842 829.028 119.859 829.24 120.836C829.468 121.796 829.785 122.643 830.192 123.375C830.599 124.107 831.095 124.693 831.681 125.133C832.267 125.572 832.918 125.792 833.634 125.792C834.155 125.792 834.635 125.694 835.075 125.499C835.53 125.287 835.921 124.954 836.247 124.498C836.572 124.042 836.824 123.448 837.003 122.716C837.199 121.967 837.296 121.056 837.296 119.981C837.296 118.907 837.191 117.898 836.979 116.954C836.767 115.994 836.458 115.164 836.051 114.464C835.661 113.748 835.172 113.186 834.586 112.779C834.017 112.356 833.358 112.145 832.609 112.145ZM849.87 111.07C850.911 111.07 851.872 111.274 852.751 111.681C853.629 112.088 854.386 112.641 855.021 113.341C855.672 114.024 856.177 114.838 856.535 115.782C856.909 116.71 857.096 117.695 857.096 118.736C857.096 119.957 856.893 121.072 856.486 122.081C856.095 123.09 855.558 123.961 854.875 124.693C854.191 125.41 853.402 125.971 852.506 126.378C851.611 126.769 850.675 126.964 849.699 126.964C848.673 126.964 847.721 126.752 846.842 126.329C845.98 125.906 845.231 125.336 844.596 124.62C843.978 123.904 843.489 123.074 843.131 122.13C842.79 121.186 842.619 120.193 842.619 119.151C842.619 118.077 842.806 117.06 843.18 116.1C843.555 115.123 844.067 114.26 844.718 113.512C845.369 112.763 846.134 112.169 847.013 111.729C847.892 111.29 848.844 111.07 849.87 111.07ZM849.357 112.145C848.885 112.145 848.429 112.25 847.99 112.462C847.55 112.657 847.16 112.983 846.818 113.438C846.476 113.878 846.199 114.456 845.988 115.172C845.776 115.888 845.67 116.759 845.67 117.784C845.67 118.842 845.776 119.859 845.988 120.836C846.216 121.796 846.533 122.643 846.94 123.375C847.347 124.107 847.843 124.693 848.429 125.133C849.015 125.572 849.666 125.792 850.382 125.792C850.903 125.792 851.383 125.694 851.823 125.499C852.279 125.287 852.669 124.954 852.995 124.498C853.32 124.042 853.572 123.448 853.751 122.716C853.947 121.967 854.044 121.056 854.044 119.981C854.044 118.907 853.939 117.898 853.727 116.954C853.515 115.994 853.206 115.164 852.799 114.464C852.409 113.748 851.92 113.186 851.335 112.779C850.765 112.356 850.106 112.145 849.357 112.145ZM869.865 124.815C869.132 125.58 868.416 126.134 867.716 126.476C867.033 126.801 866.284 126.964 865.47 126.964C864.656 126.964 863.883 126.785 863.151 126.427C862.418 126.052 861.767 125.54 861.198 124.889C860.644 124.238 860.197 123.465 859.855 122.569C859.529 121.674 859.367 120.698 859.367 119.64C859.367 118.598 859.538 117.573 859.879 116.563C860.237 115.538 860.734 114.618 861.369 113.805C862.003 112.991 862.76 112.332 863.639 111.827C864.534 111.323 865.519 111.07 866.593 111.07C867.912 111.07 869.002 111.485 869.865 112.315V109.557C869.865 108.515 869.84 107.717 869.792 107.164C869.759 106.594 869.702 106.179 869.621 105.919C869.539 105.659 869.417 105.504 869.254 105.455C869.108 105.406 868.929 105.382 868.717 105.382C868.392 105.382 868.017 105.471 867.594 105.65L867.375 105.064L871.842 103.233H872.575V120.567C872.575 121.609 872.591 122.415 872.624 122.984C872.656 123.554 872.713 123.977 872.794 124.254C872.892 124.514 873.014 124.677 873.161 124.742C873.307 124.791 873.494 124.815 873.722 124.815C873.999 124.815 874.39 124.726 874.894 124.547L875.065 125.108L870.622 126.964H869.865V124.815ZM869.865 123.668V115.953C869.816 115.335 869.678 114.789 869.45 114.317C869.238 113.829 868.97 113.422 868.644 113.097C868.319 112.755 867.96 112.503 867.57 112.34C867.179 112.161 866.789 112.071 866.398 112.071C865.828 112.071 865.299 112.226 864.811 112.535C864.323 112.828 863.891 113.251 863.517 113.805C863.159 114.358 862.874 115.017 862.663 115.782C862.451 116.547 862.345 117.402 862.345 118.346C862.345 119.452 862.475 120.429 862.736 121.275C863.013 122.122 863.362 122.838 863.786 123.424C864.225 123.993 864.722 124.425 865.275 124.718C865.828 125.011 866.398 125.157 866.984 125.157C867.977 125.157 868.937 124.661 869.865 123.668Z" fill="white"/>
</svg>
