<svg width="1148" height="42" viewBox="0 0 1148 42" fill="none" xmlns="http://www.w3.org/2000/svg">
<path d="M0.0620117 20.5933L383.062 20.5933" stroke="white" stroke-width="9"/>
<path d="M496.841 23.9746C496.841 27.946 496.744 30.7617 496.548 32.4219C496.369 34.0658 495.783 35.5713 494.791 36.9385C493.814 38.3057 492.487 39.3555 490.811 40.0879C489.135 40.8203 487.181 41.1865 484.952 41.1865C482.836 41.1865 480.931 40.8447 479.239 40.1611C477.562 39.4613 476.211 38.4196 475.186 37.0361C474.161 35.6527 473.55 34.1471 473.355 32.5195C473.16 30.8919 473.062 28.0436 473.062 23.9746V17.2119C473.062 13.2406 473.152 10.4329 473.331 8.78906C473.526 7.12891 474.112 5.61523 475.088 4.24805C476.081 2.88086 477.416 1.83105 479.092 1.09863C480.769 0.366211 482.722 0 484.952 0C487.068 0 488.964 0.349935 490.64 1.0498C492.333 1.7334 493.692 2.76693 494.717 4.15039C495.743 5.53385 496.353 7.03939 496.548 8.66699C496.744 10.2946 496.841 13.1429 496.841 17.2119V23.9746ZM486.563 10.9863C486.563 9.14714 486.457 7.97526 486.246 7.4707C486.05 6.94987 485.635 6.68945 485 6.68945C484.463 6.68945 484.048 6.90104 483.755 7.32422C483.479 7.73112 483.34 8.95182 483.34 10.9863V29.4434C483.34 31.7383 483.43 33.1543 483.609 33.6914C483.804 34.2285 484.244 34.4971 484.927 34.4971C485.627 34.4971 486.075 34.1878 486.27 33.5693C486.465 32.9508 486.563 31.4779 486.563 29.1504V10.9863Z" fill="white"/>
<path d="M524.063 0.830078V27.2461C524.063 30.2409 523.965 32.3486 523.77 33.5693C523.575 34.7738 522.997 36.0189 522.037 37.3047C521.076 38.5742 519.807 39.5426 518.228 40.21C516.666 40.861 514.818 41.1865 512.686 41.1865C510.326 41.1865 508.243 40.7959 506.436 40.0146C504.629 39.2334 503.278 38.2161 502.383 36.9629C501.488 35.7096 500.959 34.3913 500.796 33.0078C500.634 31.6081 500.552 28.6784 500.552 24.2188V0.830078H510.831V30.4688C510.831 32.194 510.92 33.3008 511.099 33.7891C511.294 34.2611 511.677 34.4971 512.247 34.4971C512.898 34.4971 513.313 34.2367 513.492 33.7158C513.687 33.1787 513.785 31.9255 513.785 29.9561V0.830078H524.063Z" fill="white"/>
<path d="M528.042 0.830078H535.318C540.168 0.830078 543.448 1.01725 545.157 1.3916C546.882 1.76595 548.282 2.72624 549.356 4.27246C550.446 5.80241 550.992 8.25195 550.992 11.6211C550.992 14.6973 550.609 16.7643 549.844 17.8223C549.079 18.8802 547.574 19.515 545.328 19.7266C547.362 20.2311 548.729 20.9066 549.429 21.7529C550.129 22.5993 550.56 23.3805 550.723 24.0967C550.902 24.7965 550.992 26.7415 550.992 29.9316V40.3564H541.446V27.2217C541.446 25.1058 541.275 23.7956 540.933 23.291C540.608 22.7865 539.737 22.5342 538.321 22.5342V40.3564H528.042V0.830078ZM538.321 7.59277V16.3818C539.476 16.3818 540.282 16.2272 540.738 15.918C541.21 15.5924 541.446 14.5589 541.446 12.8174V10.6445C541.446 9.39128 541.218 8.56934 540.762 8.17871C540.323 7.78809 539.509 7.59277 538.321 7.59277Z" fill="white"/>
<path d="M595.547 0.830078V40.3564H586.563V13.6719L582.974 40.3564H576.602L572.818 14.2822V40.3564H563.833V0.830078H577.139C577.53 3.20638 577.945 6.00586 578.384 9.22852L579.8 19.2871L582.144 0.830078H595.547Z" fill="white"/>
<path d="M599.673 0.830078H616.812V8.74023H609.952V16.2354H616.373V23.7549H609.952V32.4463H617.496V40.3564H599.673V0.830078Z" fill="white"/>
<path d="M643.423 0.830078V40.3564H634.415L629.068 22.3877V40.3564H620.474V0.830078H629.068L634.83 18.6279V0.830078H643.423Z" fill="white"/>
<path d="M670.938 0.830078V27.2461C670.938 30.2409 670.84 32.3486 670.645 33.5693C670.45 34.7738 669.872 36.0189 668.912 37.3047C667.951 38.5742 666.682 39.5426 665.103 40.21C663.541 40.861 661.693 41.1865 659.561 41.1865C657.201 41.1865 655.118 40.7959 653.311 40.0146C651.504 39.2334 650.153 38.2161 649.258 36.9629C648.363 35.7096 647.834 34.3913 647.671 33.0078C647.509 31.6081 647.427 28.6784 647.427 24.2188V0.830078H657.706V30.4688C657.706 32.194 657.795 33.3008 657.974 33.7891C658.169 34.2611 658.552 34.4971 659.122 34.4971C659.773 34.4971 660.188 34.2367 660.367 33.7158C660.562 33.1787 660.66 31.9255 660.66 29.9561V0.830078H670.938Z" fill="white"/>
<path d="M760.938 20.5933H1147.94" stroke="white" stroke-width="9"/>
</svg>
